<?xml version="1.0" standalone="no"?> <!DOCTYPE svg PUBLIC "-//W3C//DTD SVG 20010904//EN" "http://www.w3.org/TR/2001/REC-SVG-20010904/DTD/svg10.dtd"> <svg version="1.0" xmlns="http://www.w3.org/2000/svg" width="1800.000000pt" height="1350.000000pt" viewBox="0 0 1800.000000 1350.000000" preserveAspectRatio="xMidYMid meet"> <g transform="translate(0.000000,1350.000000) scale(0.100000,-0.100000)" fill="#ffffff" stroke="none"> <path d="M3851 11109 c-25 -5 -49 -13 -55 -19 -5 -5 -18 -10 -28 -10 -10 0 -21 -7 -24 -15 -4 -8 -15 -15 -26 -15 -27 0 -85 -36 -98 -61 -6 -10 -19 -19 -29 -19 -24 0 -43 -23 -78 -100 -26 -55 -31 -78 -31 -147 -1 -45 3 -85 9 -89 7 -4 6 -10 -1 -18 -12 -15 -18 -705 -6 -724 4 -6 0 -25 -9 -42 -15 -30 -17 -30 -73 -24 -34 4 -72 16 -94 30 -21 13 -46 24 -57 24 -11 0 -21 5 -23 11 -4 11 -133 69 -154 69 -6 0 -17 6 -23 14 -18 22 -157 44 -174 27 -6 -6 -21 -11 -33 -11 -12 0 -28 -10 -36 -22 -13 -19 -18 -21 -31 -10 -18 15 -35 9 -55 -20 -7 -10 -24 -18 -36 -18 -13 0 -29 -7 -36 -15 -7 -8 -19 -15 -26 -15 -8 0 -14 -4 -14 -8 0 -5 -20 -30 -45 -56 -25 -27 -45 -57 -45 -67 0 -11 -6 -28 -12 -39 -10 -15 -10 -24 -1 -38 7 -12 8 -24 2 -33 -5 -8 -10 -180 -10 -384 -10 -3153 -10 -3497 2 -3511 9 -12 9 -20 -1 -39 -10 -19 -11 -30 -2 -50 7 -14 12 -39 12 -54 0 -16 7 -34 15 -41 8 -7 15 -21 15 -32 0 -11 14 -33 30 -50 17 -16 30 -35 30 -42 0 -7 20 -25 44 -40 25 -16 52 -36 62 -47 11 -13 24 -16 45 -12 21 4 30 1 35 -11 8 -21 93 -64 117 -58 10 2 17 -2 17 -11 0 -9 14 -17 34 -21 19 -4 39 -13 46 -21 7 -8 21 -15 31 -15 10 0 20 -4 23 -9 10 -15 163 -85 211 -96 17 -4 38 -16 49 -26 10 -11 24 -18 31 -15 7 2 21 -4 30 -14 10 -11 34 -25 54 -31 20 -6 42 -17 50 -22 13 -11 35 -20 111 -47 39 -14 92 -40 100 -49 8 -10 71 -41 82 -41 5 0 21 -9 35 -20 14 -11 34 -20 45 -20 10 0 41 -16 69 -35 34 -23 63 -35 85 -35 22 0 37 -6 41 -15 8 -23 65 -45 81 -32 10 8 18 6 30 -9 26 -32 135 -94 164 -94 5 0 16 -7 24 -15 9 -8 27 -18 42 -21 33 -7 49 -13 133 -53 37 -17 73 -31 80 -31 8 0 28 -13 44 -28 20 -19 40 -28 60 -28 22 1 33 -5 40 -21 5 -12 21 -24 35 -27 14 -3 72 -29 130 -58 58 -28 112 -55 121 -59 9 -4 22 -2 29 4 10 9 14 9 17 0 10 -27 40 -50 93 -73 30 -13 123 -56 206 -95 82 -40 161 -76 175 -80 13 -4 26 -10 29 -14 11 -13 51 -31 69 -31 11 0 23 -5 26 -10 3 -5 14 -10 25 -10 10 0 20 -7 24 -15 3 -8 17 -15 31 -15 14 0 25 -4 25 -10 0 -5 35 -26 78 -46 42 -20 84 -40 93 -44 9 -5 26 -6 36 -4 13 4 32 -5 54 -26 40 -37 90 -60 130 -60 18 0 29 -5 29 -14 0 -13 45 -38 234 -126 90 -42 115 -49 143 -44 30 6 35 4 31 -12 -4 -21 54 -56 78 -47 9 3 14 -2 14 -16 0 -14 6 -21 18 -21 10 0 27 -6 38 -14 11 -9 30 -12 47 -9 20 4 27 2 27 -10 0 -14 133 -87 159 -87 6 0 28 -9 48 -20 21 -11 43 -20 49 -20 6 0 17 -7 24 -15 7 -8 25 -15 40 -15 41 0 60 -10 60 -31 0 -14 7 -19 29 -19 16 0 34 -7 41 -15 10 -12 63 -40 173 -93 4 -2 7 3 7 12 0 9 5 16 11 16 6 0 9 -9 6 -20 -4 -15 0 -20 16 -20 12 0 36 -9 52 -20 17 -11 37 -20 46 -20 9 0 24 -9 34 -20 10 -11 27 -20 39 -20 11 0 32 -12 48 -27 18 -17 39 -27 62 -27 19 -1 43 -9 53 -18 29 -25 78 -47 122 -54 23 -4 44 -11 47 -15 3 -5 30 -9 60 -9 61 0 204 53 204 76 0 13 53 44 76 44 7 0 18 9 24 19 6 12 23 21 43 23 24 2 33 8 35 25 4 26 41 41 53 22 5 -9 18 -2 48 28 27 26 56 44 84 52 24 6 54 19 68 29 13 11 34 22 45 26 12 4 24 16 27 26 3 13 11 18 21 14 11 -4 19 2 26 20 10 29 20 32 38 14 9 -9 18 -5 38 15 15 15 31 27 37 27 6 0 24 11 41 24 17 13 42 27 56 31 36 11 143 77 158 97 7 10 26 18 41 18 19 0 34 8 44 23 8 12 29 37 46 56 17 19 31 42 31 51 0 9 4 20 9 26 29 31 31 143 31 2176 0 2275 1 2236 -62 2221 -23 -6 -23 -6 -4 15 17 19 17 22 3 28 -9 3 -25 21 -36 40 -12 19 -36 42 -53 50 -18 8 -55 28 -83 43 -27 16 -55 26 -62 24 -6 -3 -26 6 -43 19 -18 13 -46 23 -63 23 -25 0 -31 4 -29 18 2 11 -4 17 -17 17 -11 0 -28 8 -38 19 -27 28 -57 41 -82 34 -13 -3 -26 -2 -30 4 -12 18 -81 54 -91 48 -5 -3 -19 6 -32 20 -13 15 -32 25 -48 25 -15 0 -36 11 -50 25 -19 20 -30 24 -51 20 -20 -5 -33 -1 -48 14 -12 12 -32 21 -46 21 -16 0 -25 6 -25 15 0 24 -59 55 -92 48 -21 -4 -28 -2 -28 10 0 24 -38 40 -77 34 -29 -5 -33 -4 -23 8 10 12 6 18 -23 30 -20 8 -44 15 -54 15 -9 0 -26 8 -37 19 -33 30 -185 104 -201 97 -8 -3 -17 -1 -20 4 -4 6 -15 10 -26 10 -10 0 -29 11 -41 25 -12 14 -30 25 -39 25 -10 0 -26 9 -36 19 -10 11 -54 33 -98 51 -44 17 -100 43 -124 57 -25 14 -60 27 -79 29 -18 1 -42 10 -51 18 -10 9 -22 16 -27 16 -6 0 -25 11 -44 25 -19 14 -40 25 -48 25 -8 0 -27 9 -43 21 -18 13 -36 18 -49 14 -14 -5 -18 -3 -15 8 6 14 -24 30 -122 63 -29 10 -53 23 -53 30 0 7 -8 10 -21 7 -12 -3 -24 -1 -28 4 -13 21 -85 63 -107 63 -12 0 -29 6 -36 13 -23 21 -57 37 -77 37 -10 0 -21 6 -24 14 -3 7 -38 26 -77 41 -43 17 -77 36 -87 51 -8 13 -24 24 -34 24 -12 0 -19 7 -19 20 0 11 -7 23 -15 26 -8 4 -15 14 -15 24 0 11 -4 22 -10 25 -5 3 -10 15 -10 26 0 11 -6 22 -14 25 -8 3 -17 17 -21 31 -7 30 -65 122 -88 142 -10 7 -17 23 -17 35 0 39 -12 64 -31 69 -13 3 -19 14 -19 32 0 18 -6 29 -19 32 -11 3 -21 13 -24 24 -3 10 -17 23 -31 29 -14 5 -26 13 -26 17 0 9 -57 43 -72 43 -5 0 -16 7 -24 15 -8 8 -21 12 -30 8 -8 -3 -25 6 -40 22 -18 20 -31 25 -48 21 -17 -4 -34 3 -62 25 -53 42 -91 61 -117 57 -16 -2 -21 2 -19 14 2 12 -12 23 -44 37 -26 12 -54 21 -64 21 -9 0 -28 9 -42 19 -13 11 -43 24 -66 30 -23 7 -42 15 -42 19 0 11 -244 124 -262 121 -28 -3 -38 2 -38 21 0 17 -5 19 -25 14 -18 -4 -27 -1 -31 10 -3 9 -14 16 -24 16 -9 0 -25 9 -35 20 -10 11 -22 20 -26 20 -5 0 -45 18 -91 40 -46 22 -90 40 -99 40 -9 0 -22 6 -28 14 -6 8 -26 20 -44 27 -18 7 -49 23 -69 36 -21 13 -51 23 -68 23 -20 0 -30 5 -30 15 0 9 -9 15 -24 15 -14 0 -28 5 -31 11 -11 17 -173 91 -185 84 -5 -3 -10 1 -10 9 0 9 -8 16 -19 16 -11 0 -33 11 -49 24 -18 16 -36 23 -49 20 -13 -4 -30 3 -48 20 -15 14 -35 26 -43 26 -8 0 -40 13 -71 28 -67 35 -111 43 -170 31z m109 -84 c7 -8 20 -15 30 -15 10 0 23 -7 30 -15 7 -8 20 -15 30 -15 10 0 23 -7 30 -15 7 -8 23 -15 36 -15 12 0 25 -4 28 -9 4 -5 27 -19 54 -31 26 -12 74 -34 107 -50 33 -15 67 -31 75 -34 8 -3 22 -10 30 -15 8 -5 35 -18 60 -30 25 -12 52 -26 60 -30 8 -5 39 -20 68 -32 28 -13 52 -27 52 -31 0 -5 11 -8 24 -8 13 0 29 -7 36 -15 7 -8 20 -15 30 -15 10 0 23 -7 30 -15 7 -8 19 -15 26 -15 8 0 40 -13 71 -30 31 -16 61 -30 68 -30 7 0 18 -7 25 -15 7 -8 20 -15 30 -15 10 0 23 -7 30 -15 7 -8 23 -15 35 -15 12 0 28 -7 35 -15 7 -8 21 -15 31 -15 10 0 20 -4 23 -9 7 -11 88 -51 103 -51 6 0 16 -7 23 -15 7 -8 23 -15 37 -15 13 0 26 -7 29 -15 4 -8 17 -15 30 -15 14 0 27 -7 30 -15 4 -8 16 -15 29 -15 12 0 28 -7 35 -15 7 -8 20 -15 30 -15 10 0 23 -7 30 -15 7 -8 20 -15 30 -15 10 0 23 -7 30 -15 7 -8 23 -15 36 -15 12 0 25 -4 28 -9 7 -11 88 -51 103 -51 6 0 16 -7 23 -15 7 -8 20 -15 30 -15 10 0 23 -7 30 -15 7 -8 20 -15 30 -15 10 0 23 -7 30 -15 7 -8 21 -15 31 -15 9 0 24 -6 31 -13 7 -8 26 -17 41 -21 15 -3 27 -11 27 -16 0 -6 7 -10 15 -10 19 0 85 -58 85 -75 0 -7 7 -18 15 -25 8 -7 15 -21 15 -31 0 -11 5 -19 10 -19 6 0 13 -8 17 -17 12 -37 45 -103 54 -109 5 -3 9 -14 9 -25 0 -10 4 -19 9 -19 5 0 14 -12 20 -27 6 -16 16 -37 22 -48 18 -31 27 -46 54 -100 14 -27 31 -58 38 -67 14 -18 163 -98 183 -98 6 0 17 -7 24 -15 7 -8 20 -15 30 -15 10 0 23 -7 30 -15 7 -8 21 -15 31 -15 9 0 24 -7 33 -15 8 -8 20 -15 26 -15 7 0 24 -6 38 -14 15 -8 34 -17 42 -20 8 -3 22 -10 30 -15 8 -5 36 -18 62 -30 26 -12 50 -26 53 -32 4 -5 17 -9 29 -9 13 0 29 -7 36 -15 7 -8 23 -15 35 -15 12 0 28 -6 34 -14 7 -8 23 -17 36 -20 14 -4 25 -11 25 -16 0 -6 7 -10 16 -10 21 0 114 -43 114 -52 0 -5 11 -8 24 -8 13 0 29 -6 35 -14 7 -8 23 -17 36 -20 14 -4 25 -11 25 -16 0 -6 11 -10 24 -10 13 0 29 -7 36 -15 7 -8 17 -15 24 -15 6 0 38 -13 71 -29 33 -15 84 -39 113 -52 28 -13 52 -27 52 -31 0 -5 9 -8 19 -8 11 0 26 -7 35 -15 8 -8 23 -15 34 -15 11 0 25 -7 32 -15 7 -8 20 -15 30 -15 10 0 23 -7 30 -15 7 -8 23 -15 37 -15 13 0 26 -7 29 -15 4 -8 17 -15 30 -15 14 0 27 -7 30 -15 4 -8 16 -15 29 -15 12 0 28 -7 35 -15 7 -8 19 -15 26 -15 8 0 40 -13 71 -29 32 -16 65 -32 73 -35 8 -3 22 -10 30 -15 8 -5 22 -12 30 -15 8 -3 22 -10 30 -15 16 -9 135 -65 160 -75 8 -3 22 -10 30 -14 15 -9 71 -35 100 -46 8 -3 22 -10 30 -15 8 -5 22 -12 30 -15 8 -3 22 -10 30 -15 8 -5 22 -12 30 -15 8 -3 22 -10 30 -14 43 -24 83 -42 95 -42 7 0 18 -7 25 -15 7 -8 20 -15 30 -15 10 0 23 -7 30 -15 7 -8 23 -15 36 -15 12 0 25 -4 28 -9 5 -8 56 -34 106 -55 41 -17 120 -90 120 -112 0 -6 7 -17 15 -24 13 -11 15 -262 15 -2151 l0 -2138 -21 -40 c-26 -50 -87 -111 -111 -111 -10 0 -18 -4 -18 -9 0 -5 -12 -14 -27 -20 -36 -15 -72 -36 -86 -50 -6 -6 -19 -11 -28 -11 -9 0 -19 -7 -23 -15 -3 -8 -14 -15 -25 -15 -10 0 -21 -7 -25 -15 -3 -8 -16 -15 -30 -15 -13 0 -26 -7 -30 -15 -3 -8 -12 -15 -19 -15 -8 0 -20 -7 -27 -15 -7 -8 -21 -15 -31 -15 -11 0 -19 -4 -19 -9 0 -5 -12 -14 -27 -20 -16 -6 -41 -20 -58 -30 -16 -11 -50 -30 -75 -43 -25 -13 -47 -26 -50 -30 -3 -4 -17 -12 -30 -18 -14 -5 -38 -19 -55 -30 -16 -10 -50 -29 -75 -42 -25 -13 -47 -26 -50 -30 -3 -4 -17 -12 -30 -17 -14 -6 -33 -15 -42 -21 -10 -5 -26 -15 -35 -20 -10 -6 -28 -14 -40 -19 -11 -6 -24 -15 -28 -20 -3 -6 -13 -11 -22 -11 -9 0 -24 -6 -32 -13 -35 -28 -89 -39 -128 -26 -21 7 -45 19 -54 26 -8 7 -23 13 -31 13 -9 0 -21 7 -28 15 -7 8 -23 15 -35 15 -12 0 -28 7 -35 15 -7 8 -20 15 -30 15 -10 0 -23 7 -30 15 -7 8 -23 15 -35 15 -13 0 -25 7 -29 15 -3 8 -13 15 -22 15 -9 0 -28 6 -42 14 -15 8 -34 17 -42 20 -8 3 -22 10 -30 14 -15 9 -71 35 -100 46 -8 3 -22 10 -30 15 -8 5 -22 12 -30 15 -8 3 -22 10 -30 14 -43 24 -83 42 -95 42 -7 0 -18 7 -25 15 -7 8 -20 15 -30 15 -10 0 -23 7 -30 15 -7 8 -23 15 -36 15 -12 0 -25 4 -28 9 -5 8 -56 34 -106 55 -8 3 -22 10 -30 15 -16 9 -135 65 -160 75 -8 3 -22 10 -30 14 -43 24 -83 42 -95 42 -7 0 -18 7 -25 15 -7 8 -20 15 -30 15 -10 0 -23 7 -30 15 -7 8 -21 15 -31 15 -9 0 -24 7 -33 15 -8 8 -20 15 -26 15 -7 0 -24 6 -38 14 -29 16 -208 100 -232 110 -8 3 -22 10 -30 15 -8 5 -22 12 -30 15 -8 3 -22 10 -30 14 -43 24 -83 42 -95 42 -7 0 -18 7 -25 15 -7 8 -20 15 -30 15 -10 0 -23 7 -30 15 -7 8 -23 15 -35 15 -12 0 -28 7 -35 15 -7 8 -20 15 -30 15 -10 0 -23 7 -30 15 -7 8 -20 15 -30 15 -10 0 -23 7 -30 15 -7 8 -20 15 -30 15 -10 0 -23 7 -30 15 -7 8 -19 15 -27 15 -8 0 -27 6 -41 14 -15 8 -34 17 -42 20 -8 3 -22 10 -30 15 -8 5 -22 12 -30 15 -8 3 -22 10 -30 14 -43 24 -83 42 -95 42 -7 0 -18 7 -25 15 -7 8 -20 15 -30 15 -10 0 -23 7 -30 15 -7 8 -21 15 -31 15 -9 0 -24 7 -33 15 -8 8 -23 15 -34 15 -11 0 -25 7 -32 15 -7 8 -20 15 -30 15 -10 0 -23 7 -30 15 -7 8 -21 15 -31 15 -9 0 -24 7 -33 15 -8 8 -20 15 -26 15 -7 0 -24 6 -38 14 -15 8 -34 17 -42 20 -8 3 -22 10 -30 15 -8 4 -46 23 -85 41 -38 17 -77 36 -85 41 -8 5 -26 14 -40 20 -78 33 -100 44 -100 51 0 4 -11 8 -24 8 -13 0 -29 7 -36 15 -7 8 -20 15 -30 15 -10 0 -23 7 -30 15 -7 8 -20 15 -30 15 -10 0 -23 7 -30 15 -7 8 -20 15 -29 15 -10 0 -26 7 -37 15 -10 8 -27 15 -36 15 -9 0 -23 6 -30 13 -7 8 -26 17 -41 21 -15 3 -27 11 -27 16 0 6 -11 10 -24 10 -13 0 -29 7 -36 15 -7 8 -20 15 -30 15 -10 0 -23 7 -30 15 -7 8 -23 15 -35 15 -12 0 -28 7 -35 15 -7 8 -20 15 -30 15 -10 0 -23 7 -30 15 -7 8 -20 15 -30 15 -10 0 -23 7 -30 15 -7 8 -20 15 -30 15 -10 0 -23 7 -30 15 -7 8 -20 15 -29 15 -10 0 -26 7 -37 15 -10 8 -26 15 -35 15 -9 0 -22 7 -29 15 -7 8 -21 15 -31 15 -9 0 -24 7 -33 15 -8 8 -23 15 -34 15 -11 0 -25 7 -32 15 -7 8 -20 15 -30 15 -10 0 -23 7 -30 15 -7 8 -19 15 -27 15 -8 0 -27 6 -41 14 -15 8 -34 17 -42 20 -8 3 -22 10 -30 15 -8 5 -22 12 -30 15 -8 3 -22 10 -30 14 -15 9 -71 35 -100 46 -8 3 -22 10 -30 15 -8 5 -22 12 -30 15 -8 3 -22 10 -30 15 -30 19 -146 71 -156 71 -7 0 -17 7 -24 15 -7 8 -20 15 -30 15 -10 0 -23 7 -30 15 -7 8 -23 15 -37 15 -13 0 -26 7 -29 15 -4 8 -16 15 -29 15 -12 0 -28 7 -35 15 -7 8 -20 15 -30 15 -10 0 -23 7 -30 15 -7 8 -22 15 -34 15 -24 0 -116 75 -116 95 0 7 -6 18 -14 24 -7 6 -16 30 -20 54 -9 51 -8 4011 1 4082 7 60 36 96 108 131 62 31 80 42 126 77 32 23 46 27 107 27 50 0 73 -4 82 -15 7 -8 20 -15 30 -15 10 0 23 -7 30 -15 7 -8 20 -15 30 -15 10 0 23 -7 30 -15 7 -8 23 -15 35 -15 12 0 28 -7 35 -15 7 -8 20 -15 30 -15 10 0 23 -7 30 -15 7 -8 20 -15 30 -15 10 0 23 -7 30 -15 7 -8 21 -15 31 -15 9 0 24 -7 33 -15 8 -8 24 -15 35 -15 11 0 22 -4 25 -9 7 -11 87 -51 102 -51 5 0 8 221 6 569 -3 533 -2 571 15 602 25 48 52 72 109 100 27 13 52 28 55 32 7 10 41 30 76 46 11 5 24 15 28 20 10 17 110 14 125 -4z m-520 -1230 c0 -8 -4 -15 -10 -15 -5 0 -10 7 -10 15 0 8 5 15 10 15 6 0 10 -7 10 -15z m4320 -6795 c0 -5 -7 -10 -15 -10 -8 0 -15 5 -15 10 0 6 7 10 15 10 8 0 15 -4 15 -10z"/> <path d="M3857 10968 c-46 -16 -110 -53 -114 -65 -2 -6 10 -14 26 -18 17 -4 33 -11 36 -16 4 -5 14 -9 24 -9 10 0 24 -7 31 -15 7 -8 21 -15 31 -15 9 0 24 -7 33 -15 8 -8 23 -15 34 -15 11 0 25 -7 32 -15 7 -8 20 -15 30 -15 10 0 23 -7 30 -15 7 -8 20 -15 30 -15 10 0 23 -7 30 -15 7 -8 21 -15 31 -15 9 0 24 -7 33 -15 8 -8 23 -15 34 -15 11 0 25 -7 32 -15 7 -8 21 -15 31 -15 9 0 24 -7 33 -15 8 -8 24 -15 35 -15 11 0 22 -4 25 -9 3 -4 41 -25 83 -45 43 -21 85 -42 93 -47 8 -5 22 -12 30 -15 71 -30 110 -50 110 -56 0 -5 11 -8 24 -8 13 0 29 -7 36 -15 7 -8 20 -15 30 -15 10 0 23 -7 30 -15 7 -8 20 -15 30 -15 10 0 23 -7 30 -15 7 -8 19 -15 26 -15 12 0 114 -47 154 -71 8 -5 22 -12 30 -15 8 -3 22 -10 30 -15 8 -5 22 -12 30 -15 8 -3 28 -12 43 -20 16 -7 34 -14 42 -14 7 0 18 -7 25 -15 7 -8 20 -15 30 -15 10 0 23 -7 30 -15 7 -8 20 -15 30 -15 10 0 23 -7 30 -15 7 -8 20 -15 30 -15 10 0 23 -7 30 -15 7 -8 23 -15 36 -15 12 0 25 -4 28 -9 7 -11 88 -51 103 -51 6 0 16 -7 23 -15 7 -8 20 -15 30 -15 10 0 23 -7 30 -15 7 -8 23 -15 37 -15 13 0 26 -7 29 -15 4 -8 16 -15 29 -15 12 0 28 -7 35 -15 7 -8 19 -15 27 -15 7 0 28 -10 46 -22 44 -31 60 -53 112 -153 14 -27 30 -57 35 -65 5 -8 11 -22 14 -30 4 -8 15 -28 26 -45 11 -16 22 -36 25 -42 3 -7 7 -19 10 -25 3 -7 16 -31 30 -53 13 -22 24 -48 25 -57 0 -10 4 -18 10 -18 5 0 13 -12 16 -27 8 -32 71 -93 95 -93 9 0 22 -7 29 -15 7 -8 21 -15 31 -15 9 0 24 -7 33 -15 8 -8 19 -15 25 -15 14 0 90 -40 97 -51 3 -5 16 -9 28 -9 13 0 29 -7 36 -15 7 -8 17 -15 23 -15 15 0 96 -40 103 -51 3 -5 16 -9 28 -9 13 0 29 -7 36 -15 7 -8 20 -15 30 -15 10 0 23 -7 30 -15 7 -8 21 -15 31 -15 9 0 24 -7 33 -15 8 -8 23 -15 34 -15 11 0 25 -7 32 -15 7 -8 20 -15 30 -15 10 0 23 -7 30 -15 7 -8 20 -15 30 -15 10 0 23 -7 30 -15 7 -8 20 -15 30 -15 10 0 23 -7 30 -15 7 -8 23 -15 35 -15 12 0 28 -7 35 -15 7 -8 20 -15 30 -15 10 0 23 -7 30 -15 7 -8 19 -15 26 -15 12 0 114 -47 154 -71 8 -5 22 -12 30 -15 8 -3 22 -10 30 -15 8 -5 22 -12 30 -15 8 -3 22 -10 30 -15 8 -5 22 -12 30 -15 8 -3 28 -12 43 -20 16 -7 34 -14 42 -14 7 0 18 -7 25 -15 7 -8 20 -15 30 -15 10 0 23 -7 30 -15 7 -8 20 -15 30 -15 10 0 23 -7 30 -15 7 -8 20 -15 30 -15 10 0 23 -7 30 -15 7 -8 23 -15 35 -15 12 0 28 -7 35 -15 7 -8 21 -15 31 -15 9 0 24 -7 33 -15 8 -8 23 -15 34 -15 11 0 25 -7 32 -15 7 -8 20 -15 30 -15 10 0 23 -7 30 -15 7 -8 20 -15 30 -15 10 0 23 -7 30 -15 7 -8 19 -15 26 -15 12 0 114 -47 154 -71 8 -5 22 -12 30 -15 8 -3 28 -12 43 -20 16 -7 34 -14 42 -14 7 0 18 -7 25 -15 7 -8 20 -15 30 -15 10 0 23 -7 30 -15 7 -8 23 -15 37 -15 13 0 26 -7 29 -15 4 -8 16 -15 29 -15 12 0 28 -7 35 -15 7 -8 20 -15 30 -15 10 0 23 -7 30 -15 7 -8 23 -15 35 -15 12 0 28 -7 35 -15 7 -8 20 -15 30 -15 10 0 23 -7 30 -15 7 -8 20 -15 30 -15 10 0 23 -7 30 -15 7 -8 19 -15 27 -15 20 0 93 -73 93 -93 0 -8 7 -20 15 -27 13 -11 15 -246 15 -2001 0 -1668 -2 -1990 -14 -2001 -7 -8 -16 -24 -20 -36 -9 -28 -77 -82 -138 -111 -27 -13 -50 -27 -54 -32 -3 -5 -13 -9 -24 -9 -10 0 -20 -7 -24 -15 -3 -8 -14 -15 -24 -15 -10 0 -23 -5 -29 -11 -12 -12 -46 -33 -80 -48 -11 -5 -24 -15 -28 -20 -3 -6 -15 -11 -26 -11 -11 0 -22 -7 -25 -15 -4 -8 -14 -15 -24 -15 -10 0 -23 -7 -30 -15 -7 -8 -21 -15 -31 -15 -11 0 -19 -4 -19 -9 0 -5 -12 -14 -27 -20 -16 -7 -44 -20 -63 -31 -44 -24 -42 -24 -68 0 l-22 21 0 1723 c0 1520 -2 1725 -15 1736 -8 7 -15 18 -15 24 0 6 -13 20 -30 29 -16 10 -30 22 -30 28 0 5 -8 9 -19 9 -10 0 -24 7 -31 15 -7 8 -23 15 -35 15 -12 0 -28 7 -35 15 -7 8 -21 15 -32 15 -10 0 -21 7 -24 15 -4 8 -19 15 -34 15 -16 0 -31 4 -34 9 -4 5 -27 19 -54 31 -26 12 -54 26 -62 31 -8 5 -22 12 -30 15 -54 21 -110 50 -110 56 0 5 -11 8 -24 8 -13 0 -29 7 -36 15 -7 8 -20 15 -30 15 -10 0 -23 7 -30 15 -7 8 -23 15 -37 15 -13 0 -26 7 -29 15 -4 8 -16 15 -29 15 -12 0 -28 7 -35 15 -7 8 -20 15 -30 15 -10 0 -23 7 -30 15 -7 8 -19 15 -27 15 -13 0 -48 15 -93 41 -8 5 -22 12 -30 15 -24 9 -84 35 -100 45 -19 10 -79 39 -147 70 -29 13 -53 27 -53 31 0 5 -11 8 -24 8 -13 0 -29 7 -36 15 -7 8 -20 15 -30 15 -10 0 -23 7 -30 15 -7 8 -23 15 -35 15 -12 0 -28 7 -35 15 -7 8 -20 15 -30 15 -10 0 -23 7 -30 15 -7 8 -21 15 -31 15 -9 0 -24 7 -33 15 -8 8 -23 15 -34 15 -11 0 -25 7 -32 15 -7 8 -20 15 -30 15 -10 0 -23 7 -30 15 -7 8 -21 15 -31 15 -9 0 -24 7 -33 15 -8 8 -20 15 -26 15 -7 0 -24 6 -38 13 -15 8 -42 21 -60 30 -19 9 -39 17 -47 17 -7 0 -18 7 -25 15 -7 8 -20 15 -30 15 -10 0 -23 7 -30 15 -7 8 -20 15 -30 15 -10 0 -23 7 -30 15 -7 8 -23 15 -37 15 -13 0 -26 7 -29 15 -4 8 -16 15 -29 15 -12 0 -28 7 -35 15 -7 8 -19 15 -26 15 -8 0 -40 13 -71 29 -115 57 -189 91 -199 91 -7 0 -17 7 -24 15 -7 8 -20 15 -30 15 -10 0 -23 7 -30 15 -7 8 -20 15 -30 15 -10 0 -23 7 -30 15 -7 8 -23 15 -35 15 -12 0 -28 7 -35 15 -7 8 -23 15 -37 15 -13 0 -26 7 -29 15 -4 8 -14 15 -23 15 -25 0 -67 47 -98 110 -4 8 -13 21 -20 28 -7 7 -13 19 -13 26 0 8 -7 19 -15 26 -8 7 -15 21 -15 31 0 11 -4 19 -9 19 -5 0 -14 12 -20 28 -6 15 -20 41 -31 57 -10 17 -31 53 -46 80 -33 63 -45 85 -64 111 -15 22 -123 84 -145 84 -7 0 -18 7 -25 15 -7 8 -20 15 -30 15 -10 0 -23 7 -30 15 -7 8 -23 15 -35 15 -12 0 -28 7 -35 15 -7 8 -21 15 -31 15 -10 0 -20 4 -23 9 -6 9 -20 16 -143 72 -29 13 -53 27 -53 31 0 5 -11 8 -24 8 -13 0 -29 7 -36 15 -7 8 -21 15 -31 15 -9 0 -24 7 -33 15 -8 8 -19 15 -25 15 -5 0 -49 20 -98 43 -48 24 -108 54 -133 66 -25 12 -52 25 -60 30 -53 28 -83 41 -95 41 -7 0 -18 7 -25 15 -7 8 -20 15 -30 15 -10 0 -23 7 -30 15 -7 8 -21 15 -31 15 -9 0 -24 7 -33 15 -8 8 -23 15 -34 15 -11 0 -25 7 -32 15 -7 8 -20 15 -30 15 -10 0 -23 7 -30 15 -7 8 -20 15 -30 15 -10 0 -23 7 -30 15 -7 8 -21 15 -31 15 -10 0 -20 4 -23 9 -6 8 -45 28 -134 66 -82 36 -108 48 -122 56 -8 5 -22 12 -30 15 -8 3 -22 10 -30 15 -8 5 -22 12 -30 15 -8 3 -28 12 -43 20 -16 7 -35 14 -43 14 -8 0 -17 7 -20 15 -4 8 -16 15 -29 15 -12 0 -28 7 -35 15 -7 8 -20 15 -30 15 -10 0 -23 7 -30 15 -7 8 -20 15 -29 15 -10 0 -26 7 -37 15 -21 16 -80 20 -88 6 -3 -5 -17 -12 -32 -15 -14 -4 -31 -11 -37 -17 -7 -5 -21 -16 -31 -23 -23 -16 -13 -36 18 -36 13 0 29 -7 36 -15 7 -8 20 -15 30 -15 10 0 23 -7 30 -15 7 -8 19 -15 27 -15 13 0 48 -15 93 -41 8 -5 22 -12 30 -15 8 -3 42 -19 75 -35 33 -16 65 -29 71 -29 6 0 17 -7 24 -15 7 -8 20 -15 30 -15 10 0 23 -7 30 -15 7 -8 21 -15 31 -15 9 0 24 -7 33 -15 8 -8 23 -15 34 -15 11 0 25 -7 32 -15 7 -8 20 -15 30 -15 10 0 23 -7 30 -15 7 -8 21 -15 31 -15 9 0 24 -7 33 -15 8 -8 23 -15 34 -15 11 0 25 -7 32 -15 7 -8 20 -15 30 -15 10 0 23 -7 30 -15 7 -8 18 -15 24 -15 7 0 52 -20 101 -45 50 -25 95 -45 101 -45 6 0 17 -7 24 -15 7 -8 23 -15 35 -15 12 0 28 -7 35 -15 7 -8 21 -15 31 -15 10 0 20 -4 23 -9 7 -11 88 -51 103 -51 6 0 16 -7 23 -15 7 -8 23 -15 36 -15 12 0 25 -4 28 -9 4 -5 27 -19 54 -31 51 -23 118 -56 142 -69 8 -4 33 -16 55 -26 22 -9 47 -21 55 -26 8 -5 22 -12 30 -15 8 -3 29 -11 45 -19 17 -7 37 -16 45 -19 8 -3 23 -10 33 -16 9 -5 25 -15 35 -20 9 -6 24 -13 32 -16 41 -16 100 -46 105 -55 4 -5 14 -9 24 -9 24 0 101 -77 101 -100 0 -10 7 -23 15 -30 8 -7 15 -21 15 -31 0 -11 5 -19 10 -19 6 0 15 -10 20 -22 6 -13 14 -30 19 -38 5 -8 12 -22 15 -30 4 -8 15 -28 26 -45 11 -16 24 -40 29 -52 5 -11 15 -24 20 -28 6 -3 11 -17 11 -30 0 -12 7 -25 15 -29 8 -3 15 -13 15 -23 1 -28 45 -72 90 -89 8 -3 22 -10 30 -15 8 -5 22 -12 30 -15 8 -3 22 -10 30 -15 8 -5 22 -12 30 -15 27 -10 85 -36 100 -45 8 -5 22 -12 30 -15 8 -3 42 -18 75 -34 33 -16 70 -31 83 -35 12 -3 22 -11 22 -16 0 -5 8 -9 19 -9 10 0 24 -7 31 -15 7 -8 20 -15 29 -15 10 0 26 -7 37 -15 10 -8 26 -15 35 -15 9 0 22 -7 29 -15 7 -8 21 -15 31 -15 9 0 24 -7 33 -15 8 -8 20 -15 26 -15 11 0 48 -17 90 -41 8 -5 22 -12 30 -15 8 -3 28 -12 43 -20 16 -7 34 -14 42 -14 7 0 18 -7 25 -15 7 -8 20 -15 30 -15 10 0 23 -7 30 -15 7 -8 20 -15 30 -15 10 0 23 -7 30 -15 7 -8 23 -15 35 -15 12 0 28 -7 35 -15 7 -8 20 -15 30 -15 10 0 23 -7 30 -15 7 -8 23 -15 37 -15 13 0 26 -7 29 -15 4 -8 16 -15 29 -15 12 0 28 -7 35 -15 7 -8 20 -15 30 -15 10 0 23 -7 30 -15 7 -8 21 -15 31 -15 9 0 24 -7 33 -15 8 -8 24 -15 35 -15 11 0 22 -4 25 -9 6 -8 34 -23 136 -68 19 -8 42 -19 50 -24 8 -5 22 -12 30 -15 8 -3 22 -10 30 -15 8 -5 22 -12 30 -15 8 -3 28 -12 43 -20 16 -7 34 -14 42 -14 7 0 18 -7 25 -15 7 -8 20 -15 30 -15 10 0 23 -7 30 -15 7 -8 20 -15 30 -15 10 0 23 -7 30 -15 7 -8 23 -15 35 -15 12 0 28 -7 35 -15 7 -8 20 -15 30 -15 10 0 23 -7 30 -15 7 -8 20 -15 30 -15 10 0 23 -7 30 -15 7 -8 23 -15 35 -15 12 0 28 -7 35 -15 7 -8 20 -15 30 -15 10 0 23 -7 30 -15 7 -8 23 -15 36 -15 12 0 25 -4 28 -9 7 -11 88 -51 103 -51 6 0 16 -7 23 -15 7 -8 23 -15 35 -15 12 0 28 -7 35 -15 7 -8 21 -15 32 -15 10 0 21 -7 24 -15 4 -8 16 -15 29 -15 12 0 28 -7 35 -15 7 -8 18 -15 26 -15 27 0 103 -62 128 -104 l26 -44 1 -1871 1 -1871 30 18 c61 35 70 40 81 51 6 6 19 11 28 11 9 0 19 7 23 15 3 8 12 15 19 15 8 0 20 7 27 15 7 8 20 15 30 15 10 0 20 7 24 15 3 8 14 15 24 15 11 0 25 7 32 15 7 8 18 15 25 15 7 0 18 7 25 15 7 8 20 15 30 15 10 0 20 7 24 15 3 8 15 15 26 15 11 0 20 4 20 9 0 5 12 14 28 20 35 15 71 36 85 50 6 6 19 11 28 11 10 0 19 4 21 8 2 5 17 16 33 25 17 8 53 27 80 42 28 14 64 35 80 45 17 11 40 24 52 29 11 5 24 15 28 20 3 6 15 11 26 11 10 0 19 4 19 9 0 5 10 13 23 16 30 10 87 65 87 85 0 9 7 25 15 36 12 17 14 287 15 2110 0 1979 -1 2094 -18 2130 -28 62 -51 92 -78 98 -13 4 -24 11 -24 16 0 6 -8 10 -19 10 -10 0 -24 7 -31 15 -7 8 -23 15 -35 15 -12 0 -28 7 -35 15 -7 8 -20 15 -30 15 -10 0 -23 7 -30 15 -7 8 -19 15 -27 15 -13 0 -48 15 -93 41 -8 5 -22 12 -30 15 -8 3 -22 10 -30 15 -8 5 -22 12 -30 15 -27 10 -85 36 -100 45 -8 5 -22 12 -30 15 -8 3 -22 10 -30 15 -8 5 -22 12 -30 15 -8 3 -22 10 -30 15 -8 5 -22 12 -30 15 -27 10 -85 36 -100 45 -8 5 -22 12 -30 15 -8 3 -22 10 -30 15 -8 5 -22 12 -30 15 -8 3 -22 10 -30 15 -8 5 -22 12 -30 15 -8 3 -42 19 -75 35 -33 16 -65 29 -71 29 -7 0 -17 7 -24 15 -7 8 -21 15 -31 15 -9 0 -24 7 -33 15 -8 8 -23 15 -34 15 -11 0 -25 7 -32 15 -7 8 -20 15 -30 15 -10 0 -23 7 -30 15 -7 8 -21 15 -31 15 -9 0 -24 7 -33 15 -8 8 -23 15 -34 15 -11 0 -25 7 -32 15 -7 8 -20 15 -30 15 -10 0 -23 7 -30 15 -7 8 -19 15 -26 15 -8 0 -40 14 -71 30 -31 17 -61 30 -68 30 -7 0 -18 7 -25 15 -7 8 -20 15 -30 15 -10 0 -23 7 -30 15 -7 8 -21 15 -31 15 -9 0 -24 7 -33 15 -8 8 -23 15 -34 15 -11 0 -25 7 -32 15 -7 8 -20 15 -30 15 -10 0 -23 7 -30 15 -7 8 -20 15 -30 15 -10 0 -23 7 -30 15 -7 8 -23 15 -37 15 -13 0 -26 7 -29 15 -4 8 -16 15 -29 15 -12 0 -28 7 -35 15 -7 8 -20 15 -30 15 -10 0 -23 7 -30 15 -7 8 -21 15 -31 15 -9 0 -24 7 -33 15 -8 8 -23 15 -34 15 -11 0 -25 7 -32 15 -7 8 -20 15 -30 15 -10 0 -23 7 -30 15 -7 8 -23 15 -36 15 -12 0 -25 4 -28 9 -7 11 -88 51 -103 51 -6 0 -16 7 -23 15 -7 8 -23 15 -35 15 -12 0 -28 7 -35 15 -7 8 -21 15 -32 15 -10 0 -21 7 -24 15 -4 8 -16 15 -29 15 -12 0 -28 7 -35 15 -7 8 -19 15 -27 15 -20 0 -93 80 -93 101 0 9 -7 19 -15 23 -8 3 -15 14 -15 24 0 11 -7 25 -15 32 -8 7 -15 20 -15 30 0 10 -7 23 -15 30 -8 7 -15 20 -15 30 0 10 -7 20 -15 24 -8 3 -15 12 -15 20 0 14 -30 77 -41 86 -4 3 -19 30 -34 60 -53 109 -77 140 -105 140 -10 0 -23 7 -30 15 -7 8 -20 15 -30 15 -10 0 -23 7 -30 15 -7 8 -20 15 -30 15 -10 0 -23 7 -30 15 -7 8 -20 15 -30 15 -10 0 -23 7 -30 15 -7 8 -19 15 -26 15 -12 0 -114 47 -154 71 -8 5 -22 12 -30 15 -8 3 -22 10 -30 15 -8 5 -22 12 -30 15 -8 3 -22 10 -30 15 -8 5 -22 12 -30 15 -8 3 -42 19 -75 35 -33 16 -65 29 -71 29 -6 0 -17 7 -24 15 -7 8 -20 15 -30 15 -10 0 -23 7 -30 15 -7 8 -21 15 -31 15 -9 0 -24 7 -33 15 -8 8 -23 15 -34 15 -11 0 -25 7 -32 15 -7 8 -20 15 -30 15 -10 0 -23 7 -30 15 -7 8 -20 15 -30 15 -10 0 -23 7 -30 15 -7 8 -20 15 -30 15 -10 0 -23 7 -30 15 -7 8 -19 15 -27 15 -13 0 -35 10 -93 41 -19 10 -93 45 -140 66 -19 8 -42 19 -50 24 -8 5 -22 12 -30 15 -8 3 -22 10 -30 15 -8 5 -22 12 -30 15 -8 3 -22 10 -30 15 -8 5 -22 12 -30 15 -8 3 -58 26 -110 51 -139 65 -213 100 -230 107 -8 3 -22 10 -30 14 -97 55 -139 73 -200 87 -8 2 -27 -1 -43 -7z m5299 -7185 c-11 -11 -19 6 -11 24 8 17 8 17 12 0 3 -10 2 -21 -1 -24z m-26 -38 c15 -18 4 -52 -21 -65 -25 -14 -39 -5 -39 25 0 18 4 23 15 19 10 -4 15 0 15 15 0 24 12 27 30 6z m-136 -100 c3 -9 -1 -18 -10 -22 -19 -7 -28 2 -21 22 8 19 23 19 31 0z m-48 -74 c-10 -16 -46 -13 -52 4 -4 8 0 22 7 31 11 13 14 13 32 -4 11 -11 16 -25 13 -31z m-76 9 c0 -15 -38 -50 -55 -50 -22 0 -18 21 5 27 11 3 20 12 20 19 0 8 7 14 15 14 8 0 15 -4 15 -10z m-82 -82 c-4 -12 -47 -41 -78 -54 -8 -3 -25 -10 -37 -16 -11 -6 -27 -8 -35 -5 -9 4 -6 8 10 12 25 8 27 16 10 33 -10 10 -10 15 2 22 8 5 19 5 25 1 5 -5 20 -11 31 -15 16 -5 23 -2 27 14 3 12 13 20 27 20 12 0 20 -5 18 -12z m-225 -114 c13 -14 -7 -34 -34 -34 -27 0 -109 -44 -117 -62 -2 -5 -10 -8 -17 -8 -8 0 -25 -11 -39 -25 -29 -29 -80 -34 -90 -9 -3 9 -6 42 -6 75 0 70 9 73 78 33 l45 -26 54 18 c30 10 59 24 65 31 11 13 50 18 61 7z"/> <path d="M3645 10847 c-17 -13 -18 -42 -17 -613 0 -329 4 -607 7 -616 4 -10 14 -18 22 -18 8 0 27 -6 41 -13 15 -8 42 -21 60 -30 19 -9 39 -17 47 -17 7 0 18 -7 25 -15 7 -8 20 -15 30 -15 10 0 23 -7 30 -15 7 -8 20 -15 30 -15 10 0 23 -7 30 -15 7 -8 20 -15 30 -15 10 0 23 -7 30 -15 7 -8 23 -15 35 -15 12 0 28 -7 35 -15 7 -8 20 -15 30 -15 10 0 23 -7 30 -15 7 -8 20 -15 30 -15 10 0 23 -7 30 -15 7 -8 19 -15 27 -15 8 0 38 -13 68 -30 30 -16 60 -30 68 -30 8 0 20 -7 27 -15 7 -8 21 -15 31 -15 9 0 24 -7 33 -15 8 -8 23 -15 34 -15 11 0 25 -7 32 -15 7 -8 20 -15 30 -15 10 0 23 -7 30 -15 7 -8 20 -15 30 -15 10 0 23 -7 30 -15 7 -8 21 -15 31 -15 9 0 24 -6 31 -13 7 -8 26 -17 41 -21 15 -3 27 -11 27 -16 0 -6 11 -10 24 -10 13 0 29 -7 36 -15 7 -8 20 -15 30 -15 10 0 23 -7 30 -15 7 -8 20 -15 30 -15 10 0 23 -7 30 -15 7 -8 20 -15 30 -15 10 0 23 -7 30 -15 7 -8 23 -15 35 -15 29 0 94 -63 125 -120 53 -100 62 -116 81 -145 10 -16 23 -40 28 -52 5 -11 15 -24 20 -28 6 -3 11 -15 11 -26 0 -10 4 -19 10 -19 5 0 12 -11 16 -25 3 -13 12 -29 20 -36 8 -6 14 -19 14 -29 0 -10 7 -20 15 -24 8 -3 15 -12 15 -19 0 -18 32 -47 52 -47 9 0 21 -7 28 -15 7 -8 23 -15 35 -15 12 0 28 -7 35 -15 7 -8 21 -15 32 -15 10 0 21 -7 24 -15 4 -8 16 -15 29 -15 12 0 28 -7 35 -15 7 -8 20 -15 30 -15 10 0 23 -7 30 -15 7 -8 23 -15 35 -15 12 0 28 -7 35 -15 7 -8 23 -15 37 -15 13 0 26 -7 29 -15 4 -8 14 -15 23 -15 10 0 26 -7 37 -15 10 -8 26 -15 35 -15 9 0 22 -7 29 -15 7 -8 21 -15 31 -15 9 0 24 -7 33 -15 8 -8 21 -15 28 -15 8 0 23 -7 34 -15 10 -8 26 -15 35 -15 9 0 22 -7 29 -15 7 -8 23 -15 35 -15 13 0 25 -7 29 -15 3 -8 13 -15 22 -15 14 0 48 -15 94 -41 8 -5 22 -12 30 -15 8 -3 42 -19 75 -35 33 -16 65 -29 71 -29 6 0 17 -7 24 -15 7 -8 23 -15 35 -15 12 0 28 -7 35 -15 7 -8 21 -15 32 -15 10 0 21 -7 24 -15 4 -8 16 -15 29 -15 12 0 28 -7 35 -15 7 -8 19 -15 27 -15 13 0 48 -15 93 -41 8 -5 22 -12 30 -15 8 -3 28 -12 43 -20 16 -7 34 -14 42 -14 7 0 18 -7 25 -15 7 -8 21 -15 31 -15 9 0 24 -6 31 -13 7 -8 26 -17 41 -21 15 -3 27 -11 27 -16 0 -6 9 -10 19 -10 11 0 26 -7 35 -15 8 -8 21 -15 29 -15 7 0 34 -11 58 -25 24 -14 51 -27 59 -30 8 -3 28 -13 43 -21 16 -7 34 -14 42 -14 7 0 18 -7 25 -15 7 -8 23 -15 35 -15 12 0 28 -7 35 -15 7 -8 20 -15 30 -15 10 0 23 -7 30 -15 7 -8 20 -15 30 -15 10 0 23 -7 30 -15 7 -8 23 -15 35 -15 12 0 28 -6 34 -14 7 -8 23 -17 36 -20 14 -4 25 -11 25 -16 0 -6 9 -10 20 -10 11 0 46 -13 77 -30 31 -16 61 -30 68 -30 7 0 18 -7 25 -15 7 -8 20 -15 30 -15 10 0 23 -7 30 -15 7 -8 21 -15 31 -15 9 0 24 -7 33 -15 8 -8 23 -15 34 -15 11 0 25 -7 32 -15 7 -8 20 -15 30 -15 10 0 23 -7 30 -15 7 -8 20 -15 29 -15 19 0 101 -70 101 -87 0 -6 7 -13 15 -17 8 -3 15 -14 15 -24 0 -11 7 -36 15 -57 14 -33 16 -219 13 -1711 -2 -921 -1 -1674 2 -1674 4 0 11 5 17 11 12 12 46 33 80 48 11 5 24 15 28 20 3 6 15 11 26 11 10 0 19 4 19 10 0 5 11 12 25 16 14 3 25 10 25 14 0 4 12 13 28 19 35 15 71 36 85 50 6 6 19 11 28 11 9 0 19 7 23 15 3 8 14 15 24 15 11 0 25 7 32 15 7 8 18 15 25 15 7 0 18 7 25 15 7 8 19 15 27 15 8 0 32 13 53 30 75 59 70 -88 70 2066 l-1 1919 -27 54 c-20 40 -38 60 -67 75 -22 11 -41 24 -43 28 -2 4 -14 8 -27 8 -12 0 -28 7 -35 15 -7 8 -20 15 -30 15 -10 0 -23 7 -30 15 -7 8 -20 15 -30 15 -10 0 -23 7 -30 15 -7 8 -20 15 -29 15 -10 0 -26 7 -37 15 -10 8 -26 15 -35 15 -9 0 -22 7 -29 15 -7 8 -20 15 -30 15 -10 0 -23 7 -30 15 -7 8 -23 15 -37 15 -13 0 -26 7 -29 15 -4 8 -14 15 -23 15 -10 0 -26 7 -37 15 -10 8 -26 15 -35 15 -9 0 -22 7 -29 15 -7 8 -23 15 -37 15 -13 0 -26 7 -29 15 -4 8 -16 15 -29 15 -12 0 -28 7 -35 15 -7 8 -20 15 -30 15 -10 0 -23 7 -30 15 -7 8 -18 15 -24 15 -7 0 -39 14 -71 30 -32 17 -64 30 -71 30 -6 0 -17 7 -24 15 -7 8 -20 15 -30 15 -10 0 -23 7 -30 15 -7 8 -20 15 -30 15 -10 0 -23 7 -30 15 -7 8 -23 15 -35 15 -12 0 -28 7 -35 15 -7 8 -20 15 -30 15 -10 0 -23 7 -30 15 -7 8 -20 15 -29 15 -9 0 -25 7 -35 15 -11 8 -28 15 -38 15 -10 0 -21 7 -24 15 -4 8 -16 15 -29 15 -12 0 -28 7 -35 15 -7 8 -20 15 -30 15 -10 0 -23 7 -30 15 -7 8 -23 15 -35 15 -12 0 -28 6 -34 14 -7 8 -23 17 -36 20 -14 4 -25 11 -25 16 0 6 -11 10 -24 10 -13 0 -29 7 -36 15 -7 8 -20 15 -30 15 -10 0 -23 7 -30 15 -7 8 -20 15 -29 15 -10 0 -26 7 -37 15 -10 8 -27 15 -37 15 -10 0 -20 7 -23 15 -4 8 -16 15 -29 15 -12 0 -28 7 -35 15 -7 8 -23 15 -35 15 -13 0 -25 7 -29 15 -3 8 -16 15 -29 15 -14 0 -30 7 -37 15 -7 8 -20 15 -30 15 -10 0 -23 7 -30 15 -7 8 -20 15 -30 15 -10 0 -23 7 -30 15 -7 8 -23 15 -35 15 -12 0 -28 7 -35 15 -7 8 -20 15 -30 15 -10 0 -23 7 -30 15 -7 8 -20 15 -30 15 -10 0 -23 7 -30 15 -7 8 -19 15 -27 15 -13 0 -35 10 -93 41 -41 22 -97 48 -117 54 -13 3 -23 11 -23 16 0 5 -11 9 -24 9 -13 0 -29 7 -36 15 -7 8 -18 15 -24 15 -19 0 -106 84 -106 101 0 9 -7 22 -15 29 -8 7 -15 20 -15 30 0 10 -7 23 -15 30 -8 7 -15 21 -15 32 0 10 -7 21 -15 24 -8 4 -15 17 -15 30 0 13 -4 24 -9 24 -5 0 -14 12 -20 28 -6 15 -20 41 -31 57 -11 17 -22 37 -26 45 -3 8 -10 22 -15 30 -5 8 -20 38 -34 67 -25 50 -80 103 -107 103 -8 0 -23 7 -34 15 -10 8 -26 15 -35 15 -9 0 -22 7 -29 15 -7 8 -20 15 -30 15 -10 0 -23 7 -30 15 -7 8 -20 15 -30 15 -10 0 -23 7 -30 15 -7 8 -21 15 -31 15 -9 0 -24 7 -33 15 -8 8 -20 15 -27 15 -17 0 -97 39 -105 51 -3 5 -13 9 -23 9 -10 0 -24 7 -31 15 -7 8 -20 15 -30 15 -10 0 -23 7 -30 15 -7 8 -23 15 -35 15 -13 0 -25 7 -29 15 -3 8 -16 15 -29 15 -14 0 -30 7 -37 15 -7 8 -20 15 -30 15 -10 0 -23 7 -30 15 -7 8 -19 15 -26 15 -17 0 -98 41 -102 52 -2 4 -10 8 -19 8 -13 0 -48 15 -93 41 -8 5 -22 12 -30 15 -8 3 -22 10 -30 15 -8 5 -22 12 -30 15 -8 3 -28 12 -43 20 -16 7 -34 14 -42 14 -7 0 -18 7 -25 15 -7 8 -20 15 -30 15 -10 0 -23 7 -30 15 -7 8 -20 15 -30 15 -10 0 -23 7 -30 15 -7 8 -20 15 -30 15 -10 0 -23 7 -30 15 -7 8 -23 15 -35 15 -12 0 -28 7 -35 15 -7 8 -20 15 -30 15 -10 0 -23 7 -30 15 -7 8 -18 15 -24 15 -10 0 -243 110 -276 131 -8 5 -22 12 -30 15 -24 9 -144 65 -160 75 -8 5 -22 12 -30 15 -8 3 -22 10 -30 15 -31 18 -83 39 -99 39 -10 0 -25 -6 -36 -13z m176 -110 c-1 -12 -15 -9 -19 4 -3 6 1 10 8 8 6 -3 11 -8 11 -12z m-26 -25 c28 -10 56 -21 63 -25 7 -5 21 -6 31 -2 11 3 23 0 28 -8 12 -19 83 -58 94 -51 6 3 22 -6 36 -20 15 -16 37 -26 54 -26 16 0 34 -8 41 -18 14 -21 100 -62 128 -62 31 0 80 -22 80 -36 0 -9 12 -14 35 -14 28 0 35 -4 35 -19 0 -19 38 -36 72 -32 9 1 21 -7 27 -18 6 -11 25 -23 43 -26 18 -4 44 -16 57 -26 13 -11 37 -19 52 -19 16 0 38 -9 49 -20 11 -11 29 -20 40 -20 10 0 24 -9 30 -19 5 -11 32 -27 60 -36 27 -9 50 -21 50 -26 0 -5 8 -9 19 -9 10 0 24 -7 31 -15 7 -8 22 -15 33 -15 11 0 42 -13 69 -30 26 -16 55 -30 64 -30 9 0 28 -8 42 -18 15 -10 50 -27 77 -37 28 -10 52 -21 55 -25 5 -7 139 -75 330 -169 58 -28 116 -51 128 -51 12 0 22 -5 22 -11 0 -6 18 -28 40 -50 22 -22 40 -46 40 -53 0 -7 11 -23 25 -36 14 -13 25 -28 25 -33 0 -6 11 -25 25 -42 13 -18 21 -36 17 -39 -7 -8 39 -96 50 -96 5 0 8 -9 8 -19 0 -10 11 -29 25 -42 13 -13 25 -29 25 -36 0 -7 12 -24 27 -37 20 -19 24 -29 16 -37 -8 -8 -4 -17 14 -35 13 -13 28 -24 33 -24 6 0 10 -6 10 -12 0 -16 84 -63 128 -73 18 -4 36 -13 38 -20 8 -19 111 -68 125 -59 7 4 17 0 23 -8 17 -23 76 -50 93 -44 9 4 25 -4 39 -19 13 -14 34 -25 49 -25 16 0 25 -6 25 -15 0 -10 10 -15 28 -15 16 0 37 -9 47 -20 10 -11 24 -20 32 -20 7 0 31 -11 53 -25 22 -14 70 -37 107 -51 37 -15 73 -31 78 -35 26 -19 129 -69 144 -69 9 0 27 -9 41 -20 14 -11 29 -20 34 -20 5 0 31 -13 58 -30 32 -20 62 -30 87 -30 30 0 42 -5 55 -25 10 -15 26 -25 41 -25 13 0 44 -14 68 -31 38 -27 48 -29 66 -19 20 10 22 9 19 -11 -2 -18 3 -24 32 -32 19 -5 39 -15 43 -23 4 -8 23 -14 41 -14 19 0 39 -7 46 -15 7 -8 18 -15 25 -15 17 0 76 -30 100 -50 11 -10 31 -21 45 -25 14 -4 36 -15 50 -24 13 -9 38 -16 55 -16 21 0 33 -6 40 -22 5 -12 21 -25 36 -28 14 -3 74 -30 133 -60 58 -30 115 -55 125 -55 10 0 30 -9 44 -20 14 -11 74 -43 133 -70 100 -47 107 -49 120 -33 7 10 14 13 14 7 0 -5 -5 -15 -11 -21 -8 -8 2 -17 36 -32 26 -12 50 -21 54 -21 3 0 17 -9 31 -20 14 -11 37 -20 52 -20 20 0 27 -6 30 -22 2 -14 12 -24 27 -28 29 -7 39 -28 17 -36 -12 -5 -13 -10 -6 -25 12 -21 16 -3700 4 -3789 -8 -62 -61 -140 -95 -140 -27 0 -87 -41 -93 -63 -4 -16 -11 -18 -38 -12 -31 7 -32 6 -13 -8 19 -15 19 -16 1 -23 -11 -4 -21 -2 -26 5 -5 10 -9 9 -13 -3 -4 -9 -13 -16 -22 -16 -9 0 -38 -11 -65 -25 -27 -14 -56 -25 -64 -25 -46 0 -44 -50 -50 1605 -4 858 -10 1580 -15 1605 -13 73 -49 155 -79 181 -43 39 -90 69 -107 69 -8 0 -23 9 -32 20 -10 11 -21 20 -25 20 -14 0 -283 132 -300 147 -14 13 -17 12 -26 -3 -10 -19 -32 -11 -32 11 0 8 -12 18 -27 21 -15 4 -42 18 -61 31 -19 12 -43 23 -52 23 -9 0 -34 11 -54 25 -20 14 -50 25 -67 25 -18 0 -32 6 -36 16 -7 20 -141 84 -176 84 -17 0 -25 4 -21 13 3 8 -12 20 -38 31 -24 9 -51 21 -60 27 -10 5 -28 9 -40 9 -13 0 -29 9 -35 19 -7 11 -27 22 -45 26 -18 4 -50 21 -71 37 -32 26 -40 28 -54 17 -13 -12 -18 -11 -31 9 -8 12 -24 22 -36 22 -11 0 -39 14 -60 30 -22 17 -47 30 -56 30 -8 0 -25 7 -37 15 -14 10 -32 13 -47 9 -15 -3 -27 -1 -33 8 -15 25 -77 63 -106 64 -15 1 -36 8 -45 17 -9 8 -27 18 -39 21 -13 4 -23 11 -23 15 0 10 -46 31 -68 31 -9 0 -23 9 -30 21 -10 16 -20 20 -40 16 -20 -4 -39 4 -75 29 -26 19 -54 34 -61 34 -8 0 -18 5 -21 10 -3 6 -17 10 -29 10 -13 0 -29 7 -36 16 -8 8 -27 21 -44 29 -17 8 -51 26 -75 39 -43 24 -46 25 -64 8 -18 -16 -19 -16 -16 7 4 21 -3 27 -51 46 -77 30 -159 68 -273 126 -54 27 -103 49 -108 49 -14 0 -43 35 -76 90 -14 25 -37 56 -49 70 -13 14 -25 39 -27 55 -3 24 -8 29 -25 27 -23 -3 -30 12 -12 23 13 8 -44 112 -77 141 -15 13 -22 26 -17 37 4 12 1 17 -10 17 -9 0 -16 6 -16 13 0 33 -167 151 -198 140 -8 -3 -22 4 -33 16 -11 11 -43 32 -72 45 -28 13 -123 58 -210 100 -87 42 -165 76 -172 76 -7 0 -27 11 -43 25 -17 14 -41 25 -55 25 -13 0 -30 7 -37 15 -7 8 -21 15 -31 15 -10 0 -21 5 -24 10 -3 6 -15 10 -25 10 -10 0 -23 7 -28 16 -5 9 -31 24 -58 34 -66 23 -182 79 -189 91 -4 5 -16 9 -28 9 -12 0 -40 11 -62 25 -22 13 -72 40 -111 60 -84 42 -103 60 -114 112 -5 21 -10 245 -10 498 -1 293 -5 464 -12 472 -28 35 28 42 107 15z m3242 -3028 c-9 -9 -28 6 -21 18 4 6 10 6 17 -1 6 -6 8 -13 4 -17z"/> <path d="M2662 9737 l-22 -23 0 -2050 1 -2049 23 -40 c12 -22 33 -45 45 -51 13 -7 28 -17 34 -23 6 -6 19 -11 28 -11 9 0 22 -7 29 -15 7 -8 23 -15 35 -15 12 0 28 -7 35 -15 7 -8 20 -15 30 -15 10 0 23 -7 30 -15 7 -8 20 -15 30 -15 10 0 23 -7 30 -15 7 -8 21 -15 31 -15 9 0 24 -7 33 -15 8 -8 23 -15 34 -15 11 0 25 -7 32 -15 7 -8 20 -15 30 -15 10 0 23 -7 30 -15 7 -8 20 -15 29 -15 10 0 26 -7 37 -15 10 -8 26 -15 35 -15 9 0 22 -7 29 -15 7 -8 20 -15 30 -15 10 0 23 -7 30 -15 7 -8 21 -15 31 -15 9 0 24 -7 33 -15 8 -8 21 -15 28 -15 8 0 23 -7 34 -15 10 -8 26 -15 35 -15 9 0 22 -7 29 -15 7 -8 20 -15 30 -15 10 0 23 -7 30 -15 7 -8 21 -15 31 -15 9 0 24 -7 33 -15 8 -8 24 -15 36 -15 11 0 23 -7 26 -15 4 -8 15 -15 25 -15 11 0 45 -13 76 -30 31 -16 61 -30 68 -30 7 0 18 -7 25 -15 7 -8 21 -15 31 -15 9 0 24 -6 31 -13 7 -8 26 -17 41 -21 15 -3 27 -11 27 -16 0 -6 11 -10 24 -10 13 0 29 -7 36 -15 7 -8 20 -15 30 -15 10 0 23 -7 30 -15 7 -8 23 -15 35 -15 12 0 28 -7 35 -15 7 -8 20 -15 30 -15 10 0 23 -7 30 -15 7 -8 20 -15 30 -15 10 0 23 -7 30 -15 7 -8 23 -15 37 -15 13 0 26 -7 29 -15 4 -8 16 -15 29 -15 12 0 28 -7 35 -15 7 -8 18 -15 24 -15 7 0 39 -13 71 -30 32 -16 64 -30 71 -30 6 0 17 -7 24 -15 7 -8 20 -15 30 -15 10 0 23 -7 30 -15 7 -8 23 -15 37 -15 13 0 26 -7 29 -15 4 -8 14 -15 23 -15 10 0 26 -7 37 -15 10 -8 26 -15 35 -15 9 0 22 -7 29 -15 7 -8 20 -15 30 -15 10 0 23 -7 30 -15 7 -8 23 -15 35 -15 12 0 28 -7 35 -15 7 -8 20 -15 30 -15 10 0 23 -7 30 -15 7 -8 20 -15 30 -15 10 0 23 -7 30 -15 7 -8 23 -15 35 -15 12 0 28 -7 35 -15 7 -8 20 -15 30 -15 10 0 23 -7 30 -15 7 -8 20 -15 30 -15 10 0 23 -7 30 -15 7 -8 23 -15 37 -15 13 0 26 -7 29 -15 4 -8 17 -15 30 -15 14 0 27 -7 30 -15 4 -8 13 -15 22 -15 19 0 100 -38 108 -51 3 -5 16 -9 29 -9 13 0 26 -4 29 -9 7 -10 78 -45 114 -56 12 -3 22 -11 22 -16 0 -5 11 -9 24 -9 13 0 29 -7 36 -15 7 -8 18 -15 24 -15 13 0 79 -32 99 -48 7 -5 24 -12 40 -16 15 -3 27 -11 27 -16 0 -6 11 -10 24 -10 13 0 29 -7 36 -15 7 -8 20 -15 30 -15 10 0 23 -7 30 -15 7 -8 19 -15 26 -15 8 0 40 -13 71 -30 31 -16 64 -30 73 -30 10 0 23 -6 29 -14 7 -8 23 -17 36 -20 14 -4 25 -11 25 -16 0 -6 8 -10 18 -10 10 0 27 -7 38 -15 10 -8 26 -15 35 -15 9 0 22 -7 29 -15 7 -8 20 -15 30 -15 10 0 23 -7 30 -15 7 -8 23 -15 35 -15 12 0 28 -7 35 -15 7 -8 20 -15 30 -15 10 0 23 -7 30 -15 7 -8 19 -15 26 -15 8 0 40 -13 71 -30 31 -17 61 -30 68 -30 7 0 18 -7 25 -15 7 -8 21 -15 31 -15 9 0 24 -7 33 -15 8 -8 24 -15 36 -15 11 0 23 -7 26 -15 4 -8 16 -15 29 -15 12 0 28 -7 35 -15 7 -8 21 -15 31 -15 9 0 24 -7 33 -15 8 -8 21 -15 29 -15 8 0 20 -7 27 -15 7 -8 23 -15 35 -15 12 0 28 -7 35 -15 7 -8 20 -15 30 -15 10 0 23 -7 30 -15 7 -8 21 -15 31 -15 9 0 24 -7 33 -15 8 -8 23 -15 34 -15 11 0 25 -7 32 -15 7 -8 21 -15 31 -15 9 0 24 -7 33 -15 8 -8 23 -15 34 -15 11 0 25 -7 32 -15 7 -8 20 -15 30 -15 10 0 23 -7 30 -15 7 -8 21 -15 31 -15 9 0 24 -7 33 -15 8 -8 23 -15 34 -15 11 0 25 -7 32 -15 7 -8 20 -15 30 -15 10 0 23 -7 30 -15 7 -8 20 -15 30 -15 10 0 23 -7 30 -15 18 -22 93 -20 113 3 16 17 17 162 17 1879 0 1642 -2 1862 -15 1873 -8 7 -15 19 -15 26 0 20 -49 64 -90 80 -8 3 -42 19 -75 35 -33 16 -65 29 -71 29 -7 0 -17 7 -24 15 -7 8 -21 15 -31 15 -9 0 -24 6 -31 13 -7 8 -26 17 -41 21 -15 3 -27 11 -27 16 0 6 -11 10 -24 10 -13 0 -29 7 -36 15 -7 8 -20 15 -30 15 -10 0 -23 7 -30 15 -7 8 -19 15 -27 15 -13 0 -48 15 -93 41 -8 5 -22 12 -30 15 -8 3 -42 19 -75 35 -33 16 -65 29 -71 29 -6 0 -17 7 -24 15 -7 8 -20 15 -30 15 -10 0 -23 7 -30 15 -7 8 -23 15 -35 15 -12 0 -28 7 -35 15 -7 8 -20 15 -30 15 -10 0 -23 7 -30 15 -7 8 -20 15 -30 15 -10 0 -23 7 -30 15 -7 8 -20 15 -30 15 -10 0 -23 7 -30 15 -7 8 -23 15 -35 15 -12 0 -28 7 -35 15 -7 8 -20 15 -30 15 -10 0 -23 7 -30 15 -7 8 -23 15 -36 15 -12 0 -25 4 -28 9 -4 5 -27 19 -54 31 -26 12 -54 26 -62 31 -8 5 -22 12 -30 15 -27 10 -85 36 -100 45 -8 5 -22 12 -30 15 -8 3 -22 10 -30 15 -8 5 -22 12 -30 15 -8 3 -42 19 -75 35 -33 16 -67 29 -76 29 -9 0 -19 7 -23 15 -3 8 -14 15 -25 15 -11 0 -26 7 -35 15 -8 8 -23 15 -34 15 -11 0 -25 7 -32 15 -7 8 -21 15 -31 15 -9 0 -24 7 -33 15 -8 8 -21 15 -29 15 -8 0 -20 7 -27 15 -7 8 -23 15 -35 15 -12 0 -28 7 -35 15 -7 8 -20 15 -30 15 -10 0 -23 7 -30 15 -7 8 -23 15 -35 15 -12 0 -28 7 -35 15 -7 8 -20 15 -30 15 -10 0 -23 7 -30 15 -7 8 -20 15 -29 15 -10 0 -26 7 -37 15 -10 8 -26 15 -35 15 -9 0 -22 7 -29 15 -7 8 -20 15 -30 15 -10 0 -23 7 -30 15 -7 8 -23 15 -37 15 -13 0 -26 7 -29 15 -4 8 -16 15 -29 15 -12 0 -28 7 -35 15 -7 8 -20 15 -30 15 -10 0 -23 7 -30 15 -7 8 -17 15 -23 15 -15 0 -109 47 -134 67 -21 17 -59 77 -82 130 -5 11 -15 24 -20 28 -6 3 -11 14 -11 24 0 10 -7 24 -15 31 -8 7 -15 21 -15 31 0 11 -5 19 -10 19 -6 0 -15 10 -20 23 -6 12 -15 31 -22 42 -22 39 -28 50 -37 72 -6 11 -15 24 -20 28 -6 3 -11 12 -11 20 0 20 -61 85 -81 85 -9 0 -22 7 -29 15 -7 8 -20 15 -30 15 -10 0 -23 7 -30 15 -7 8 -20 15 -30 15 -10 0 -23 7 -30 15 -7 8 -19 15 -27 15 -13 0 -48 15 -93 41 -8 5 -22 12 -30 15 -8 3 -56 25 -105 50 -50 24 -95 44 -101 44 -7 0 -17 7 -24 15 -7 8 -21 15 -31 15 -9 0 -24 7 -33 15 -8 8 -23 15 -34 15 -11 0 -25 7 -32 15 -7 8 -23 15 -35 15 -13 0 -25 7 -29 15 -3 8 -14 15 -24 15 -11 0 -25 7 -32 15 -7 8 -23 15 -35 15 -12 0 -28 7 -35 15 -7 8 -20 15 -30 15 -10 0 -23 7 -30 15 -7 8 -20 15 -30 15 -10 0 -23 7 -30 15 -7 8 -19 15 -26 15 -8 0 -40 13 -71 29 -32 16 -82 39 -110 52 -29 13 -53 27 -53 31 0 5 -8 8 -18 8 -10 0 -27 7 -38 15 -10 8 -26 15 -35 15 -9 0 -22 7 -29 15 -7 8 -21 15 -31 15 -9 0 -24 7 -33 15 -8 8 -20 15 -26 15 -11 0 -48 17 -90 41 -8 5 -22 12 -30 15 -8 3 -22 10 -30 15 -8 5 -22 12 -30 15 -29 11 -85 37 -100 46 -8 4 -22 11 -30 14 -54 21 -110 50 -110 56 0 5 -8 8 -18 8 -10 0 -27 7 -38 15 -10 8 -26 15 -35 15 -9 0 -22 7 -29 15 -7 8 -20 15 -30 15 -10 0 -23 7 -30 15 -7 8 -20 15 -30 15 -10 0 -23 7 -30 15 -19 22 -63 18 -88 -8z m178 -128 c19 -7 58 -23 86 -36 28 -12 56 -23 62 -23 6 0 15 -6 19 -14 8 -14 70 -44 138 -67 22 -7 63 -28 92 -47 54 -35 116 -57 146 -53 9 1 20 -5 23 -14 4 -9 21 -22 38 -30 17 -8 38 -19 46 -24 33 -22 128 -61 148 -61 15 0 20 -4 15 -16 -4 -12 0 -14 20 -9 16 5 28 2 34 -7 10 -17 33 -30 178 -98 61 -28 121 -57 135 -64 14 -8 42 -16 62 -20 21 -4 51 -18 68 -32 22 -19 37 -24 55 -20 20 5 33 -2 65 -34 22 -22 49 -40 61 -40 11 0 35 -11 52 -24 48 -36 120 -66 131 -55 16 15 26 10 26 -11 0 -11 6 -20 14 -20 7 0 19 -7 26 -15 7 -8 25 -15 41 -15 16 0 29 -4 29 -10 0 -5 9 -10 20 -10 12 0 45 -18 75 -40 31 -23 65 -40 81 -40 23 0 26 -3 22 -25 -4 -17 -1 -25 9 -25 8 0 20 -13 26 -30 6 -16 14 -30 17 -30 4 0 15 -6 25 -14 17 -12 17 -16 5 -31 -8 -10 -10 -19 -4 -23 14 -11 47 -62 78 -121 15 -29 38 -65 52 -80 13 -14 24 -32 24 -40 0 -29 51 -89 81 -95 16 -3 29 -12 29 -20 0 -8 11 -21 24 -28 75 -41 110 -57 116 -53 13 8 77 -23 83 -40 4 -9 18 -15 35 -15 16 0 37 -9 47 -20 12 -13 25 -17 44 -14 20 4 28 0 36 -18 7 -17 21 -24 52 -29 27 -3 58 -17 85 -39 24 -20 52 -33 65 -32 14 1 23 -4 23 -12 0 -16 50 -36 90 -36 16 0 38 -11 56 -30 16 -16 35 -30 42 -30 7 0 29 -10 50 -23 57 -36 200 -90 218 -83 23 9 37 -3 24 -19 -15 -18 38 -44 74 -38 18 4 28 0 32 -11 3 -9 14 -16 24 -16 10 0 23 -7 30 -15 10 -12 131 -75 145 -75 2 0 41 -18 86 -40 45 -22 92 -40 105 -40 13 0 28 -9 34 -20 6 -11 19 -20 30 -20 10 0 22 -4 25 -10 3 -5 17 -10 31 -10 14 0 27 -7 30 -15 7 -17 54 -21 54 -5 0 6 5 10 10 10 6 0 8 -11 4 -25 -5 -19 -2 -26 12 -30 18 -6 45 -18 133 -59 18 -9 44 -13 56 -10 18 4 25 1 30 -15 3 -12 14 -21 24 -21 10 0 38 -13 62 -30 24 -16 52 -30 62 -30 9 0 17 -4 17 -8 0 -16 52 -34 64 -22 16 16 29 12 23 -10 -4 -17 0 -20 28 -20 19 0 35 -6 38 -14 3 -8 28 -21 56 -31 28 -9 51 -20 51 -24 0 -3 21 -13 46 -20 25 -8 51 -22 57 -32 7 -11 19 -19 28 -19 8 0 42 -13 74 -30 32 -16 66 -30 75 -30 26 0 100 -87 100 -118 0 -15 2 -736 5 -1602 2 -866 4 -1604 4 -1640 1 -144 -7 -257 -22 -295 -15 -38 -18 -40 -53 -38 -21 2 -42 7 -48 13 -5 5 -20 10 -31 10 -12 0 -30 9 -40 20 -10 11 -23 20 -28 20 -5 0 -52 20 -104 45 -51 24 -101 41 -109 38 -10 -4 -17 2 -20 15 -4 15 -13 19 -37 18 -21 -1 -32 4 -32 13 0 8 -13 18 -29 22 -16 5 -39 18 -52 30 -21 19 -24 20 -30 5 -9 -23 -27 -20 -21 4 3 13 0 20 -9 20 -7 0 -30 8 -51 19 -102 50 -148 71 -159 71 -6 0 -23 9 -38 21 -14 11 -34 19 -43 17 -10 -1 -38 12 -62 30 -24 18 -52 32 -61 32 -9 0 -28 9 -41 21 -13 11 -25 16 -27 10 -2 -6 -8 -11 -13 -11 -4 0 -6 7 -3 15 4 10 0 15 -12 15 -9 0 -25 6 -33 13 -9 8 -41 24 -71 37 -79 33 -183 80 -200 91 -8 5 -25 13 -37 18 -11 6 -24 15 -28 21 -5 8 -11 6 -19 -6 -12 -16 -15 -15 -44 6 -17 13 -33 29 -36 37 -3 7 -12 13 -20 13 -8 0 -46 18 -85 40 -61 35 -74 39 -90 28 -25 -15 -38 -4 -21 17 11 13 8 15 -24 15 -20 0 -36 4 -36 9 0 5 -8 11 -17 15 -10 3 -25 9 -33 14 -34 20 -60 32 -70 32 -6 0 -28 11 -50 25 -21 14 -46 22 -54 19 -9 -4 -18 0 -22 9 -8 21 -136 87 -167 87 -14 0 -31 9 -39 22 -14 20 -17 21 -32 8 -16 -12 -20 -10 -43 18 -13 18 -32 32 -42 32 -24 0 -81 29 -81 41 0 5 -13 9 -29 9 -17 0 -31 6 -35 16 -4 11 -14 15 -31 12 -19 -4 -25 -1 -25 13 0 11 -7 19 -15 19 -8 0 -52 18 -99 40 -46 22 -91 40 -100 40 -9 0 -16 6 -16 14 0 8 -15 17 -36 20 -19 4 -43 16 -52 27 -10 11 -29 19 -48 19 -17 0 -48 11 -68 25 -20 14 -47 25 -60 25 -14 0 -30 10 -40 25 -12 18 -25 25 -47 25 -20 0 -37 9 -53 26 -19 22 -26 25 -43 16 -17 -9 -24 -8 -38 8 -10 11 -33 23 -53 26 -21 4 -36 14 -39 24 -3 11 -21 22 -48 29 -23 6 -45 18 -49 26 -3 8 -14 15 -24 15 -11 0 -25 7 -32 15 -7 8 -28 15 -46 15 -19 0 -34 4 -34 10 0 8 -105 62 -250 128 -19 9 -48 16 -65 16 -21 1 -29 6 -28 16 2 16 -60 50 -91 50 -9 0 -19 7 -22 15 -4 8 -11 15 -18 15 -6 0 -29 9 -51 19 -22 11 -60 29 -85 40 -25 12 -58 30 -75 41 -16 11 -37 20 -45 20 -8 0 -37 11 -64 25 -27 14 -57 25 -66 25 -20 0 -80 29 -80 38 0 4 -19 16 -43 27 -23 11 -48 26 -55 32 -7 7 -23 13 -36 13 -12 0 -26 4 -32 9 -5 5 -38 21 -73 36 -35 14 -93 44 -128 66 -36 21 -78 39 -94 39 -18 0 -32 7 -39 20 -6 11 -15 20 -19 20 -5 0 -31 15 -59 32 -32 21 -50 40 -50 53 0 11 -5 40 -11 65 -7 30 -10 682 -11 1963 l0 1918 26 25 c26 26 29 27 94 3z"/> <path d="M12440 9729 c-194 -11 -428 -37 -536 -59 -55 -12 -126 -25 -159 -31 -32 -5 -64 -14 -69 -19 -6 -6 -27 -10 -47 -10 -21 0 -41 -4 -44 -10 -3 -5 -17 -10 -31 -10 -13 0 -32 -4 -42 -9 -27 -13 -118 -41 -135 -41 -9 0 -20 -7 -24 -15 -6 -10 -29 -16 -64 -19 -33 -2 -85 -17 -130 -36 -41 -18 -89 -38 -107 -44 -18 -7 -38 -18 -44 -24 -7 -7 -18 -12 -25 -12 -7 0 -21 -4 -31 -9 -9 -5 -34 -17 -55 -26 -21 -9 -41 -23 -44 -32 -4 -10 -14 -13 -34 -9 -29 5 -48 -7 -29 -19 17 -11 0 -25 -29 -25 -20 0 -30 -6 -34 -20 -4 -14 -14 -20 -35 -20 -16 0 -41 -9 -55 -20 -14 -11 -30 -20 -36 -20 -7 0 -14 -7 -17 -15 -3 -8 -26 -26 -50 -40 -24 -14 -44 -30 -44 -36 0 -5 -14 -15 -31 -21 -20 -7 -28 -15 -25 -25 4 -8 -4 -17 -20 -23 -36 -14 -134 -115 -134 -139 0 -14 -8 -21 -27 -23 -22 -2 -29 -9 -31 -30 -2 -16 -7 -28 -12 -28 -15 0 -62 -49 -56 -58 3 -5 -4 -20 -15 -33 -23 -26 -59 -102 -59 -125 0 -8 -4 -14 -9 -14 -5 0 -17 -24 -25 -52 -9 -29 -24 -75 -33 -103 -9 -27 -18 -76 -19 -110 -1 -33 -6 -96 -9 -140 -4 -44 -7 -93 -7 -110 0 -16 0 -293 0 -615 0 -322 0 -605 0 -630 -1 -245 13 -2231 16 -2280 5 -80 14 -133 31 -185 8 -22 16 -53 20 -68 5 -23 9 -26 20 -17 10 8 15 8 20 0 4 -6 0 -17 -10 -24 -15 -11 -15 -13 2 -36 10 -14 24 -37 31 -52 6 -16 16 -28 22 -28 5 0 10 -11 10 -24 0 -19 4 -23 20 -19 11 3 20 0 20 -6 0 -6 -4 -11 -10 -11 -19 0 -10 -21 14 -29 24 -10 36 -30 36 -62 0 -22 11 -24 28 -7 10 10 15 10 22 -2 6 -9 6 -18 0 -24 -6 -6 0 -18 14 -31 13 -12 25 -27 27 -34 3 -7 11 -13 19 -15 29 -5 60 -17 60 -25 0 -4 -5 -12 -12 -19 -9 -9 -8 -12 5 -12 10 0 21 -10 26 -22 5 -14 10 -17 15 -10 12 19 29 14 23 -7 -4 -16 2 -21 32 -28 24 -6 37 -15 39 -28 3 -17 49 -54 112 -90 10 -6 24 -16 31 -22 19 -15 131 -73 142 -73 5 0 40 -21 78 -46 57 -38 72 -44 84 -34 12 10 19 10 33 -4 10 -9 24 -16 31 -16 6 0 14 -6 17 -14 8 -20 191 -96 231 -96 12 0 25 -4 28 -10 3 -5 16 -10 28 -10 12 0 35 -7 51 -15 15 -8 39 -15 52 -15 13 0 24 -4 24 -10 0 -5 17 -10 38 -10 21 0 42 -4 47 -8 18 -16 125 -44 141 -38 9 4 22 3 28 -2 28 -20 87 -34 100 -22 11 8 18 7 29 -4 11 -11 17 -12 26 -3 8 8 14 7 23 -5 14 -17 238 -51 433 -65 167 -12 639 -10 825 4 176 14 423 51 428 64 2 5 27 9 55 9 50 0 92 10 155 36 18 8 43 14 56 14 13 0 29 7 36 15 8 9 21 13 32 9 12 -3 27 1 38 11 12 11 29 16 46 12 14 -2 38 2 53 9 14 8 34 14 43 14 9 0 20 5 23 10 3 6 15 10 27 10 21 0 175 58 239 91 20 10 39 25 43 34 4 11 13 14 31 9 15 -4 32 -1 40 6 18 15 46 30 159 89 47 24 91 49 97 57 6 8 19 14 27 14 19 0 92 49 92 61 0 16 41 50 71 61 16 6 48 28 70 49 22 21 45 39 51 39 6 0 8 11 4 25 -6 23 -4 25 18 19 20 -5 27 0 40 24 9 17 20 32 25 34 5 1 34 36 65 76 39 51 56 81 56 102 0 24 4 30 21 30 16 0 19 4 14 19 -4 14 0 23 15 31 11 6 20 16 20 22 0 7 9 31 20 54 11 23 25 66 30 95 5 30 15 83 22 119 16 81 16 93 17 2040 0 1814 0 1819 -24 1875 -10 22 -18 56 -19 76 -2 41 -86 217 -117 245 -10 9 -19 26 -19 36 0 11 -11 23 -26 28 -19 8 -24 15 -19 29 4 14 -6 33 -37 66 -118 129 -253 253 -289 267 -10 4 -19 12 -19 17 0 5 -8 7 -19 4 -13 -3 -25 5 -41 27 -17 24 -28 30 -45 26 -16 -4 -30 3 -50 24 -16 17 -34 30 -39 30 -6 1 -27 14 -46 30 -20 18 -46 30 -62 30 -17 0 -31 7 -35 15 -7 20 -58 46 -75 40 -8 -3 -22 3 -32 14 -10 11 -35 25 -55 31 -20 6 -63 23 -96 37 -136 59 -153 65 -205 74 -112 20 -137 26 -150 34 -8 5 -25 8 -36 7 -12 -2 -24 4 -27 12 -4 11 -19 16 -42 16 -20 0 -50 7 -66 16 -17 8 -52 17 -77 18 -26 2 -66 9 -89 15 -100 26 -371 58 -598 71 -188 10 -346 10 -535 -1z m550 -79 c41 -6 136 -14 211 -19 75 -5 145 -14 157 -20 11 -6 45 -11 74 -11 29 -1 71 -7 93 -15 22 -8 59 -15 81 -15 23 0 58 -7 77 -15 20 -8 51 -15 70 -15 18 0 42 -7 53 -15 10 -8 38 -15 60 -15 24 0 47 -6 54 -15 7 -8 27 -15 44 -15 18 0 41 -7 52 -15 10 -8 33 -15 50 -15 16 0 39 -7 50 -15 10 -8 28 -15 40 -15 11 0 29 -7 40 -15 10 -8 29 -15 41 -15 12 0 28 -7 37 -15 8 -8 26 -15 39 -15 14 0 30 -7 37 -15 7 -8 19 -15 26 -15 8 0 40 -13 71 -29 32 -16 65 -32 73 -35 8 -4 42 -22 75 -41 33 -19 70 -39 83 -44 12 -6 22 -15 22 -21 0 -5 6 -10 14 -10 14 0 155 -100 206 -146 14 -12 43 -37 64 -56 53 -45 186 -198 197 -225 5 -13 13 -23 19 -23 5 0 10 -6 10 -14 0 -7 7 -19 15 -26 8 -7 15 -20 15 -30 0 -10 7 -20 15 -24 8 -3 15 -16 15 -29 0 -14 7 -30 15 -37 8 -7 15 -25 15 -39 0 -15 7 -36 15 -47 8 -10 15 -39 15 -64 0 -26 6 -52 12 -58 16 -16 23 -3711 7 -3807 -5 -33 -13 -81 -18 -108 -4 -26 -13 -53 -19 -59 -7 -7 -12 -24 -12 -39 0 -15 -7 -32 -15 -39 -8 -7 -15 -20 -15 -30 0 -10 -6 -23 -14 -29 -8 -7 -17 -23 -20 -36 -4 -14 -11 -25 -16 -25 -6 0 -10 -7 -10 -15 0 -9 -6 -18 -14 -21 -8 -3 -17 -16 -20 -29 -3 -12 -26 -45 -51 -71 -67 -72 -139 -145 -172 -175 -38 -34 -184 -144 -203 -152 -27 -12 -55 -32 -63 -44 -4 -7 -16 -13 -26 -13 -10 0 -24 -7 -31 -15 -7 -8 -20 -15 -30 -15 -10 0 -20 -7 -24 -15 -3 -8 -14 -15 -24 -15 -11 0 -25 -7 -32 -15 -7 -8 -20 -15 -30 -15 -10 0 -23 -7 -30 -15 -7 -8 -20 -15 -30 -15 -10 0 -23 -7 -30 -15 -7 -8 -23 -15 -35 -15 -12 0 -28 -7 -35 -15 -7 -8 -22 -15 -34 -15 -11 0 -30 -7 -40 -15 -11 -8 -30 -15 -42 -15 -12 0 -27 -7 -34 -15 -7 -8 -26 -15 -42 -15 -16 0 -36 -7 -44 -15 -9 -8 -27 -15 -42 -15 -15 0 -36 -7 -46 -15 -11 -8 -34 -15 -50 -15 -17 0 -40 -7 -50 -15 -11 -8 -39 -15 -62 -15 -25 0 -47 -6 -54 -15 -7 -9 -29 -15 -55 -15 -23 0 -59 -7 -78 -15 -20 -8 -56 -15 -80 -15 -25 0 -61 -7 -80 -15 -20 -8 -58 -15 -85 -15 -27 0 -71 -7 -98 -15 -30 -9 -91 -15 -159 -15 -60 0 -141 -7 -180 -15 -80 -17 -382 -19 -480 -4 -33 5 -127 13 -210 18 -82 4 -166 13 -185 20 -19 6 -59 11 -88 11 -29 0 -69 7 -89 15 -19 8 -54 15 -77 15 -22 1 -59 7 -81 15 -22 8 -53 15 -70 15 -16 0 -41 7 -55 15 -14 8 -41 15 -60 15 -19 0 -46 7 -60 15 -14 8 -39 14 -56 15 -17 0 -37 7 -44 15 -7 8 -25 15 -39 15 -15 0 -36 7 -47 15 -10 8 -31 15 -45 15 -14 0 -34 7 -45 15 -10 8 -28 15 -40 15 -11 0 -29 7 -40 15 -10 8 -29 15 -40 15 -12 0 -27 7 -34 15 -7 8 -23 15 -35 15 -12 0 -28 7 -35 15 -7 8 -18 15 -25 15 -20 0 -155 71 -155 81 0 5 -11 9 -25 9 -14 0 -28 7 -31 15 -4 8 -12 15 -19 15 -16 0 -115 66 -225 150 -116 89 -284 261 -302 311 -4 10 -12 19 -18 19 -5 0 -10 6 -10 14 0 7 -7 19 -15 26 -8 7 -15 19 -15 27 0 8 -7 21 -15 29 -8 9 -15 24 -15 33 0 10 -7 24 -15 31 -8 7 -15 23 -15 35 0 12 -7 28 -15 35 -8 7 -15 29 -15 50 0 21 -7 53 -15 73 -21 52 -21 3818 1 3880 8 22 14 52 14 66 0 15 7 36 15 47 8 10 15 29 15 40 0 12 7 27 15 34 8 7 15 23 15 36 0 12 5 26 11 29 5 4 14 17 20 28 13 31 26 51 90 137 54 71 197 221 220 229 9 3 27 18 90 76 9 8 18 15 22 15 3 0 34 19 69 43 92 61 98 64 155 92 29 15 55 30 58 36 4 5 14 9 24 9 10 0 24 7 31 15 7 8 20 15 30 15 10 0 23 7 30 15 7 8 21 15 30 15 10 0 31 6 47 14 15 8 46 22 68 32 22 9 52 23 67 31 14 7 37 13 51 13 13 0 30 7 37 15 7 8 27 15 45 15 18 0 38 7 45 15 7 8 29 15 49 15 20 0 45 7 55 15 11 8 39 15 62 15 25 0 47 6 54 15 7 9 30 15 54 15 22 1 52 7 66 15 14 8 50 14 81 15 30 0 60 5 66 11 6 6 51 14 100 18 49 4 95 11 102 16 7 4 70 12 140 17 69 5 155 12 191 17 93 11 491 12 580 1z"/> <path d="M12401 9583 c-97 -2 -170 -8 -177 -14 -7 -6 -60 -13 -116 -16 -57 -2 -120 -11 -141 -19 -20 -8 -61 -14 -90 -14 -30 -1 -60 -7 -71 -15 -12 -9 -42 -15 -75 -15 -33 -1 -64 -7 -75 -15 -11 -8 -34 -15 -52 -15 -17 0 -45 -7 -60 -15 -16 -8 -42 -15 -59 -15 -16 0 -39 -7 -49 -15 -11 -8 -31 -15 -45 -15 -14 0 -35 -7 -45 -15 -11 -8 -31 -15 -45 -15 -14 0 -35 -7 -45 -15 -11 -8 -30 -15 -42 -15 -12 0 -27 -7 -34 -15 -7 -8 -21 -15 -30 -15 -10 0 -31 -6 -47 -14 -115 -58 -155 -76 -167 -76 -7 0 -19 -7 -26 -15 -7 -8 -20 -15 -30 -15 -10 0 -20 -7 -24 -15 -3 -8 -15 -15 -26 -15 -11 0 -23 -7 -26 -15 -4 -8 -14 -15 -24 -15 -10 0 -23 -7 -30 -15 -7 -8 -19 -15 -26 -15 -8 0 -14 -5 -14 -10 0 -6 -10 -15 -22 -20 -29 -12 -59 -32 -73 -46 -5 -6 -30 -26 -55 -44 -25 -19 -52 -41 -61 -49 -9 -9 -27 -25 -40 -37 -57 -50 -183 -203 -202 -244 -4 -8 -18 -35 -32 -59 -14 -24 -25 -50 -25 -56 0 -7 -7 -18 -15 -25 -8 -7 -15 -23 -15 -37 0 -13 -7 -38 -16 -56 -26 -48 -26 -368 -1 -414 9 -18 17 -41 17 -51 0 -11 7 -25 15 -32 8 -7 15 -21 15 -31 0 -11 4 -19 9 -19 5 0 14 -12 20 -27 13 -33 26 -55 64 -104 15 -20 27 -41 27 -45 0 -5 49 -57 108 -115 106 -104 189 -172 267 -219 22 -13 42 -28 43 -32 2 -4 10 -8 19 -8 8 0 30 -12 48 -26 41 -31 104 -64 122 -64 8 0 16 -7 19 -15 4 -8 16 -15 29 -15 12 0 28 -7 35 -15 7 -8 23 -15 35 -15 12 0 28 -7 35 -15 7 -8 23 -15 35 -15 12 0 28 -7 35 -15 7 -8 22 -15 34 -15 12 0 31 -7 42 -15 10 -8 28 -15 40 -15 11 0 29 -7 40 -15 10 -8 30 -15 44 -15 14 0 36 -7 50 -15 14 -8 37 -14 51 -15 14 0 34 -7 45 -15 10 -8 33 -15 49 -15 17 0 43 -7 59 -15 15 -8 45 -15 65 -15 20 0 49 -7 65 -15 15 -8 49 -15 75 -15 26 0 56 -7 67 -15 12 -9 43 -14 85 -15 37 0 86 -7 109 -15 24 -9 77 -15 124 -15 45 0 108 -7 139 -15 84 -22 689 -22 761 0 28 8 88 15 138 15 56 0 102 5 125 15 19 8 64 15 98 15 36 0 75 6 91 15 16 8 48 15 70 15 23 0 55 7 70 15 16 8 47 15 69 15 22 0 49 7 59 15 11 8 36 15 55 15 20 0 45 7 55 15 11 8 34 15 52 15 17 0 37 7 44 15 7 8 24 15 39 15 14 1 37 7 51 15 14 8 35 14 46 15 12 0 27 7 34 15 7 8 25 15 40 15 15 0 33 7 40 15 7 8 23 15 35 15 12 0 28 7 35 15 7 8 23 15 35 15 12 0 28 7 35 15 7 8 21 15 31 15 10 0 20 4 24 9 3 6 29 22 58 36 71 36 97 51 110 64 6 6 19 11 29 11 10 0 18 5 18 10 0 6 10 15 23 20 32 14 62 34 106 70 13 11 27 20 32 20 10 0 259 244 259 254 0 4 13 25 28 45 16 20 32 43 35 51 4 8 16 29 27 45 11 17 22 37 26 45 3 8 10 22 15 30 12 19 14 25 34 89 23 74 23 371 0 404 -8 12 -15 36 -15 53 0 17 -7 37 -15 44 -8 7 -15 23 -15 36 0 12 -4 25 -9 29 -6 3 -20 27 -33 53 -12 26 -31 58 -41 72 -24 32 -87 108 -109 132 -10 10 -18 21 -19 26 -1 15 -220 192 -239 192 -6 0 -13 7 -16 15 -4 8 -13 15 -20 15 -8 0 -17 6 -20 14 -3 8 -16 17 -30 20 -13 4 -24 11 -24 16 0 6 -8 10 -18 10 -10 0 -23 5 -29 11 -14 14 -50 35 -85 50 -16 6 -28 15 -28 20 0 5 -11 9 -24 9 -13 0 -29 7 -36 15 -7 8 -20 15 -30 15 -10 0 -23 7 -30 15 -7 8 -23 15 -36 15 -12 0 -29 7 -38 15 -8 8 -24 15 -35 15 -11 0 -26 7 -35 15 -8 8 -26 15 -39 15 -14 0 -30 7 -37 15 -7 8 -23 15 -36 15 -13 0 -38 6 -56 14 -61 25 -103 38 -152 47 -27 4 -54 13 -60 19 -5 5 -26 10 -46 10 -20 0 -45 7 -56 15 -10 8 -39 15 -64 15 -25 0 -58 7 -74 15 -15 8 -50 15 -77 15 -28 0 -66 7 -86 15 -20 9 -66 15 -107 15 -40 0 -96 6 -126 14 -59 15 -514 26 -819 19z m674 -83 c6 -5 48 -11 95 -14 47 -3 108 -8 135 -11 28 -3 76 -7 107 -9 32 -1 63 -8 70 -13 7 -6 29 -13 48 -15 19 -3 67 -13 105 -22 39 -10 86 -22 105 -26 19 -5 67 -16 105 -25 39 -10 88 -20 111 -24 22 -4 51 -15 64 -24 14 -9 32 -17 40 -17 9 0 36 -9 59 -21 31 -15 46 -18 54 -10 19 19 40 13 34 -9 -4 -17 0 -20 23 -20 16 0 32 -4 35 -10 11 -17 108 -61 123 -55 9 3 32 -7 53 -25 21 -16 48 -30 61 -30 13 0 29 -9 36 -20 7 -11 20 -20 30 -20 10 0 29 -11 42 -25 13 -14 28 -25 33 -25 5 0 20 -9 34 -20 19 -15 29 -17 39 -10 8 8 14 8 19 0 3 -5 1 -10 -4 -10 -6 0 -11 -7 -11 -15 0 -9 9 -15 25 -15 14 0 25 -5 25 -10 0 -6 26 -29 58 -53 71 -53 112 -91 112 -105 0 -6 10 -12 22 -14 14 -2 24 -12 28 -28 3 -14 16 -29 28 -35 12 -5 22 -18 22 -28 0 -10 9 -31 20 -45 35 -46 90 -133 90 -144 0 -5 7 -16 15 -24 8 -9 15 -31 15 -49 0 -19 5 -37 10 -40 6 -3 10 -19 10 -36 0 -16 5 -38 12 -49 10 -15 10 -27 1 -52 -7 -18 -12 -51 -12 -73 1 -22 -7 -67 -17 -100 -9 -33 -18 -76 -19 -95 -1 -19 -12 -51 -23 -70 -12 -19 -29 -48 -37 -63 -24 -42 -98 -137 -142 -183 -22 -22 -42 -48 -46 -57 -3 -9 -13 -17 -22 -17 -8 0 -15 -4 -15 -10 0 -5 -6 -10 -12 -10 -16 0 -98 -78 -98 -92 0 -6 -8 -8 -19 -5 -14 3 -17 0 -14 -14 6 -21 -11 -26 -23 -7 -5 8 -11 5 -20 -7 -16 -22 -68 -54 -144 -90 -30 -14 -64 -35 -76 -46 -12 -11 -49 -28 -83 -39 -33 -10 -79 -32 -101 -50 -22 -18 -47 -30 -54 -27 -8 3 -17 -1 -20 -10 -4 -10 -15 -14 -32 -10 -16 3 -42 -4 -67 -18 -23 -12 -69 -30 -102 -40 -33 -9 -80 -23 -105 -32 -25 -8 -65 -18 -90 -23 -25 -4 -80 -18 -122 -29 -43 -12 -86 -21 -97 -21 -30 0 -124 -32 -144 -49 -17 -14 -20 -14 -31 1 -10 13 -19 14 -56 7 -25 -5 -64 -12 -88 -14 -23 -2 -51 -9 -63 -15 -11 -7 -38 -8 -63 -5 -32 5 -54 2 -79 -10 -20 -9 -41 -14 -47 -10 -18 11 -248 5 -275 -7 -19 -8 -35 -8 -62 0 -36 11 -197 21 -418 27 -55 2 -120 9 -145 16 -25 7 -71 13 -102 14 -31 1 -64 7 -72 14 -9 7 -44 14 -80 16 -35 2 -72 7 -82 13 -11 5 -73 24 -139 41 -66 17 -131 34 -144 37 -15 5 -26 2 -32 -7 -8 -12 -12 -11 -22 3 -7 9 -25 20 -40 23 -15 4 -27 11 -27 16 0 5 -8 9 -17 9 -10 0 -40 11 -67 25 -36 18 -53 22 -67 15 -26 -14 -33 -13 -62 14 -15 14 -73 48 -129 76 -57 28 -121 62 -143 75 -22 14 -53 25 -70 26 -16 0 -24 3 -17 6 25 10 12 25 -18 20 -25 -6 -30 -3 -30 13 0 15 -7 20 -25 20 -19 0 -25 5 -25 21 0 18 -2 19 -15 9 -13 -11 -19 -9 -35 8 -11 12 -20 25 -20 30 0 5 -20 23 -45 41 -25 18 -49 41 -55 51 -7 12 -17 16 -31 13 -16 -5 -20 -2 -18 12 3 11 -15 37 -47 69 -118 118 -230 300 -204 331 12 15 4 41 -16 49 -9 3 -13 19 -12 43 1 21 -3 59 -9 85 -7 32 -7 50 0 57 7 7 7 18 -1 36 -17 37 -15 75 3 75 15 0 20 22 16 69 -1 14 6 29 18 38 13 9 21 25 21 42 0 17 7 31 15 35 11 4 14 13 9 31 -5 20 -2 27 12 32 27 7 104 116 104 147 0 26 13 35 25 15 11 -17 30 -4 30 22 0 14 7 25 17 27 9 2 39 23 65 48 26 24 51 44 55 44 4 0 14 13 23 29 10 20 24 31 42 33 20 2 29 9 31 26 2 14 10 22 22 22 22 0 90 38 90 50 0 5 16 14 35 20 19 6 37 20 40 30 5 15 12 18 35 14 22 -5 31 -1 42 15 7 12 21 21 30 21 10 0 32 9 50 20 18 11 43 20 55 20 12 0 34 11 49 25 15 14 34 25 42 25 8 0 20 8 27 17 11 14 16 15 28 5 11 -9 21 -10 34 -3 33 17 122 51 135 51 7 0 35 9 63 19 53 20 308 82 337 81 9 0 20 5 23 10 3 6 25 10 49 10 23 0 46 3 50 8 9 8 14 9 152 21 56 5 110 14 121 19 11 6 44 8 75 5 31 -3 58 -1 61 4 7 12 718 15 732 3z"/> <path d="M10116 7915 c3 -16 10 -268 14 -560 7 -493 9 -534 28 -583 10 -29 24 -58 31 -65 6 -6 11 -16 11 -23 0 -15 31 -76 43 -85 8 -6 28 -37 44 -69 4 -8 12 -20 17 -26 6 -7 25 -29 41 -50 69 -89 275 -274 304 -274 5 0 14 -6 18 -13 4 -8 15 -17 23 -20 8 -4 29 -16 45 -27 17 -11 39 -24 50 -30 11 -6 34 -19 50 -30 34 -21 114 -60 125 -60 4 0 13 -7 20 -15 7 -8 20 -15 30 -15 10 0 23 -7 30 -15 7 -8 23 -15 36 -15 12 0 29 -7 38 -15 8 -8 26 -15 39 -15 14 0 30 -7 37 -15 7 -8 22 -15 34 -15 12 0 31 -7 42 -15 10 -8 31 -15 45 -15 14 0 34 -7 45 -15 10 -8 31 -15 45 -15 14 0 34 -7 45 -15 10 -8 35 -15 55 -15 19 0 44 -7 55 -15 10 -8 35 -15 54 -15 19 0 46 -7 60 -15 14 -8 42 -14 63 -15 21 0 54 -7 74 -15 19 -8 55 -15 80 -15 24 0 60 -7 80 -15 19 -8 63 -15 97 -15 33 -1 81 -6 106 -11 47 -11 420 -33 550 -32 167 0 517 21 543 32 16 6 57 11 91 11 35 0 80 7 99 15 20 8 56 15 80 15 25 0 61 7 80 15 20 8 54 15 75 15 21 0 47 7 58 15 10 8 37 15 59 15 22 0 49 7 59 15 11 8 36 15 55 15 20 0 45 7 55 15 11 8 31 15 45 15 14 0 35 7 45 15 11 8 31 15 45 15 14 0 35 7 45 15 11 8 30 15 42 15 12 0 27 7 34 15 7 8 21 15 30 15 10 0 31 6 47 14 15 8 60 28 98 46 39 17 77 36 85 41 8 5 22 12 30 15 8 3 22 10 30 15 8 5 24 14 35 19 11 6 34 19 50 30 17 11 36 23 44 27 28 13 149 98 197 138 123 102 259 259 300 343 13 28 29 54 34 57 6 3 10 13 10 22 0 9 6 24 13 32 7 9 20 41 29 71 15 47 18 129 22 588 3 321 1 532 -5 532 -5 0 -9 -4 -9 -10 0 -18 -44 -110 -52 -110 -4 0 -8 -7 -8 -16 0 -40 -271 -343 -307 -344 -7 0 -13 -5 -13 -10 0 -6 -7 -13 -16 -17 -9 -3 -28 -17 -42 -30 -26 -24 -64 -48 -94 -59 -10 -3 -18 -10 -18 -15 0 -5 -24 -20 -52 -34 -61 -30 -87 -45 -106 -62 -7 -7 -20 -13 -28 -13 -9 0 -22 -7 -30 -15 -9 -8 -24 -15 -33 -15 -10 0 -24 -7 -31 -15 -7 -8 -20 -15 -30 -15 -10 0 -23 -7 -30 -15 -7 -8 -23 -15 -35 -15 -12 0 -28 -7 -35 -15 -7 -8 -22 -15 -34 -15 -11 0 -30 -7 -40 -15 -11 -8 -32 -15 -47 -15 -14 0 -32 -7 -39 -15 -7 -8 -24 -15 -39 -15 -14 0 -35 -7 -45 -15 -11 -8 -34 -15 -50 -15 -17 0 -40 -7 -50 -15 -11 -8 -34 -15 -51 -15 -17 0 -40 -7 -51 -15 -10 -8 -37 -15 -59 -15 -22 0 -51 -7 -65 -15 -14 -8 -46 -14 -71 -15 -25 0 -54 -7 -65 -15 -11 -8 -41 -15 -70 -15 -28 0 -68 -7 -87 -15 -22 -9 -67 -15 -112 -15 -42 0 -86 -5 -98 -12 -22 -12 -350 -30 -527 -30 -199 1 -496 18 -517 30 -12 7 -57 12 -101 12 -48 0 -94 6 -115 15 -20 8 -63 15 -95 15 -41 0 -64 5 -72 15 -8 10 -30 15 -64 15 -30 0 -60 6 -72 15 -10 8 -37 15 -60 15 -22 0 -49 7 -60 15 -10 8 -35 15 -55 15 -20 0 -42 7 -49 15 -7 8 -27 15 -44 15 -18 0 -41 7 -52 15 -10 8 -28 15 -40 15 -11 0 -29 7 -40 15 -10 8 -31 15 -45 15 -14 0 -34 7 -45 15 -10 8 -29 15 -40 15 -12 0 -27 7 -34 15 -7 8 -23 15 -35 15 -12 0 -28 7 -35 15 -7 8 -20 15 -30 15 -10 0 -23 7 -30 15 -7 8 -21 15 -31 15 -9 0 -24 7 -33 15 -8 8 -21 15 -28 15 -7 1 -31 12 -53 25 -22 14 -49 29 -60 35 -11 6 -33 19 -50 30 -16 11 -37 23 -45 27 -8 3 -19 12 -23 20 -4 7 -14 13 -20 13 -7 0 -27 13 -44 29 -18 16 -36 31 -41 33 -66 25 -342 325 -342 371 0 8 -6 17 -13 20 -7 3 -22 30 -32 61 -11 31 -23 56 -27 56 -5 0 -13 10 -19 23 -8 19 -9 18 -3 -8z m124 -369 c-10 -13 -9 -17 4 -22 9 -3 23 -1 31 6 20 16 32 5 16 -14 -14 -17 0 -29 23 -20 11 4 16 1 16 -11 0 -17 97 -114 114 -115 5 0 24 -16 43 -35 30 -31 66 -52 116 -69 9 -3 17 -12 17 -19 0 -8 10 -19 23 -26 12 -6 58 -31 102 -55 103 -57 309 -159 360 -179 22 -8 68 -23 103 -33 35 -9 65 -21 68 -26 3 -4 17 -8 31 -8 14 0 55 -14 90 -30 39 -19 72 -28 84 -25 12 4 29 -2 46 -14 16 -13 34 -19 45 -15 10 3 26 0 34 -7 8 -6 17 -9 21 -6 3 3 19 -1 35 -9 25 -13 35 -13 59 -3 26 10 32 9 53 -10 12 -11 34 -21 49 -21 15 0 67 -9 115 -19 77 -17 186 -30 292 -36 55 -3 204 -15 335 -26 66 -6 161 -8 210 -5 319 22 418 30 565 47 91 11 174 22 185 25 63 15 102 29 117 42 14 12 21 12 32 3 11 -9 29 -8 83 5 37 9 77 20 88 24 11 4 40 14 65 21 25 7 49 16 55 21 5 4 25 8 45 8 19 0 55 11 79 25 23 14 50 25 58 25 36 0 193 58 193 72 0 4 12 5 26 2 20 -5 26 -2 31 16 4 16 11 20 28 16 12 -3 30 1 41 9 10 8 27 15 36 15 10 0 25 11 34 25 11 17 22 24 35 20 12 -4 22 1 29 15 6 11 19 20 29 20 24 0 141 65 162 90 9 10 32 25 52 33 19 9 43 27 52 41 10 14 26 26 36 26 11 0 22 7 25 15 4 8 11 15 18 15 18 1 68 49 61 60 -3 6 5 14 18 19 13 5 27 17 30 25 4 9 16 16 27 16 23 0 26 10 8 28 -9 9 -9 15 0 24 9 9 15 9 24 0 15 -15 48 -16 48 -2 0 6 7 10 15 10 16 0 20 -20 7 -36 -5 -5 -6 -63 -3 -129 3 -66 3 -206 0 -310 -5 -159 -9 -195 -23 -217 -10 -15 -19 -45 -20 -67 -1 -21 -8 -46 -15 -55 -10 -11 -10 -20 -3 -29 11 -13 5 -25 -39 -77 -11 -14 -34 -43 -50 -65 -73 -100 -82 -110 -123 -138 -14 -10 -26 -27 -26 -37 0 -11 -6 -20 -14 -20 -8 0 -25 -9 -38 -20 -12 -10 -45 -38 -73 -61 -27 -22 -61 -51 -75 -62 -14 -12 -51 -34 -82 -50 -32 -15 -58 -34 -58 -41 0 -17 -22 -26 -61 -26 -19 0 -37 -9 -51 -25 -13 -15 -28 -23 -38 -20 -10 3 -23 -1 -30 -10 -7 -8 -18 -15 -24 -15 -22 0 -94 -39 -99 -55 -4 -8 -17 -15 -31 -15 -13 0 -27 -7 -30 -16 -4 -12 -14 -14 -36 -9 -20 4 -37 1 -52 -9 -12 -9 -35 -16 -50 -16 -15 0 -44 -7 -65 -16 -21 -9 -47 -20 -58 -25 -34 -13 -307 -77 -360 -84 -27 -4 -59 -12 -70 -18 -11 -6 -47 -15 -80 -19 -150 -19 -233 -35 -252 -50 -7 -6 -20 -5 -34 2 -13 8 -38 9 -68 5 -56 -9 -487 -9 -501 0 -5 3 -27 1 -48 -5 -25 -6 -56 -7 -88 -1 -30 6 -55 6 -67 0 -11 -7 -29 -7 -50 0 -61 19 -151 35 -186 34 -40 -2 -118 10 -226 34 -38 9 -95 20 -125 24 -58 8 -297 70 -316 81 -19 12 -99 38 -119 38 -11 0 -33 7 -49 15 -15 8 -37 15 -48 15 -11 0 -26 7 -34 15 -8 8 -34 20 -57 26 -23 6 -49 15 -57 20 -58 35 -97 53 -110 51 -9 -2 -26 9 -38 23 -16 18 -29 24 -42 20 -20 -6 -36 3 -115 68 -19 16 -39 26 -45 22 -5 -3 -26 10 -45 30 -20 19 -38 35 -41 35 -6 0 -19 10 -75 59 -25 23 -51 41 -58 41 -6 0 -11 4 -11 10 0 5 -11 12 -25 16 -18 4 -25 13 -25 30 0 14 -7 27 -17 31 -25 10 -63 45 -63 58 0 7 -8 19 -18 29 -11 9 -31 41 -46 71 -16 30 -34 59 -42 66 -8 6 -14 21 -14 33 0 11 -7 35 -16 51 -9 17 -20 54 -25 83 -4 29 -13 59 -19 67 -16 19 -21 564 -6 583 7 10 5 16 -7 23 -23 13 -21 27 6 49 25 21 47 10 27 -14z"/> <path d="M10114 6689 c12 -44 17 -203 20 -639 3 -406 5 -439 23 -488 11 -29 25 -58 32 -65 6 -6 11 -17 11 -24 0 -7 12 -32 27 -56 38 -57 51 -79 60 -97 8 -17 19 -32 46 -61 9 -10 17 -22 17 -25 0 -14 192 -195 244 -229 31 -20 56 -40 56 -45 0 -4 8 -11 18 -14 34 -13 72 -37 72 -47 0 -5 6 -9 14 -9 8 0 21 -6 28 -12 7 -7 34 -23 60 -36 26 -13 50 -27 53 -33 4 -5 14 -9 24 -9 10 0 24 -7 31 -15 7 -8 20 -15 30 -15 10 0 23 -7 30 -15 7 -8 23 -15 35 -15 12 0 28 -7 35 -15 7 -8 25 -15 40 -15 15 0 33 -7 40 -15 7 -8 23 -15 35 -15 12 0 28 -7 35 -15 7 -8 25 -15 39 -15 15 0 36 -7 47 -15 10 -8 30 -15 44 -15 14 0 34 -7 44 -15 11 -8 34 -15 51 -15 17 0 40 -7 51 -15 10 -8 35 -15 55 -15 19 0 44 -7 55 -15 10 -8 37 -15 60 -15 22 0 49 -7 60 -15 11 -8 41 -14 72 -15 29 0 69 -7 89 -15 19 -8 61 -15 93 -15 32 0 77 -7 100 -15 24 -9 77 -15 124 -15 44 0 122 -7 171 -15 123 -20 558 -20 670 0 44 8 119 14 166 15 57 0 97 5 115 15 17 8 55 15 90 15 34 0 78 7 97 15 20 8 58 15 84 15 26 1 59 7 73 15 14 8 43 15 65 15 22 0 49 7 59 15 11 8 36 15 55 15 20 0 45 7 55 15 11 8 34 15 50 15 17 0 40 7 50 15 11 8 31 15 45 15 14 0 35 7 45 15 11 8 32 15 47 15 14 0 32 7 39 15 7 8 22 15 34 15 11 0 30 7 40 15 11 8 30 15 42 15 12 0 27 7 34 15 7 8 20 15 30 15 10 0 23 7 30 15 7 8 23 15 37 15 13 0 26 7 29 15 4 8 17 15 29 15 13 0 27 5 30 11 4 5 17 15 28 20 12 5 36 18 52 29 17 11 39 24 50 30 70 35 248 173 335 260 44 44 80 82 80 85 0 3 8 13 18 24 33 36 67 84 75 107 5 13 13 24 18 24 5 0 9 8 9 19 0 10 7 24 15 31 8 7 15 21 15 31 0 9 7 24 15 32 7 8 17 28 20 43 4 16 10 40 15 54 10 29 21 1080 11 1080 -3 0 -23 -36 -44 -80 -20 -44 -41 -80 -46 -80 -5 0 -11 -10 -15 -22 -14 -57 -331 -368 -375 -368 -6 0 -11 -4 -11 -9 0 -9 -29 -28 -77 -50 -13 -6 -23 -15 -23 -21 0 -5 -8 -10 -18 -10 -10 0 -23 -5 -29 -11 -14 -14 -34 -25 -130 -73 -43 -21 -85 -42 -93 -47 -8 -5 -22 -12 -30 -15 -8 -3 -27 -12 -42 -20 -14 -8 -35 -14 -46 -14 -11 0 -25 -7 -32 -15 -7 -8 -22 -15 -34 -15 -12 0 -31 -7 -42 -15 -10 -8 -31 -15 -45 -15 -15 0 -32 -7 -39 -15 -7 -8 -27 -15 -44 -15 -17 0 -40 -7 -50 -15 -11 -8 -32 -15 -47 -15 -15 0 -40 -7 -55 -15 -16 -8 -42 -15 -59 -15 -16 0 -39 -7 -49 -15 -11 -8 -36 -15 -57 -15 -20 0 -53 -7 -72 -15 -20 -8 -54 -15 -75 -15 -22 0 -56 -7 -75 -15 -20 -8 -62 -15 -92 -15 -31 0 -66 -5 -78 -12 -12 -7 -74 -16 -137 -20 -63 -4 -153 -12 -200 -17 -113 -12 -527 -13 -615 0 -38 5 -124 13 -190 18 -66 5 -133 13 -148 20 -16 6 -51 11 -78 11 -27 0 -66 7 -86 15 -19 8 -59 15 -87 15 -28 1 -62 7 -76 15 -14 8 -43 14 -66 15 -22 0 -49 7 -60 15 -10 8 -35 15 -55 15 -19 0 -44 7 -55 15 -10 8 -33 15 -50 15 -16 0 -39 7 -50 15 -10 8 -31 15 -45 15 -14 0 -34 7 -45 15 -10 8 -30 15 -42 15 -13 0 -36 6 -50 13 -15 8 -42 21 -60 30 -19 9 -40 17 -47 17 -7 0 -26 7 -42 14 -15 8 -35 17 -43 20 -8 3 -22 10 -30 14 -14 9 -68 33 -100 46 -8 3 -28 15 -45 26 -16 11 -40 24 -52 29 -11 5 -24 15 -28 20 -3 6 -15 11 -26 11 -10 0 -19 5 -19 10 0 6 -10 15 -22 20 -136 59 -433 341 -494 470 -4 8 -10 17 -13 20 -9 8 -51 96 -51 106 0 5 -10 18 -21 28 -22 18 -22 18 -15 -5z m5106 -349 c0 -10 -7 -23 -16 -28 -14 -8 -15 -14 -5 -42 6 -18 11 -60 11 -94 0 -34 5 -78 11 -99 7 -26 7 -54 0 -90 -6 -29 -11 -97 -12 -152 -1 -71 -7 -116 -20 -154 -11 -29 -17 -62 -14 -72 4 -11 -2 -31 -15 -49 -17 -24 -19 -32 -8 -49 10 -16 9 -23 -5 -39 -9 -10 -17 -24 -17 -30 0 -7 -4 -12 -9 -12 -5 0 -32 -31 -61 -70 -29 -38 -56 -70 -62 -70 -6 0 -8 -7 -5 -15 4 -9 -5 -22 -22 -34 -15 -11 -39 -36 -52 -55 -13 -20 -29 -36 -36 -36 -6 0 -38 -22 -70 -50 -32 -27 -63 -50 -70 -50 -6 0 -14 -8 -18 -19 -3 -10 -23 -26 -45 -36 -22 -10 -40 -22 -40 -27 0 -4 -7 -8 -15 -8 -8 0 -44 -18 -80 -40 -36 -22 -69 -40 -74 -40 -5 0 -14 -7 -21 -15 -7 -8 -22 -15 -35 -15 -12 0 -41 -14 -65 -31 -24 -17 -60 -34 -81 -36 -25 -4 -39 -11 -42 -24 -3 -13 -14 -19 -31 -19 -14 0 -43 -9 -63 -20 -21 -11 -54 -20 -73 -20 -19 -1 -53 -8 -75 -16 -22 -8 -79 -25 -128 -38 -48 -12 -93 -28 -99 -34 -7 -7 -33 -12 -59 -12 -30 0 -51 -6 -60 -16 -9 -11 -24 -15 -49 -11 -20 2 -54 -2 -76 -9 -56 -21 -286 -51 -444 -59 -122 -6 -615 -7 -755 -2 -71 3 -158 12 -193 20 -35 8 -72 13 -82 10 -10 -3 -31 2 -47 10 -34 19 -102 34 -163 36 -24 1 -49 6 -55 11 -10 8 -79 24 -171 40 -28 4 -61 13 -72 19 -11 6 -35 11 -52 11 -17 0 -33 6 -36 14 -3 8 -21 17 -41 21 -20 3 -46 13 -59 21 -15 10 -24 12 -29 5 -13 -22 -55 -12 -65 14 -5 14 -15 27 -22 29 -140 41 -142 42 -343 151 -38 20 -77 43 -85 50 -8 7 -37 25 -65 41 -50 28 -203 155 -218 181 -4 7 -15 13 -22 13 -8 0 -15 4 -15 9 0 4 -15 24 -32 43 -108 117 -105 112 -162 240 -9 20 -16 42 -16 50 0 7 -10 31 -22 53 -31 57 -41 162 -42 440 -1 132 -4 247 -9 255 -4 9 -1 24 7 35 14 20 15 20 47 1 18 -11 52 -38 74 -60 82 -81 125 -114 155 -121 29 -6 34 -14 31 -42 -1 -7 2 -13 8 -13 5 0 17 -7 26 -16 11 -12 19 -14 27 -6 13 13 38 4 38 -15 0 -18 48 -60 77 -67 12 -4 42 -20 67 -36 24 -17 51 -30 60 -30 8 0 32 -11 52 -25 20 -14 42 -25 49 -25 7 0 18 -7 25 -15 7 -8 21 -15 31 -15 9 0 25 -8 35 -17 9 -10 40 -26 68 -36 171 -64 420 -144 475 -153 23 -4 44 -11 47 -15 3 -5 15 -7 27 -4 12 3 39 -3 62 -15 21 -11 58 -20 82 -20 23 0 44 -4 47 -9 4 -5 30 -12 59 -15 28 -4 108 -15 177 -26 363 -54 749 -59 1195 -16 250 25 487 69 520 98 5 4 24 8 41 8 18 0 36 4 39 10 3 5 16 10 28 9 28 0 139 30 152 42 5 5 18 9 30 9 29 0 259 81 330 117 33 16 72 33 87 36 15 4 39 18 55 31 16 14 43 28 59 32 16 4 50 22 75 39 25 18 55 36 68 40 37 11 86 49 86 65 0 10 9 14 28 13 21 -1 27 2 25 15 -2 12 5 18 24 20 16 2 30 11 33 22 3 10 16 20 28 22 16 2 21 9 20 26 -2 19 1 21 22 16 21 -5 25 -3 25 15 0 12 6 21 15 21 8 0 24 14 37 30 12 17 26 30 31 30 5 0 26 18 48 40 43 43 69 51 69 20z"/> <path d="M10115 5490 c4 -14 10 -257 14 -540 6 -465 8 -518 24 -540 9 -13 17 -39 17 -56 0 -17 7 -37 15 -44 8 -7 15 -18 15 -25 0 -6 11 -32 25 -56 14 -24 28 -51 32 -59 26 -58 165 -210 271 -295 34 -27 62 -53 62 -57 0 -5 5 -8 11 -8 6 0 28 -12 48 -27 45 -35 70 -50 99 -63 12 -5 22 -14 22 -20 0 -5 8 -10 19 -10 10 0 24 -7 31 -15 7 -8 18 -15 25 -15 7 0 18 -7 25 -15 7 -8 20 -15 30 -15 10 0 23 -7 30 -15 7 -8 20 -15 30 -15 10 0 23 -7 30 -15 7 -8 23 -15 35 -15 12 0 28 -7 35 -15 7 -8 23 -15 35 -15 12 0 28 -7 35 -15 7 -8 23 -15 35 -15 12 0 28 -7 35 -15 7 -8 24 -15 39 -15 14 0 35 -7 45 -15 11 -8 29 -15 41 -15 12 0 30 -7 41 -15 10 -8 35 -15 55 -15 20 0 42 -7 49 -15 7 -8 29 -15 49 -15 21 0 46 -7 57 -15 10 -8 37 -15 60 -15 22 0 49 -7 60 -15 10 -8 42 -15 69 -15 28 0 61 -7 75 -15 14 -8 48 -14 76 -15 28 0 68 -7 87 -15 20 -8 67 -15 104 -15 37 0 99 -7 138 -15 102 -22 865 -22 945 0 30 8 91 15 135 15 50 1 89 6 105 15 14 8 50 15 80 15 30 0 66 7 80 15 14 8 48 15 75 15 28 0 59 7 69 15 11 8 36 15 56 15 20 0 45 7 56 15 10 8 35 15 55 15 19 0 44 7 55 15 10 8 33 15 49 15 17 0 39 7 49 15 11 8 29 15 41 15 12 0 30 7 41 15 10 8 30 15 44 15 14 0 34 7 44 15 11 8 30 15 43 15 13 0 23 4 23 9 0 5 10 13 23 16 23 7 82 32 107 47 8 4 22 11 30 14 8 3 22 10 30 15 8 5 22 12 30 15 8 3 22 10 30 15 8 5 25 13 37 18 11 6 24 15 28 20 3 6 15 11 26 11 10 0 19 5 19 10 0 6 8 14 18 18 69 29 273 189 352 278 74 82 106 121 114 136 3 7 15 27 26 43 11 17 24 40 29 52 5 11 15 24 20 28 6 3 11 17 11 29 0 13 7 29 15 36 8 7 15 27 15 44 0 17 6 40 14 51 10 16 14 124 18 538 3 284 3 517 -1 517 -4 0 -15 -19 -25 -42 -9 -24 -21 -50 -27 -58 -5 -8 -14 -27 -20 -42 -6 -16 -15 -28 -20 -28 -5 0 -9 -7 -9 -15 0 -9 -7 -18 -15 -21 -8 -4 -15 -12 -15 -20 0 -16 -233 -254 -249 -254 -7 0 -22 -11 -35 -24 -21 -23 -105 -84 -137 -100 -8 -3 -27 -15 -44 -26 -16 -11 -39 -24 -50 -30 -11 -6 -33 -19 -50 -30 -16 -11 -37 -22 -45 -26 -8 -3 -22 -10 -30 -15 -8 -5 -22 -12 -30 -15 -8 -3 -27 -12 -42 -20 -14 -8 -33 -14 -41 -14 -8 0 -20 -7 -27 -15 -7 -8 -23 -15 -35 -15 -12 0 -28 -7 -35 -15 -7 -8 -23 -15 -35 -15 -12 0 -28 -7 -35 -15 -7 -8 -24 -15 -39 -15 -14 0 -35 -7 -45 -15 -11 -8 -31 -15 -45 -15 -14 0 -35 -7 -45 -15 -11 -8 -31 -15 -45 -15 -14 0 -35 -7 -45 -15 -11 -8 -36 -15 -55 -15 -20 0 -45 -7 -55 -15 -11 -8 -40 -15 -65 -15 -25 0 -55 -7 -65 -15 -11 -8 -34 -15 -52 -15 -17 0 -48 -7 -67 -15 -20 -8 -62 -15 -92 -15 -31 0 -66 -5 -78 -12 -12 -7 -65 -15 -117 -19 -52 -4 -117 -13 -145 -19 -68 -14 -852 -15 -920 0 -27 6 -96 15 -152 20 -55 4 -110 13 -121 19 -12 6 -45 11 -74 11 -29 0 -66 7 -82 15 -15 8 -49 15 -75 15 -26 0 -56 7 -67 15 -10 8 -37 15 -60 15 -22 0 -49 7 -60 15 -10 8 -35 15 -55 15 -19 0 -44 7 -55 15 -10 8 -31 15 -45 15 -14 0 -34 7 -45 15 -10 8 -31 15 -45 15 -14 0 -34 7 -45 15 -10 8 -28 15 -40 15 -11 0 -29 7 -40 15 -10 8 -29 15 -40 15 -12 0 -27 7 -34 15 -7 8 -23 15 -36 15 -12 0 -29 7 -38 15 -8 8 -23 15 -34 15 -11 0 -25 7 -32 15 -7 8 -20 15 -30 15 -10 0 -23 7 -30 15 -7 8 -20 15 -30 15 -10 0 -23 7 -30 15 -7 8 -18 15 -25 15 -7 0 -18 7 -25 15 -7 8 -21 15 -31 15 -10 0 -22 6 -26 13 -9 14 -37 32 -70 47 -13 5 -23 14 -23 19 0 5 -10 11 -23 15 -13 3 -35 16 -50 30 -14 13 -52 44 -84 69 -32 24 -91 80 -131 123 -95 104 -102 112 -102 124 0 6 -5 10 -10 10 -6 0 -15 10 -20 23 -6 12 -19 36 -30 52 -22 33 -60 110 -60 120 0 4 -10 19 -21 33 l-22 27 8 -25z m135 -340 c0 -10 9 -24 20 -30 11 -6 20 -15 20 -21 0 -14 70 -79 85 -79 7 0 15 -7 19 -15 3 -8 15 -15 26 -15 17 0 19 -4 14 -25 -4 -15 -2 -25 5 -25 14 0 104 -61 114 -78 7 -10 12 -10 23 -1 19 15 30 4 15 -15 -8 -9 -8 -16 -2 -20 5 -4 12 -2 16 4 11 17 22 11 34 -18 15 -35 59 -62 101 -62 25 0 31 -4 26 -15 -3 -10 1 -18 12 -22 9 -4 33 -16 52 -28 19 -12 61 -29 92 -39 32 -10 61 -22 64 -27 7 -12 67 -39 174 -78 47 -17 93 -36 102 -41 10 -6 27 -10 38 -10 11 0 28 -4 38 -9 38 -21 186 -61 204 -55 10 3 29 -1 41 -8 29 -19 109 -44 177 -57 30 -5 93 -16 139 -25 46 -9 87 -14 91 -11 8 5 198 -19 273 -35 65 -13 671 -20 782 -8 50 5 115 11 145 13 53 4 252 29 355 44 28 5 64 14 80 21 17 7 40 12 53 11 12 -1 58 9 102 23 43 14 86 26 95 26 9 0 23 7 31 15 10 9 32 14 58 14 26 -1 57 6 81 19 22 11 60 26 85 32 71 19 160 52 166 61 3 5 17 9 32 9 31 0 92 34 92 51 0 7 10 9 28 6 21 -4 31 -1 40 14 7 10 21 19 32 19 12 0 20 7 20 16 0 12 7 15 25 12 14 -3 30 1 36 8 6 8 17 14 24 14 7 0 15 9 18 20 3 13 14 20 28 20 34 0 96 32 110 58 7 13 22 22 36 22 13 0 23 6 23 13 0 16 75 67 97 67 11 0 14 6 10 21 -5 18 -2 20 18 15 25 -6 43 8 25 19 -15 9 -12 25 4 25 7 0 21 12 31 26 13 20 19 23 31 14 11 -10 17 -6 31 19 10 17 33 38 51 46 20 10 32 23 32 36 0 14 5 19 18 17 22 -4 22 -7 22 -337 -1 -206 -5 -288 -15 -329 -8 -31 -15 -64 -15 -74 0 -10 -7 -30 -16 -43 -9 -14 -13 -32 -9 -45 5 -15 -1 -28 -20 -48 -15 -15 -50 -62 -78 -104 -28 -43 -53 -78 -57 -78 -4 0 -19 -18 -34 -40 -14 -22 -32 -40 -39 -40 -7 0 -20 -8 -29 -17 -9 -10 -43 -38 -77 -63 -41 -31 -59 -50 -57 -62 3 -14 -1 -17 -18 -12 -14 3 -28 -1 -36 -11 -8 -10 -24 -21 -37 -26 -13 -5 -23 -16 -23 -24 0 -11 -7 -15 -22 -13 -15 2 -22 -2 -20 -10 1 -8 -2 -11 -7 -8 -14 9 -39 -4 -43 -21 -2 -9 -15 -17 -31 -19 -15 -1 -35 -11 -45 -22 -9 -10 -37 -25 -62 -33 -25 -7 -58 -26 -73 -41 -23 -22 -34 -26 -59 -21 -26 5 -30 4 -25 -10 5 -14 0 -17 -32 -17 -27 0 -46 -7 -65 -25 -18 -17 -34 -23 -49 -20 -12 3 -51 -6 -86 -20 -36 -14 -73 -25 -83 -25 -10 0 -18 -7 -18 -15 0 -11 -7 -14 -23 -10 -13 4 -43 -1 -68 -9 -56 -19 -239 -59 -374 -81 -22 -3 -64 -13 -92 -21 -30 -9 -65 -13 -82 -9 -20 4 -38 1 -56 -11 -21 -14 -31 -15 -45 -7 -12 8 -30 8 -61 1 -25 -6 -168 -11 -334 -12 -373 -1 -493 2 -500 15 -4 5 -28 9 -53 8 -26 0 -81 4 -122 10 -41 6 -88 11 -104 11 -16 0 -39 6 -52 15 -18 12 -28 13 -48 4 -19 -9 -31 -8 -57 5 -18 9 -40 14 -49 11 -10 -3 -23 1 -30 10 -7 8 -20 15 -29 15 -17 0 -194 44 -223 55 -11 4 -18 3 -18 -4 0 -6 -4 -11 -10 -11 -5 0 -7 6 -4 14 5 13 -33 26 -79 26 -12 0 -38 12 -58 26 -33 22 -40 24 -59 12 -18 -11 -23 -11 -33 3 -16 21 -51 39 -76 39 -12 0 -21 6 -21 14 0 20 -28 28 -50 14 -16 -10 -23 -8 -50 20 -16 18 -39 32 -49 32 -11 0 -23 5 -26 10 -3 6 -14 10 -24 10 -10 0 -26 12 -36 26 -14 21 -22 25 -46 20 -24 -5 -29 -2 -29 14 0 15 -7 20 -25 20 -16 0 -25 6 -25 15 0 9 -10 15 -26 15 -14 0 -23 4 -19 10 4 6 -7 10 -26 10 -27 0 -31 3 -26 20 4 16 1 20 -11 16 -19 -6 -37 3 -43 20 -5 14 -129 114 -141 114 -4 0 -8 6 -8 13 0 17 -90 107 -107 107 -7 0 -19 15 -26 33 -8 17 -30 53 -50 78 -46 61 -57 82 -57 112 0 14 -7 30 -15 37 -8 7 -15 22 -15 34 0 12 -9 55 -21 96 -12 44 -17 84 -13 99 3 15 5 127 5 250 -2 191 0 226 14 241 14 15 14 20 1 45 -16 31 -13 45 10 45 8 0 14 -9 14 -20z"/> </g> </svg>