<?xml version="1.0" standalone="no"?> <!DOCTYPE svg PUBLIC "-//W3C//DTD SVG 20010904//EN" "http://www.w3.org/TR/2001/REC-SVG-20010904/DTD/svg10.dtd"> <svg version="1.0" xmlns="http://www.w3.org/2000/svg" width="1800.000000pt" height="1350.000000pt" viewBox="0 0 1800.000000 1350.000000" preserveAspectRatio="xMidYMid meet"> <g transform="translate(0.000000,1350.000000) scale(0.100000,-0.100000)" fill="#ffffff" stroke="none"> <path d="M5901 12130 c-138 -20 -342 -74 -426 -114 -27 -13 -65 -29 -82 -36 -18 -7 -33 -19 -33 -27 0 -12 -7 -14 -30 -9 -25 4 -53 -7 -158 -65 -70 -38 -132 -76 -138 -84 -6 -8 -16 -15 -22 -15 -5 0 -12 -7 -16 -15 -3 -8 -17 -15 -31 -15 -32 0 -105 -45 -105 -65 0 -8 -12 -18 -27 -21 -38 -9 -128 -73 -139 -98 -5 -12 -23 -25 -39 -31 -22 -7 -29 -15 -27 -29 3 -15 0 -18 -18 -13 -17 4 -26 -1 -38 -24 -10 -16 -21 -29 -25 -29 -5 0 -44 -33 -88 -72 -67 -62 -79 -77 -74 -97 5 -20 3 -23 -14 -18 -14 3 -21 0 -21 -9 0 -8 -4 -14 -10 -14 -5 0 -10 -6 -10 -14 0 -8 -8 -21 -17 -28 -16 -12 -34 -37 -89 -123 -36 -57 -44 -78 -39 -95 3 -10 -4 -25 -16 -36 -32 -28 -57 -87 -51 -122 3 -23 -1 -33 -17 -42 -16 -8 -20 -17 -16 -31 4 -13 0 -27 -10 -39 -9 -10 -25 -60 -36 -111 -11 -52 -27 -125 -35 -164 -12 -56 -16 -174 -20 -605 -2 -294 -7 -554 -10 -576 -3 -23 -14 -50 -24 -59 -11 -10 -20 -26 -20 -37 0 -13 -7 -18 -25 -18 -19 0 -25 -5 -25 -21 0 -15 -5 -19 -19 -14 -12 3 -21 0 -25 -10 -3 -8 -12 -15 -21 -15 -8 0 -15 -6 -15 -13 0 -8 -24 -25 -52 -40 -29 -14 -59 -35 -66 -46 -7 -12 -21 -21 -32 -21 -11 0 -20 -5 -20 -10 0 -6 -20 -19 -45 -30 -25 -11 -45 -23 -45 -29 0 -5 -11 -12 -25 -15 -13 -3 -29 -15 -35 -26 -6 -11 -19 -20 -29 -20 -10 0 -25 -10 -33 -23 -9 -12 -28 -29 -44 -36 -65 -32 -143 -87 -147 -104 -4 -12 -13 -17 -28 -15 -16 2 -23 -3 -25 -17 -3 -23 -30 -45 -54 -45 -16 0 -47 -23 -98 -73 -12 -12 -27 -40 -33 -62 -6 -22 -20 -58 -30 -79 -26 -54 -25 -96 1 -96 22 0 28 -26 8 -32 -10 -4 -13 -376 -16 -1674 -3 -918 -6 -1790 -7 -1939 -3 -263 -2 -270 18 -287 18 -14 19 -19 8 -32 -11 -13 -11 -22 3 -50 9 -19 16 -39 16 -45 0 -6 7 -11 15 -11 8 0 15 -7 15 -15 0 -9 7 -18 15 -21 8 -3 17 -14 20 -24 11 -35 134 -103 241 -134 23 -6 47 -16 55 -23 22 -17 89 -43 114 -43 12 0 28 -7 35 -15 7 -8 22 -15 33 -15 11 0 28 -6 36 -14 9 -8 52 -29 96 -47 44 -17 102 -42 128 -56 28 -14 56 -21 68 -18 11 4 19 2 19 -4 0 -6 10 -11 23 -11 12 0 31 -7 41 -15 11 -8 30 -15 43 -15 13 0 26 -7 29 -15 4 -8 13 -15 22 -15 8 0 30 -11 48 -25 18 -14 37 -25 43 -25 6 0 30 -9 53 -19 24 -11 75 -32 113 -46 76 -29 148 -61 235 -103 30 -14 66 -25 80 -24 13 2 29 -3 35 -10 13 -17 140 -78 163 -78 9 0 26 -7 36 -15 11 -8 26 -15 34 -15 8 0 25 -9 39 -20 17 -13 33 -17 54 -13 41 8 65 -3 49 -22 -10 -12 -9 -15 7 -15 10 0 28 -7 40 -15 22 -16 51 -23 95 -24 15 -1 36 -10 46 -21 16 -17 212 -110 232 -110 4 0 34 -12 66 -27 33 -15 66 -28 74 -28 8 -1 23 -2 33 -3 9 -1 17 -9 17 -17 0 -10 10 -15 29 -15 15 0 40 -9 54 -20 14 -11 31 -20 37 -20 7 0 24 -6 38 -14 15 -8 56 -27 92 -41 36 -15 79 -33 96 -40 24 -10 34 -11 44 -2 9 9 17 6 33 -15 13 -15 42 -32 67 -39 25 -7 52 -18 61 -26 8 -7 27 -13 41 -13 14 0 31 -7 38 -15 7 -8 20 -15 29 -15 9 0 25 -7 35 -15 11 -8 27 -15 37 -15 9 0 22 -7 29 -15 7 -8 28 -17 49 -21 20 -4 50 -15 67 -25 17 -11 40 -19 50 -19 11 0 34 -9 52 -20 18 -11 39 -20 46 -20 7 0 19 -7 26 -15 7 -8 23 -15 35 -15 13 0 25 -3 27 -7 6 -14 77 -43 91 -37 8 3 20 -2 27 -11 7 -8 21 -15 31 -15 10 0 20 -4 24 -9 3 -5 19 -12 35 -16 17 -4 30 -10 30 -14 0 -15 167 -81 204 -81 13 0 29 -7 36 -15 7 -8 25 -15 40 -15 15 0 35 -9 44 -19 15 -16 77 -34 126 -35 8 -1 20 -4 26 -8 7 -4 37 -3 68 3 31 5 61 7 66 4 16 -10 115 24 141 48 13 12 26 22 29 22 23 3 47 19 55 37 6 13 18 24 28 26 20 4 61 42 70 66 4 10 18 16 36 16 23 0 30 5 33 23 2 16 9 21 25 19 16 -2 26 4 35 22 7 17 19 26 34 26 13 0 27 7 32 15 4 9 24 23 43 33 18 9 43 31 54 49 14 22 26 30 37 27 12 -4 22 3 29 19 8 17 23 27 45 32 19 3 34 9 34 13 0 11 117 99 218 163 19 12 31 27 28 35 -3 8 0 11 9 8 13 -5 55 20 99 58 11 10 38 30 60 45 57 39 146 109 176 138 14 14 36 25 49 25 19 0 22 4 18 20 -4 17 -2 20 15 14 18 -5 20 -3 14 20 -6 25 -5 26 19 20 21 -5 27 -2 32 15 4 15 11 19 27 15 16 -4 32 7 69 45 26 27 47 53 47 59 0 5 7 12 15 16 8 3 15 15 15 26 0 11 4 20 8 20 13 0 32 48 26 65 -4 8 0 22 7 31 11 13 14 348 16 1850 2 1241 0 1834 -7 1834 -17 0 -11 27 8 35 16 6 16 7 0 19 -22 16 -23 45 -3 52 22 9 20 83 -2 99 -15 11 -15 15 -3 30 13 15 12 19 -5 31 -16 12 -18 18 -7 34 17 28 15 39 -8 33 -25 -7 -28 22 -3 31 15 6 15 8 3 16 -9 5 -19 5 -27 -2 -8 -6 -17 -7 -21 -3 -4 4 -1 10 6 12 50 18 -93 150 -147 136 -17 -4 -24 -1 -28 16 -4 15 -13 21 -33 21 -34 0 -90 19 -90 31 0 5 -9 9 -19 9 -11 0 -23 5 -27 11 -3 6 -17 8 -30 5 -17 -5 -26 -1 -34 14 -6 11 -18 20 -26 20 -9 0 -28 6 -42 14 -59 32 -199 88 -222 90 -30 1 -63 23 -78 53 -10 18 -9 24 5 32 17 10 17 12 -1 26 -12 9 -16 20 -12 31 10 27 7 1387 -4 1509 -19 219 -70 507 -100 571 -11 22 -20 49 -20 59 0 28 -38 143 -66 198 -8 16 -14 33 -14 38 0 5 -29 70 -65 144 -42 86 -71 135 -81 135 -11 0 -13 6 -9 20 10 30 -75 160 -105 160 -6 0 -9 10 -8 23 2 27 -77 143 -104 152 -10 4 -18 15 -18 26 0 12 -10 23 -26 29 -16 6 -24 16 -23 27 3 19 -183 216 -214 227 -9 3 -22 17 -27 30 -5 14 -22 33 -37 42 -15 10 -51 38 -79 63 -76 67 -85 74 -124 94 -19 11 -44 28 -56 38 -11 10 -26 19 -32 19 -7 0 -12 3 -12 8 0 14 -66 43 -83 36 -13 -4 -17 -1 -17 14 0 20 -18 32 -50 32 -10 0 -20 7 -24 15 -3 8 -13 15 -22 15 -9 0 -33 9 -53 19 -77 41 -147 71 -181 77 -19 4 -39 10 -45 14 -17 13 -187 60 -218 60 -15 0 -42 7 -59 16 -25 13 -77 16 -277 19 -135 2 -275 0 -310 -5z m474 -82 c22 -6 70 -13 107 -15 41 -3 71 -10 79 -19 6 -8 28 -14 48 -14 21 0 46 -7 57 -15 10 -8 33 -15 50 -15 16 0 39 -7 50 -15 10 -8 27 -15 37 -15 11 0 31 -6 45 -13 15 -8 43 -21 62 -29 43 -19 120 -56 140 -68 8 -5 22 -11 30 -14 8 -4 29 -15 45 -26 17 -11 37 -23 45 -27 8 -3 25 -14 36 -22 12 -9 32 -23 44 -31 12 -8 28 -21 36 -27 7 -7 15 -13 19 -13 10 0 105 -74 105 -82 0 -4 4 -8 9 -8 29 0 351 -322 351 -351 0 -5 4 -9 8 -9 4 0 44 -48 87 -107 77 -103 92 -125 115 -168 6 -11 19 -33 30 -50 11 -16 31 -54 45 -82 15 -29 30 -55 36 -58 5 -4 9 -14 9 -24 0 -10 7 -24 15 -31 8 -7 15 -20 15 -30 0 -10 7 -23 15 -30 8 -7 15 -21 15 -30 0 -10 8 -33 17 -52 9 -18 22 -45 30 -60 7 -14 13 -34 13 -45 0 -10 7 -27 15 -37 8 -11 15 -31 15 -45 1 -14 7 -37 15 -51 8 -14 14 -35 15 -46 0 -12 7 -35 15 -50 8 -16 15 -45 15 -64 1 -19 7 -46 15 -60 8 -14 15 -47 15 -75 0 -27 8 -70 17 -95 16 -41 18 -125 19 -968 2 -880 3 -924 21 -938 10 -7 30 -14 44 -14 14 0 34 -7 45 -15 10 -8 28 -15 40 -15 11 0 29 -7 40 -15 10 -8 29 -15 40 -15 12 0 27 -7 34 -15 7 -8 25 -15 40 -15 15 0 33 -7 40 -15 7 -8 22 -15 34 -15 12 0 31 -7 42 -15 10 -8 29 -15 40 -15 12 0 27 -7 34 -15 7 -8 22 -15 34 -15 12 0 31 -7 42 -15 10 -8 28 -15 40 -15 11 0 29 -7 40 -15 10 -8 29 -15 41 -15 12 0 28 -7 37 -15 8 -8 19 -15 25 -15 16 0 81 -60 81 -75 0 -7 7 -18 15 -25 22 -18 23 -3977 1 -4018 -8 -15 -17 -38 -20 -52 -3 -14 -17 -37 -31 -52 -29 -31 -155 -129 -255 -197 -37 -25 -80 -56 -96 -69 -69 -53 -204 -152 -208 -152 -3 0 -20 -13 -38 -30 -18 -16 -38 -30 -44 -30 -7 0 -14 -7 -18 -15 -3 -8 -12 -15 -21 -15 -8 0 -15 -3 -15 -7 0 -5 -17 -19 -38 -33 -20 -13 -72 -50 -114 -82 -42 -32 -81 -58 -86 -58 -6 0 -12 -7 -16 -15 -3 -8 -12 -15 -21 -15 -8 0 -15 -4 -15 -9 0 -5 -17 -20 -37 -32 -21 -13 -91 -63 -155 -111 -64 -48 -120 -88 -123 -88 -4 0 -12 -6 -19 -12 -8 -7 -24 -20 -36 -28 -12 -8 -51 -36 -86 -62 -35 -27 -67 -48 -72 -48 -5 0 -15 -7 -22 -15 -7 -8 -24 -15 -39 -15 -15 0 -36 -7 -48 -15 -18 -13 -30 -13 -65 -4 -24 6 -61 14 -83 18 -22 4 -49 12 -60 18 -11 5 -38 18 -60 27 -22 10 -53 24 -68 32 -16 8 -37 14 -47 14 -9 0 -23 7 -30 15 -7 8 -26 15 -42 15 -16 0 -31 6 -34 15 -4 8 -15 15 -26 15 -11 0 -32 6 -46 13 -15 8 -45 22 -67 31 -22 10 -53 24 -68 32 -16 8 -37 14 -47 14 -9 0 -23 7 -30 15 -7 8 -23 15 -35 15 -12 0 -28 7 -35 15 -7 8 -21 15 -32 15 -11 0 -32 6 -46 13 -15 8 -42 21 -60 30 -19 9 -42 17 -52 17 -9 0 -23 7 -30 15 -7 8 -23 15 -35 15 -12 0 -28 7 -35 15 -7 8 -23 15 -35 15 -12 0 -28 7 -35 15 -7 8 -21 15 -30 15 -10 0 -31 6 -47 14 -51 25 -98 45 -120 51 -13 3 -23 11 -23 16 0 5 -13 9 -29 9 -16 0 -34 7 -41 15 -7 8 -23 15 -35 15 -12 0 -28 7 -35 15 -7 8 -21 15 -32 15 -11 0 -32 6 -46 13 -15 8 -45 22 -67 31 -22 10 -53 24 -68 32 -16 8 -34 14 -42 14 -7 0 -18 7 -25 15 -7 8 -25 15 -40 15 -15 0 -33 7 -40 15 -7 8 -23 15 -35 15 -12 0 -28 7 -35 15 -7 8 -23 15 -35 15 -12 0 -28 7 -35 15 -7 8 -23 15 -36 15 -12 0 -29 7 -38 15 -8 8 -22 15 -31 15 -9 0 -29 6 -43 13 -27 14 -73 35 -142 64 -19 8 -48 21 -63 29 -16 8 -37 14 -47 14 -9 0 -23 7 -30 15 -7 8 -23 15 -35 15 -12 0 -28 7 -35 15 -7 8 -23 15 -35 15 -12 0 -28 7 -35 15 -7 8 -23 15 -35 15 -12 0 -28 7 -35 15 -7 8 -21 15 -32 15 -11 0 -32 6 -46 13 -34 17 -130 60 -207 91 -33 14 -81 34 -138 59 -20 9 -52 23 -70 30 -17 8 -49 22 -70 31 -21 9 -44 16 -51 16 -8 0 -19 7 -26 15 -7 8 -23 15 -35 15 -12 0 -28 7 -35 15 -7 8 -23 15 -36 15 -12 0 -29 7 -38 15 -8 8 -23 15 -34 15 -11 0 -25 7 -32 15 -7 8 -21 15 -32 15 -11 0 -32 6 -46 13 -15 8 -45 22 -67 31 -22 10 -53 24 -68 32 -16 8 -37 14 -47 14 -9 0 -23 7 -30 15 -7 8 -23 15 -35 15 -12 0 -28 7 -35 15 -7 8 -21 15 -32 15 -11 0 -32 6 -46 13 -15 8 -45 22 -67 31 -22 10 -53 24 -68 32 -16 8 -37 14 -47 14 -9 0 -23 7 -30 15 -7 8 -21 15 -30 15 -10 0 -31 6 -47 14 -15 8 -50 24 -77 37 -61 27 -100 61 -133 113 -30 47 -27 -237 -25 2282 l2 1871 43 45 c36 38 98 84 179 133 9 5 55 37 103 70 47 33 94 65 103 70 9 6 19 12 22 15 15 15 71 50 80 50 5 0 10 4 10 9 0 9 107 81 120 81 5 0 10 3 12 8 3 7 63 50 113 82 13 8 58 39 100 68 41 28 79 52 83 52 4 1 17 9 30 20 l23 19 0 563 c-1 463 2 575 14 633 8 38 15 88 15 110 0 22 7 53 15 69 8 15 15 45 15 65 0 21 7 46 15 57 8 10 15 33 15 50 0 16 7 39 15 50 8 10 15 27 15 37 0 11 6 31 13 45 8 15 22 45 32 67 9 22 21 47 26 55 4 8 18 35 30 60 25 50 60 103 72 108 4 2 7 8 7 14 0 20 103 141 184 217 21 20 53 50 71 67 35 34 121 94 135 94 4 0 10 3 12 8 3 7 49 40 211 150 122 83 147 99 172 112 11 6 34 19 50 29 51 33 166 91 180 91 7 0 18 7 25 15 7 8 23 15 35 15 12 0 28 7 35 15 7 8 22 15 34 15 11 0 30 7 40 15 11 8 34 15 50 15 17 0 40 7 50 15 11 8 34 15 50 15 17 0 40 7 50 15 11 9 42 15 70 15 28 0 74 7 101 14 63 18 401 21 460 4z"/> <path d="M6045 11991 c-16 -5 -67 -9 -111 -10 -47 -1 -97 -7 -117 -16 -20 -8 -54 -15 -75 -15 -21 0 -42 -4 -47 -9 -6 -6 -28 -14 -50 -20 -51 -12 -103 -30 -137 -47 -14 -8 -35 -14 -46 -14 -11 0 -25 -7 -32 -15 -7 -8 -18 -15 -24 -15 -17 0 -165 -78 -271 -142 -49 -30 -98 -57 -107 -61 -10 -3 -18 -11 -18 -17 0 -14 30 -12 63 5 27 14 82 28 182 45 70 12 321 11 375 -1 25 -6 73 -14 108 -18 35 -5 69 -14 75 -20 6 -6 27 -11 47 -11 20 0 45 -7 56 -15 10 -8 31 -15 45 -15 14 0 34 -7 45 -15 10 -8 29 -15 40 -15 12 0 27 -7 34 -15 7 -8 23 -15 35 -15 12 0 28 -7 35 -15 7 -8 20 -15 29 -16 9 0 48 -18 86 -40 39 -21 79 -43 90 -49 11 -6 34 -19 50 -30 17 -11 40 -24 53 -30 12 -5 22 -14 22 -20 0 -5 5 -10 10 -10 13 0 199 -139 255 -190 150 -137 307 -305 374 -401 14 -19 30 -38 38 -42 7 -4 13 -14 13 -22 0 -7 3 -15 8 -17 11 -5 82 -112 82 -125 0 -6 6 -13 14 -16 7 -3 23 -25 35 -49 12 -24 31 -56 41 -73 33 -54 120 -227 120 -240 0 -7 7 -18 15 -25 8 -7 15 -22 15 -34 0 -11 7 -30 15 -40 8 -11 15 -29 15 -40 0 -12 7 -30 15 -40 8 -11 15 -29 15 -40 0 -12 7 -30 15 -40 8 -11 15 -31 15 -45 0 -14 7 -35 15 -45 8 -11 15 -36 15 -55 0 -20 7 -45 15 -55 8 -11 15 -36 15 -57 0 -20 7 -53 15 -72 8 -20 15 -55 15 -78 0 -22 7 -67 15 -100 13 -51 15 -196 13 -1114 -2 -580 1 -1055 6 -1055 4 0 25 13 46 30 21 17 42 30 48 30 6 0 12 4 14 8 3 10 104 82 114 82 3 0 23 14 44 30 21 17 43 30 49 30 7 0 14 6 17 14 3 8 13 17 22 20 21 8 48 24 92 56 45 32 71 48 93 56 9 3 17 10 17 14 0 4 11 12 25 18 l25 12 0 1095 c0 718 -3 1103 -10 1115 -6 11 -13 54 -16 97 -3 43 -12 95 -20 116 -8 20 -14 55 -14 76 0 21 -7 52 -15 67 -8 16 -15 41 -15 55 0 15 -7 40 -15 55 -8 16 -15 40 -15 54 0 14 -7 34 -15 44 -8 11 -15 29 -15 40 0 12 -7 30 -15 40 -8 11 -15 30 -15 42 0 12 -7 27 -15 34 -8 7 -15 25 -15 40 0 16 -7 30 -15 34 -8 3 -15 17 -15 31 0 14 -4 25 -10 25 -5 0 -13 12 -16 28 -4 15 -10 29 -14 32 -3 3 -15 23 -27 45 -41 79 -58 109 -70 123 -7 7 -13 19 -13 27 0 7 -4 15 -8 17 -4 2 -19 21 -32 43 -34 56 -166 231 -214 284 -82 89 -202 207 -246 241 -25 19 -55 44 -68 56 -12 12 -41 34 -65 50 -23 16 -44 31 -47 34 -9 9 -44 30 -67 40 -13 5 -23 13 -23 17 0 9 -7 13 -99 58 -34 16 -61 33 -61 37 0 4 -8 8 -18 8 -10 0 -27 7 -38 15 -10 8 -26 15 -35 15 -9 0 -22 7 -29 15 -7 8 -21 15 -32 15 -11 0 -32 6 -46 14 -36 18 -89 36 -132 45 -19 4 -45 13 -57 19 -12 7 -35 12 -52 12 -16 0 -42 5 -58 12 -47 20 -408 42 -458 29z m241 -86 c50 -1 97 -6 105 -10 7 -5 34 -12 59 -16 25 -4 79 -13 120 -19 41 -6 90 -20 108 -31 18 -10 41 -19 51 -19 9 0 21 -4 27 -8 5 -5 38 -20 74 -33 36 -13 80 -33 99 -46 19 -13 42 -23 52 -23 11 0 19 -4 19 -9 0 -5 15 -14 33 -22 17 -7 36 -19 40 -26 4 -7 17 -13 29 -13 11 0 26 -8 33 -17 11 -15 15 -16 31 -3 16 14 17 13 12 -8 -5 -19 0 -26 32 -42 21 -11 42 -24 45 -30 4 -6 22 -17 41 -25 19 -8 34 -19 34 -24 0 -6 6 -11 13 -11 7 0 32 -19 54 -42 22 -24 57 -59 77 -78 21 -19 43 -46 51 -60 16 -30 109 -120 125 -120 5 0 10 -9 10 -19 0 -11 9 -23 20 -26 11 -4 20 -15 20 -27 0 -11 8 -22 19 -25 11 -3 21 -17 25 -33 3 -17 14 -31 26 -35 11 -3 20 -15 20 -26 0 -10 4 -19 9 -19 5 0 11 -10 13 -22 2 -13 13 -27 26 -33 12 -5 22 -18 22 -29 0 -19 38 -88 52 -94 4 -2 8 -12 8 -22 0 -10 9 -22 21 -25 16 -5 20 -13 16 -32 -3 -18 -1 -23 10 -18 10 3 13 1 10 -9 -8 -19 28 -92 49 -100 12 -5 15 -15 11 -39 -5 -30 21 -91 46 -108 6 -4 7 -16 4 -28 -3 -12 -2 -23 3 -26 11 -7 35 -85 55 -180 9 -44 21 -84 26 -89 5 -6 9 -20 9 -33 0 -13 9 -31 20 -40 11 -10 20 -24 20 -33 0 -13 -1 -13 -10 0 -18 28 -31 -3 -15 -34 8 -16 14 -47 14 -70 -1 -22 3 -59 10 -81 8 -28 12 -281 14 -873 1 -457 0 -832 -3 -832 -8 0 -4 -375 4 -388 3 -6 1 -14 -5 -17 -6 -5 -8 -21 -4 -41 3 -21 2 -34 -5 -34 -5 0 -10 7 -10 15 0 21 -15 19 -26 -4 -12 -24 -123 -116 -152 -125 -12 -4 -22 -13 -22 -19 0 -7 -25 -23 -56 -37 -31 -13 -61 -32 -68 -42 -6 -10 -23 -18 -38 -18 -14 0 -28 -6 -31 -12 -2 -7 -8 -9 -13 -5 -5 4 -3 12 4 16 10 6 9 15 -2 42 -13 30 -15 160 -14 885 1 467 -2 868 -6 890 -4 24 -3 44 2 48 9 6 1 76 -24 186 -8 36 -14 79 -14 96 0 17 -7 51 -15 74 -8 23 -25 84 -36 134 -12 50 -30 107 -40 126 -10 19 -25 53 -34 75 -9 22 -20 48 -25 57 -6 10 -10 27 -10 38 0 38 -90 252 -111 266 -5 3 -25 39 -44 79 -18 40 -38 76 -44 79 -6 4 -11 16 -11 27 0 10 -6 19 -13 19 -16 0 -51 45 -62 79 -14 45 -130 191 -151 191 -13 0 -36 39 -38 66 -1 6 -8 18 -18 27 -9 9 -26 32 -38 52 -12 19 -26 35 -31 35 -5 0 -47 38 -93 84 -46 46 -88 85 -93 87 -5 2 -24 23 -42 46 -19 24 -43 45 -55 49 -12 3 -35 20 -52 36 -20 19 -34 26 -38 19 -13 -20 -27 -12 -21 12 5 19 -2 26 -48 50 -30 15 -62 36 -72 47 -10 11 -28 20 -41 20 -13 0 -28 8 -33 19 -6 10 -49 37 -96 60 -47 23 -94 50 -105 61 -10 10 -36 22 -57 26 -21 4 -63 19 -94 35 -56 28 -103 42 -269 80 -47 11 -92 22 -100 26 -24 10 -74 10 -88 0 -8 -7 -18 -4 -30 7 -10 9 -28 16 -40 16 -41 0 -21 25 46 58 37 18 71 32 76 32 5 0 18 7 28 17 10 9 37 17 60 18 64 3 116 15 129 31 13 16 45 19 54 4 7 -11 100 -6 155 8 21 5 45 5 60 -1 14 -5 66 -11 116 -12z m1794 -1410 c0 -8 -4 -15 -9 -15 -13 0 -22 16 -14 24 11 11 23 6 23 -9z"/> <path d="M5355 11609 c-22 -5 -80 -13 -130 -18 -84 -8 -153 -23 -200 -42 -11 -4 -31 -11 -45 -14 -54 -14 -127 -50 -198 -97 -24 -15 -46 -28 -49 -28 -13 0 -96 -72 -183 -159 -89 -90 -200 -237 -200 -266 0 -7 -6 -18 -14 -24 -8 -7 -17 -23 -20 -36 -4 -14 -11 -25 -16 -25 -6 0 -10 -11 -10 -24 0 -13 -7 -29 -15 -36 -8 -7 -15 -22 -15 -34 0 -12 -7 -31 -15 -42 -8 -10 -15 -27 -15 -37 0 -11 -6 -33 -14 -50 -18 -43 -35 -110 -46 -178 -5 -31 -15 -69 -22 -85 -9 -22 -13 -255 -17 -944 -3 -503 -2 -923 2 -932 4 -10 15 -18 25 -18 9 0 30 -7 46 -15 15 -8 36 -15 46 -15 10 0 23 -7 30 -15 7 -8 22 -15 34 -15 12 0 31 -7 42 -15 10 -8 29 -15 40 -15 12 0 27 -7 34 -15 7 -8 19 -15 26 -15 12 0 61 -22 116 -51 10 -5 20 -9 23 -9 3 0 5 393 5 873 0 754 2 876 15 901 8 15 15 47 15 70 0 23 7 51 15 62 8 10 15 33 15 50 0 17 7 37 15 44 8 7 15 23 15 35 0 12 7 28 15 35 8 7 15 21 15 31 0 10 5 21 11 24 5 4 14 17 20 28 42 98 208 273 324 344 11 7 40 22 65 34 25 12 57 28 72 35 14 8 35 14 46 14 11 0 33 7 48 15 16 8 52 15 80 15 27 0 55 5 61 11 17 17 170 23 238 9 33 -7 85 -16 115 -19 30 -4 65 -12 77 -19 12 -7 32 -12 45 -12 13 0 33 -7 44 -15 10 -8 27 -15 37 -15 17 0 50 -14 97 -41 8 -5 22 -12 30 -15 8 -3 22 -10 30 -15 8 -5 27 -14 43 -20 15 -6 27 -15 27 -20 0 -5 4 -9 9 -9 13 0 101 -58 124 -82 10 -10 30 -26 45 -36 77 -49 325 -300 341 -343 1 -6 14 -22 27 -36 25 -27 49 -64 60 -95 3 -10 10 -18 15 -18 5 0 14 -10 19 -22 6 -13 19 -36 30 -53 11 -16 22 -37 26 -45 3 -8 10 -22 15 -30 5 -8 12 -22 15 -30 3 -8 10 -22 15 -30 5 -8 12 -22 15 -30 10 -26 36 -84 51 -112 7 -14 13 -34 13 -45 0 -10 7 -27 15 -37 8 -11 15 -30 15 -42 0 -12 7 -35 15 -50 8 -16 15 -45 15 -64 0 -19 7 -44 15 -54 8 -11 15 -39 15 -62 0 -24 7 -69 15 -101 13 -49 15 -196 15 -1014 l0 -957 30 -7 c16 -4 32 -11 35 -16 4 -5 17 -9 29 -9 13 0 29 -7 36 -15 7 -8 21 -15 32 -15 11 0 32 -6 46 -13 15 -8 43 -21 62 -29 59 -25 103 -44 151 -67 25 -11 50 -21 55 -21 13 0 7 1931 -6 2047 -5 50 -10 116 -10 146 0 30 -7 71 -15 90 -8 20 -15 56 -15 79 -1 24 -7 54 -15 68 -8 14 -14 39 -15 56 0 18 -7 45 -15 60 -8 16 -15 40 -15 54 0 14 -7 34 -15 44 -8 11 -15 29 -15 41 0 12 -7 30 -15 41 -8 10 -15 31 -15 45 0 15 -7 32 -15 39 -8 7 -15 23 -15 35 0 12 -7 28 -15 35 -8 7 -15 23 -15 36 0 13 -4 24 -9 24 -5 0 -13 10 -16 23 -11 38 -69 152 -82 160 -7 4 -13 17 -13 27 0 10 -5 22 -11 25 -5 4 -15 17 -20 28 -5 12 -18 36 -29 52 -11 17 -23 38 -26 47 -3 9 -12 19 -20 22 -8 3 -14 10 -14 16 0 6 -27 47 -60 90 -33 43 -60 83 -60 89 0 5 -4 11 -9 13 -4 2 -41 41 -81 88 -81 96 -192 206 -266 265 -27 22 -53 45 -59 51 -15 16 -173 134 -180 134 -5 0 -64 39 -75 50 -8 8 -42 27 -95 55 -54 28 -69 36 -100 53 -11 7 -27 15 -35 18 -24 9 -83 35 -113 50 -16 8 -39 14 -52 14 -12 0 -28 7 -35 15 -7 8 -25 15 -40 15 -16 0 -41 6 -57 14 -37 19 -118 35 -229 46 -50 5 -103 14 -118 20 -32 12 -105 11 -161 -1z m225 -102 c58 -6 125 -11 150 -11 25 0 48 -4 52 -10 4 -6 22 -11 41 -12 20 0 43 -8 52 -17 9 -10 25 -17 35 -17 10 0 22 -4 25 -10 3 -5 16 -10 28 -10 29 0 94 -23 109 -38 7 -7 22 -12 34 -12 12 0 24 -7 28 -15 4 -11 13 -14 30 -9 18 4 26 1 30 -13 8 -23 78 -73 103 -73 10 0 35 -11 55 -25 20 -14 42 -25 47 -25 6 0 15 -9 21 -20 7 -13 21 -20 39 -20 20 0 30 -6 34 -20 3 -11 13 -22 24 -26 34 -10 48 -21 48 -37 0 -8 23 -33 51 -54 86 -63 163 -128 163 -136 1 -4 19 -27 42 -50 23 -23 59 -66 81 -94 22 -29 45 -53 52 -53 6 0 24 -22 41 -49 16 -26 38 -52 50 -57 11 -5 22 -20 24 -34 3 -28 79 -150 92 -150 5 0 9 -6 9 -14 0 -7 7 -19 15 -26 8 -6 31 -45 52 -86 20 -41 45 -82 55 -91 10 -9 18 -26 18 -38 0 -11 17 -57 38 -101 21 -43 47 -105 57 -136 10 -34 24 -58 31 -58 16 0 19 -26 4 -35 -14 -9 0 -37 16 -31 17 6 28 -10 17 -26 -12 -20 -3 -70 18 -97 12 -15 19 -40 19 -67 0 -23 7 -76 16 -116 8 -40 17 -115 20 -167 3 -57 11 -102 19 -114 10 -14 11 -25 4 -39 -11 -20 -14 -1541 -3 -1632 4 -32 2 -61 -5 -74 -7 -14 -8 -23 -1 -27 21 -13 10 -44 -22 -59 -51 -22 -98 -28 -98 -12 0 7 -13 19 -29 26 -23 9 -33 9 -49 -1 -27 -17 -42 -3 -17 15 18 13 16 15 -28 35 -45 21 -47 23 -47 64 0 23 -2 292 -4 597 -2 305 -4 669 -5 808 0 139 -5 290 -11 335 -27 209 -33 245 -42 287 -6 25 -15 49 -19 55 -5 5 -9 22 -9 37 0 15 -10 38 -21 49 -18 18 -20 25 -11 40 9 14 5 31 -18 81 -17 35 -34 70 -39 78 -5 8 -17 40 -26 70 -9 30 -31 78 -48 105 -18 28 -43 71 -55 97 -13 25 -32 48 -43 51 -12 3 -19 14 -19 30 0 14 -5 29 -10 32 -6 4 -16 19 -23 35 -16 39 -138 180 -155 180 -7 0 -12 8 -11 18 3 30 -1 35 -15 23 -12 -10 -17 -8 -25 8 -6 11 -8 27 -5 35 4 10 1 16 -8 16 -8 0 -23 9 -33 20 -10 11 -22 17 -26 14 -5 -3 -9 2 -9 10 0 8 -12 23 -26 33 -14 10 -53 44 -87 76 -33 31 -66 57 -71 57 -6 0 -3 -5 7 -11 20 -12 23 -29 4 -29 -17 0 -52 42 -49 58 3 11 -5 12 -29 7 -29 -7 -31 -5 -27 13 5 17 -2 25 -33 42 -22 11 -46 20 -53 20 -7 0 -19 6 -25 14 -7 8 -34 20 -61 26 -34 8 -47 16 -44 25 6 14 -50 35 -93 35 -12 0 -25 5 -28 10 -3 6 -17 10 -29 10 -13 0 -40 7 -60 15 -21 9 -61 17 -90 19 -29 1 -58 6 -65 10 -7 5 -32 5 -55 2 -26 -4 -54 -2 -70 5 -20 9 -32 9 -51 1 -19 -9 -31 -9 -50 0 -18 8 -28 8 -39 -1 -8 -7 -25 -9 -40 -5 -17 4 -37 -1 -61 -15 -41 -24 -61 -27 -67 -9 -3 8 -13 5 -33 -10 -15 -12 -37 -22 -49 -22 -11 -1 -35 -9 -53 -18 -17 -9 -66 -34 -107 -55 -42 -21 -86 -51 -98 -67 -12 -17 -27 -30 -33 -30 -6 0 -34 -23 -63 -50 -42 -40 -52 -55 -46 -72 5 -17 3 -20 -14 -16 -16 4 -27 -3 -46 -31 -14 -20 -26 -42 -26 -48 0 -6 -7 -16 -15 -23 -9 -7 -25 -34 -37 -59 -11 -25 -28 -51 -36 -57 -14 -10 -14 -14 -2 -29 12 -15 12 -19 -6 -33 -24 -20 -44 -64 -44 -95 0 -13 -5 -28 -10 -33 -6 -6 -20 -46 -32 -90 -21 -77 -22 -98 -25 -863 -2 -564 -6 -788 -14 -797 -18 -22 -73 -16 -139 15 -34 16 -68 27 -76 24 -8 -3 -14 1 -14 11 0 8 -9 20 -21 26 -16 9 -19 17 -14 40 3 15 2 31 -3 34 -5 3 -10 34 -10 68 0 38 -6 79 -17 102 -14 34 -15 41 -3 50 10 8 14 31 14 76 0 36 1 81 2 100 6 82 -5 1037 -12 1062 -5 15 -3 42 4 62 8 26 8 40 0 56 -9 17 -8 27 5 47 11 16 16 41 14 71 -3 42 9 101 31 157 4 11 15 49 25 85 9 36 23 79 30 95 8 17 21 53 30 82 10 29 23 57 31 64 8 6 14 17 14 24 0 7 14 29 30 50 17 21 30 46 30 57 0 10 7 21 15 24 8 4 15 16 15 28 0 13 12 31 30 44 17 13 30 28 30 35 1 20 118 139 158 160 20 10 67 41 105 68 37 27 71 49 76 49 5 0 24 8 43 17 60 30 68 33 83 33 9 0 33 9 54 20 36 18 195 55 271 62 43 5 114 0 250 -15z"/> <path d="M5452 10882 c-12 -15 -24 -40 -27 -55 -4 -15 -11 -30 -16 -33 -5 -3 -9 -14 -9 -25 0 -11 -6 -30 -14 -42 -8 -12 -17 -41 -21 -64 -4 -24 -11 -45 -16 -49 -5 -3 -9 -25 -9 -48 0 -24 -7 -63 -15 -86 -13 -36 -15 -137 -15 -660 l0 -617 25 -11 c14 -7 34 -12 44 -12 9 0 26 -7 37 -15 10 -8 28 -15 40 -15 11 0 29 -7 40 -15 10 -8 28 -15 40 -15 11 0 29 -7 40 -15 10 -8 28 -15 40 -15 11 0 29 -7 40 -15 10 -8 28 -15 40 -15 11 0 29 -7 40 -15 10 -8 29 -15 40 -15 12 0 27 -7 34 -15 7 -8 22 -15 34 -15 12 0 31 -7 42 -15 10 -8 28 -15 40 -15 11 0 29 -7 40 -15 10 -8 28 -15 40 -15 11 0 29 -7 40 -15 10 -8 28 -15 39 -15 11 0 29 -7 39 -15 11 -8 30 -15 42 -15 12 0 27 -7 34 -15 7 -8 23 -15 35 -15 13 0 36 -6 52 -14 63 -31 99 -46 126 -52 15 -3 30 -10 33 -15 3 -5 14 -9 26 -9 11 0 32 -6 46 -13 15 -8 42 -21 60 -30 19 -9 44 -17 57 -17 12 0 28 -7 35 -15 7 -8 22 -15 34 -15 12 0 31 -7 42 -15 10 -8 28 -15 40 -15 11 0 29 -7 40 -15 10 -8 29 -15 40 -15 12 0 27 -7 34 -15 7 -8 21 -15 32 -15 11 0 32 -6 46 -13 15 -8 42 -21 60 -30 19 -9 45 -17 58 -17 l24 0 0 328 c0 256 -3 339 -15 382 -8 30 -15 87 -15 125 -1 42 -7 80 -15 95 -8 14 -15 43 -15 65 0 22 -7 51 -15 65 -8 14 -15 39 -15 55 0 17 -7 39 -15 49 -8 11 -15 29 -15 40 0 12 -7 30 -15 40 -8 11 -15 28 -15 37 0 15 -15 52 -42 99 -4 8 -10 21 -13 28 -3 6 -7 18 -10 25 -3 6 -19 35 -35 62 -17 28 -36 61 -42 75 -7 14 -25 41 -40 61 -15 20 -28 41 -28 47 0 6 -3 12 -7 14 -5 2 -20 21 -35 43 -34 50 -108 135 -168 195 -80 79 -158 150 -164 150 -3 0 -15 8 -25 18 -37 33 -50 42 -61 42 -6 0 -13 6 -16 14 -3 8 -13 17 -22 20 -9 3 -30 15 -47 26 -16 11 -40 24 -52 29 -11 5 -24 15 -28 20 -3 6 -17 11 -29 11 -13 0 -29 7 -36 15 -7 8 -20 15 -29 15 -10 0 -26 7 -37 15 -10 8 -28 15 -40 15 -11 0 -29 7 -40 15 -10 8 -33 15 -50 15 -17 0 -47 6 -65 14 -21 9 -92 16 -186 20 l-151 7 -20 -29z m288 -73 c35 -5 109 -25 165 -44 63 -22 103 -31 109 -25 17 17 29 11 23 -11 -4 -13 0 -22 11 -26 74 -23 135 -56 170 -90 12 -13 29 -23 37 -23 8 0 19 -9 25 -20 6 -12 21 -20 35 -20 13 0 28 -6 32 -13 4 -8 23 -24 41 -37 17 -13 32 -32 32 -42 0 -10 3 -18 8 -18 7 0 27 -19 131 -127 34 -35 65 -63 70 -63 17 0 23 -20 12 -34 -9 -10 -7 -15 7 -18 11 -3 32 -31 48 -62 16 -31 39 -63 51 -72 13 -8 23 -24 23 -35 0 -12 8 -23 20 -26 15 -4 18 -11 14 -30 -4 -14 -1 -30 8 -41 24 -28 96 -188 117 -262 7 -25 21 -67 31 -95 22 -59 31 -105 33 -160 1 -22 6 -46 11 -54 11 -18 13 -55 17 -413 l4 -277 -25 0 c-14 -1 -36 -1 -49 -1 -13 -1 -27 3 -30 9 -6 9 -46 25 -186 73 -33 11 -66 26 -74 33 -8 8 -28 11 -52 8 -29 -4 -40 -2 -45 10 -3 9 -23 18 -45 22 -21 4 -43 13 -47 22 -5 8 -28 17 -53 20 -24 3 -63 19 -87 34 -24 16 -64 34 -89 39 -25 6 -55 17 -67 25 -11 8 -27 15 -34 15 -8 0 -44 14 -82 30 -38 17 -80 30 -94 30 -14 0 -26 3 -26 8 0 10 -78 49 -115 57 -16 3 -46 9 -65 12 -19 3 -37 9 -40 13 -13 18 -191 90 -222 90 -27 0 -68 26 -68 43 0 7 -14 24 -32 40 -32 26 -32 28 -14 42 12 9 16 20 11 32 -3 10 -6 131 -5 268 4 646 7 782 19 830 29 124 33 156 21 170 -9 11 -7 18 9 34 12 12 21 27 21 35 0 8 7 16 15 20 8 3 15 15 15 26 0 15 12 27 43 40 47 22 111 25 207 9z"/> <path d="M5340 10885 c-14 -8 -36 -15 -50 -15 -14 0 -34 -7 -44 -15 -11 -8 -27 -15 -37 -15 -9 0 -22 -7 -29 -15 -7 -8 -21 -15 -31 -15 -11 0 -19 -4 -19 -9 0 -5 -10 -13 -22 -17 -61 -19 -249 -202 -281 -274 -4 -8 -16 -28 -27 -45 -11 -16 -22 -37 -25 -45 -3 -8 -13 -28 -21 -43 -7 -16 -14 -35 -14 -44 0 -8 -6 -27 -14 -41 -19 -37 -36 -105 -46 -184 -5 -36 -13 -84 -19 -105 -7 -25 -11 -308 -11 -852 l0 -815 33 31 c27 26 110 85 165 118 9 6 33 22 53 38 20 15 41 27 47 27 6 0 12 3 14 8 5 11 66 52 78 52 5 0 10 5 10 10 0 6 10 15 23 20 24 11 34 17 119 75 l58 40 3 885 c2 821 3 887 20 917 9 18 17 49 17 71 0 21 7 47 15 58 8 10 15 28 15 40 0 11 7 29 15 40 8 10 15 25 15 33 0 8 6 22 14 30 8 9 18 28 21 44 8 31 -5 35 -45 12z m-149 -154 c-19 -12 -3 -33 20 -26 15 5 19 1 19 -14 0 -12 -5 -21 -11 -21 -7 0 -9 -9 -5 -24 4 -15 1 -26 -8 -29 -9 -4 -15 -35 -19 -99 -4 -51 -12 -111 -18 -133 -8 -28 -10 -156 -8 -420 5 -481 -2 -1064 -13 -1071 -4 -3 -3 -13 3 -22 13 -21 -4 -72 -24 -72 -8 0 -26 -18 -41 -39 -15 -22 -38 -42 -52 -45 -13 -4 -24 -11 -24 -16 0 -6 -7 -10 -15 -10 -8 0 -15 -9 -15 -20 0 -12 -10 -24 -24 -30 -13 -5 -26 -15 -28 -22 -4 -11 -8 -10 -22 1 -14 12 -19 11 -39 -7 -12 -11 -31 -22 -42 -24 -11 -2 -24 -13 -30 -26 -12 -26 -31 -29 -44 -4 -5 10 -10 287 -10 677 -1 363 -4 677 -8 698 -4 27 -1 42 10 55 12 13 15 31 11 67 -3 32 1 60 11 82 9 18 13 38 9 44 -6 10 5 38 48 122 13 25 17 48 13 64 -5 22 -3 25 13 21 15 -4 18 -1 15 11 -2 10 9 31 26 50 17 18 28 38 24 46 -3 9 2 18 12 21 9 4 21 17 25 30 6 16 15 22 25 18 9 -4 15 -1 15 8 0 7 10 18 23 23 12 6 26 20 32 33 5 12 15 22 22 22 7 0 23 10 36 23 48 44 91 76 96 71 3 -3 -1 -9 -8 -13z"/> <path d="M5310 8961 c0 -99 3 -181 8 -183 4 -1 17 -17 30 -35 33 -48 32 -168 -3 -226 -41 -70 -189 -197 -231 -197 -8 0 -22 -7 -30 -15 -9 -8 -28 -15 -43 -15 -16 0 -34 -7 -41 -15 -7 -9 -30 -15 -54 -15 -22 -1 -52 -7 -66 -15 -36 -21 -398 -20 -455 0 -22 8 -52 15 -66 15 -14 0 -34 7 -45 15 -10 8 -27 15 -36 15 -34 0 -143 65 -195 116 -29 27 -53 54 -53 58 0 4 -7 14 -15 22 -8 9 -15 26 -15 39 0 13 -4 27 -10 30 -14 9 -12 73 3 116 7 20 25 52 40 72 27 35 28 41 30 172 2 75 0 138 -4 141 -4 2 -30 -14 -58 -36 -28 -22 -53 -40 -57 -40 -3 0 -23 -13 -44 -30 -21 -16 -43 -30 -49 -30 -6 0 -11 -5 -11 -10 0 -6 -10 -15 -22 -20 -24 -10 -59 -31 -68 -40 -14 -14 -70 -50 -79 -50 -5 0 -11 -7 -15 -15 -3 -8 -12 -15 -20 -15 -8 0 -16 -3 -18 -8 -3 -6 -149 -109 -196 -137 -9 -5 -42 -29 -74 -52 -31 -24 -60 -43 -63 -43 -4 0 -24 -13 -45 -30 -21 -16 -42 -30 -46 -30 -5 0 -26 -15 -48 -33 -46 -40 -52 -80 -15 -108 13 -10 29 -19 35 -19 6 0 17 -7 24 -15 7 -8 23 -15 35 -15 13 0 37 -7 54 -15 17 -8 45 -22 62 -30 17 -8 37 -15 46 -15 8 0 27 -6 41 -13 15 -8 42 -21 60 -30 19 -9 42 -17 52 -17 9 0 23 -7 30 -15 7 -8 25 -15 40 -15 15 0 33 -7 40 -15 7 -8 23 -15 35 -15 12 0 28 -7 35 -15 7 -8 22 -15 34 -15 12 0 31 -7 42 -15 10 -8 27 -15 37 -15 11 0 31 -6 45 -13 15 -8 42 -21 60 -30 19 -9 42 -17 52 -17 9 0 23 -7 30 -15 7 -8 22 -15 34 -15 12 0 31 -7 42 -15 10 -8 27 -15 36 -15 9 0 30 -7 47 -15 17 -8 45 -22 62 -30 17 -8 39 -15 49 -15 9 0 23 -7 30 -15 7 -8 21 -15 32 -15 11 0 32 -6 46 -13 53 -27 98 -45 125 -51 15 -4 27 -11 27 -16 0 -6 13 -10 29 -10 16 0 34 -7 41 -15 7 -8 21 -15 32 -15 11 0 32 -6 46 -13 15 -8 42 -21 60 -30 19 -9 42 -17 52 -17 9 0 23 -7 30 -15 7 -8 21 -15 32 -15 11 0 32 -6 46 -13 15 -8 42 -21 60 -30 19 -9 41 -17 51 -17 9 0 26 -7 37 -15 10 -8 31 -15 45 -15 15 0 29 -7 33 -15 3 -8 16 -15 29 -15 14 0 30 -6 36 -14 6 -8 24 -16 39 -19 39 -7 101 -32 114 -45 7 -7 21 -12 33 -12 12 0 30 -7 41 -15 10 -8 29 -15 40 -15 12 0 27 -7 34 -15 7 -8 21 -15 30 -15 18 0 31 -6 108 -44 19 -9 42 -16 52 -16 9 0 23 -7 30 -15 7 -8 21 -15 32 -15 11 0 32 -6 46 -13 15 -8 42 -21 60 -30 19 -9 40 -17 49 -17 8 0 27 -6 41 -13 15 -8 42 -21 60 -30 19 -9 42 -17 52 -17 9 0 23 -7 30 -15 7 -8 25 -15 40 -15 15 0 33 -7 40 -15 7 -8 20 -15 29 -15 10 0 26 -7 37 -15 10 -8 28 -15 40 -15 11 0 29 -7 40 -15 10 -8 29 -15 40 -15 12 0 27 -7 34 -15 7 -8 23 -15 35 -15 12 0 28 -7 35 -15 7 -8 22 -15 34 -15 12 0 31 -7 42 -15 10 -8 29 -15 40 -15 12 0 27 -7 34 -15 7 -8 22 -15 34 -15 12 0 31 -7 42 -15 10 -8 29 -15 40 -15 12 0 27 -7 34 -15 7 -8 25 -15 40 -15 15 0 33 -7 40 -15 7 -8 21 -15 32 -15 11 0 32 -6 46 -13 15 -8 42 -21 60 -30 19 -9 40 -17 47 -17 7 0 27 -7 44 -15 17 -8 45 -22 62 -30 17 -8 39 -15 49 -15 9 0 23 -7 30 -15 7 -8 22 -15 34 -15 12 0 31 -7 42 -15 10 -8 29 -15 41 -15 12 0 28 -7 37 -15 8 -8 23 -15 33 -15 11 0 28 -7 39 -15 10 -8 28 -15 39 -15 11 0 31 -7 44 -16 17 -12 48 -17 120 -18 110 -1 133 7 233 82 31 23 61 42 66 42 5 0 12 7 16 15 3 8 12 15 20 15 8 0 16 3 18 8 3 8 64 52 72 52 3 0 20 14 38 30 18 17 36 30 41 30 5 0 26 13 47 30 21 17 43 30 49 30 6 0 11 4 11 9 0 5 17 20 38 32 20 13 63 42 94 66 31 24 61 43 67 43 6 0 11 4 11 9 0 5 21 23 48 39 66 43 126 86 130 95 2 4 8 7 14 7 5 0 36 20 68 45 32 25 63 45 68 45 5 0 12 7 16 15 3 8 10 15 16 15 7 0 38 20 70 45 32 25 61 45 65 45 4 0 12 6 19 13 8 6 24 19 36 27 12 8 33 23 45 33 13 9 26 17 29 17 15 0 75 64 80 86 8 31 -13 104 -30 104 -6 0 -14 7 -18 15 -3 8 -14 15 -24 15 -10 0 -27 7 -38 15 -10 8 -29 15 -40 15 -12 0 -27 7 -34 15 -7 8 -25 15 -40 15 -15 0 -33 7 -40 15 -7 8 -25 15 -40 15 -15 0 -33 7 -40 15 -7 8 -22 15 -34 15 -12 0 -31 7 -42 15 -10 8 -29 15 -40 15 -12 0 -27 7 -34 15 -7 8 -22 15 -34 15 -12 0 -31 7 -42 15 -10 8 -27 15 -37 15 -11 0 -31 6 -45 13 -57 29 -98 47 -124 53 l-26 6 -1 -159 c0 -152 1 -160 25 -195 35 -54 57 -125 50 -162 -4 -17 -9 -44 -13 -59 -3 -16 -12 -31 -19 -34 -8 -3 -14 -10 -14 -15 0 -22 -66 -91 -122 -128 -33 -22 -63 -40 -67 -40 -5 0 -14 -7 -21 -15 -7 -8 -23 -15 -35 -15 -12 0 -28 -7 -35 -15 -7 -8 -24 -15 -39 -15 -14 0 -35 -7 -45 -15 -11 -8 -38 -15 -60 -15 -23 0 -59 -7 -81 -15 -28 -10 -85 -14 -195 -14 -110 0 -167 4 -195 14 -22 8 -53 15 -70 15 -16 0 -43 7 -59 15 -15 8 -34 15 -42 15 -22 0 -135 61 -181 97 -79 63 -134 159 -135 238 0 43 22 98 60 148 l39 52 1 385 c1 408 -1 430 -44 430 -22 0 -67 16 -127 46 -16 8 -36 14 -46 14 -9 0 -26 7 -37 15 -10 8 -28 15 -40 15 -11 0 -29 7 -40 15 -10 8 -29 15 -40 15 -12 0 -27 7 -34 15 -7 8 -24 15 -37 15 -14 0 -37 6 -51 13 -15 8 -42 21 -60 30 -19 9 -44 17 -57 17 -12 0 -28 7 -35 15 -7 8 -22 15 -34 15 -12 0 -31 7 -42 15 -10 8 -29 15 -40 15 -12 0 -27 7 -34 15 -7 8 -25 15 -41 15 -15 0 -34 7 -43 15 -8 8 -23 15 -33 15 -11 0 -28 7 -39 15 -10 8 -28 15 -40 15 -11 0 -29 7 -40 15 -10 8 -28 15 -40 15 -11 0 -29 7 -40 15 -10 8 -28 15 -40 15 -11 0 -29 7 -40 15 -10 8 -28 15 -40 15 -11 0 -29 7 -40 15 -10 8 -29 15 -40 15 -12 0 -27 7 -34 15 -7 8 -25 15 -40 15 -15 0 -33 7 -40 15 -7 8 -22 15 -34 15 -12 0 -31 7 -42 15 -10 8 -28 15 -40 15 -11 0 -29 7 -40 15 -10 8 -27 15 -37 15 -11 0 -31 6 -45 14 -56 28 -120 56 -131 56 -8 0 -11 -52 -11 -179z m200 16 c0 -4 8 -10 18 -14 39 -13 229 -86 257 -99 17 -7 63 -23 103 -35 40 -11 76 -27 79 -35 3 -8 17 -14 31 -14 29 0 106 -26 137 -47 11 -7 27 -13 35 -13 9 0 48 -16 87 -35 39 -19 100 -42 135 -51 34 -9 70 -22 79 -30 8 -8 25 -14 37 -14 11 0 24 -4 27 -10 3 -5 15 -10 25 -10 10 0 45 -14 77 -30 32 -17 64 -28 72 -25 7 3 37 -8 66 -25 29 -16 64 -30 79 -30 14 0 26 -4 26 -8 0 -5 22 -19 50 -32 89 -41 85 -27 88 -329 2 -146 0 -307 -3 -358 -6 -80 -9 -93 -27 -99 -12 -4 -17 -11 -13 -21 3 -9 -1 -25 -8 -37 -18 -28 -29 -79 -31 -144 -1 -43 3 -57 19 -68 11 -8 19 -21 17 -29 -1 -7 7 -20 19 -29 18 -12 20 -18 10 -30 -14 -17 -7 -36 14 -36 8 0 24 -18 37 -41 16 -29 27 -39 41 -35 12 3 22 -3 30 -21 11 -26 92 -73 125 -73 11 0 25 -7 32 -15 7 -8 27 -15 45 -15 18 0 38 -7 45 -15 7 -9 20 -13 28 -10 8 3 20 2 26 -3 45 -32 265 -51 376 -32 36 6 92 13 124 15 33 3 67 12 76 20 9 8 29 15 43 15 15 0 27 5 27 10 0 6 15 10 33 10 41 0 127 32 142 54 7 9 17 16 23 16 6 0 17 6 24 13 33 31 65 46 77 34 9 -9 10 -4 5 20 -5 26 -3 32 16 38 49 16 121 110 113 147 -3 9 2 29 9 43 18 33 5 150 -22 210 -10 22 -20 65 -23 97 -4 46 -2 60 14 77 21 22 63 28 75 10 4 -6 19 -9 36 -5 20 4 30 1 34 -9 4 -8 16 -15 29 -15 12 0 28 -7 35 -15 7 -8 18 -15 25 -15 7 0 34 -12 60 -27 26 -14 64 -30 84 -34 20 -5 50 -11 66 -15 17 -3 41 -16 55 -28 14 -12 38 -28 54 -34 27 -12 28 -14 12 -31 -11 -13 -14 -21 -7 -26 17 -10 13 -25 -7 -25 -10 0 -33 -15 -51 -34 -18 -19 -46 -36 -62 -40 -18 -3 -34 -15 -41 -31 -6 -14 -17 -25 -25 -25 -7 0 -18 -9 -25 -20 -8 -12 -24 -20 -39 -20 -16 0 -36 -11 -52 -30 -15 -16 -31 -30 -36 -30 -5 0 -11 -10 -14 -21 -4 -16 -11 -20 -26 -16 -14 3 -31 -6 -55 -29 -19 -19 -37 -34 -39 -34 -2 0 -21 -16 -42 -36 -29 -27 -45 -35 -64 -32 -17 2 -34 -3 -46 -15 -19 -18 -19 -19 -1 -15 10 1 21 -3 24 -11 3 -10 -3 -12 -26 -6 -21 4 -33 2 -39 -8 -4 -7 -16 -16 -26 -20 -9 -4 -22 -19 -28 -34 -7 -16 -13 -23 -16 -15 -6 15 -25 16 -41 0 -9 -9 -9 -15 0 -25 8 -10 8 -17 -1 -26 -10 -9 -15 -8 -25 6 -13 16 -14 16 -19 -3 -3 -11 -13 -20 -24 -20 -25 -1 -58 -27 -58 -48 0 -12 -7 -16 -21 -14 -14 2 -23 -4 -26 -16 -4 -13 -18 -22 -42 -26 -22 -4 -42 -16 -52 -31 -9 -14 -22 -25 -30 -25 -7 0 -18 -9 -24 -20 -6 -11 -20 -20 -30 -20 -11 0 -20 -5 -20 -11 0 -5 -16 -17 -35 -25 -20 -8 -39 -21 -42 -30 -3 -8 -12 -13 -21 -9 -8 3 -25 -6 -40 -20 -25 -25 -62 -34 -62 -15 0 13 -40 -7 -55 -26 -7 -10 -14 -11 -25 -4 -13 9 -12 12 4 25 19 14 18 15 -18 15 -20 0 -46 5 -57 10 -13 7 -19 7 -19 0 0 -5 -7 -10 -15 -10 -9 0 -12 6 -8 16 5 14 0 15 -35 9 -48 -8 -69 0 -52 20 8 10 1 13 -34 17 -26 3 -58 16 -78 31 -27 21 -37 24 -47 14 -10 -9 -16 -8 -29 8 -18 21 -218 109 -287 126 -22 6 -44 14 -50 20 -5 5 -16 9 -24 9 -8 0 -22 6 -30 13 -9 7 -47 24 -86 36 -38 13 -74 28 -80 32 -5 5 -19 9 -31 9 -12 0 -27 6 -33 14 -20 24 -127 59 -160 51 -27 -6 -31 -3 -37 20 -4 16 -12 24 -20 21 -7 -3 -34 6 -59 20 -25 13 -59 24 -76 24 -19 0 -29 5 -29 15 0 9 -6 12 -15 9 -8 -3 -27 4 -42 16 -21 16 -35 20 -64 15 -39 -7 -63 10 -38 26 11 7 9 9 -7 9 -11 0 -48 14 -82 30 -34 16 -68 30 -75 30 -7 0 -21 6 -32 13 -11 8 -45 22 -75 32 -30 11 -59 23 -65 27 -5 4 -21 8 -36 8 -15 0 -32 7 -39 15 -7 8 -25 15 -40 15 -39 0 -60 9 -60 26 0 8 -9 14 -19 14 -10 0 -45 13 -77 29 -68 34 -167 71 -207 78 -15 3 -30 9 -33 14 -3 5 -18 9 -34 9 -19 0 -31 6 -35 18 -6 20 -64 42 -108 42 -15 0 -30 8 -36 19 -6 10 -31 24 -58 31 -26 7 -71 23 -100 36 -28 13 -58 24 -66 24 -8 0 -34 10 -58 23 -24 13 -79 36 -122 51 -42 15 -80 32 -83 37 -3 5 -18 9 -34 9 -16 0 -32 5 -35 10 -3 6 -19 10 -35 10 -16 0 -30 7 -34 15 -8 22 -48 35 -64 22 -9 -7 -17 -5 -27 10 -8 11 -54 37 -102 57 -48 20 -95 40 -103 45 -8 5 -30 6 -48 3 -28 -4 -34 -1 -39 17 -4 15 -13 21 -33 21 -15 0 -33 6 -39 14 -7 8 -30 17 -52 21 -21 4 -41 11 -45 16 -3 5 -14 9 -25 9 -10 0 -27 9 -36 20 -18 21 -53 27 -53 10 0 -18 -22 -10 -27 10 -3 13 -14 20 -29 20 -13 0 -24 4 -24 9 0 8 -64 34 -126 50 -17 5 -45 16 -63 25 -17 9 -44 23 -60 31 -16 8 -37 15 -46 15 -9 0 -19 8 -22 18 -3 14 -11 18 -29 14 -34 -6 -31 17 6 53 17 16 30 35 30 42 0 15 47 38 68 34 8 -1 16 7 19 18 3 12 8 21 12 21 4 0 21 14 40 30 18 17 37 27 43 24 7 -5 4 -12 -7 -21 -16 -11 -16 -13 -3 -13 9 0 18 4 20 9 4 12 102 89 171 133 31 21 57 42 57 48 0 5 6 10 14 10 8 0 16 7 20 15 3 8 16 15 30 15 13 0 26 7 30 15 3 8 14 15 25 15 11 0 32 14 48 30 36 39 43 38 43 -5 0 -19 -4 -35 -10 -35 -5 0 -10 -19 -10 -43 0 -23 -5 -58 -11 -77 -19 -62 -21 -166 -4 -180 8 -7 15 -16 15 -21 0 -14 80 -129 91 -129 5 0 20 -10 33 -22 27 -27 83 -68 92 -68 3 0 17 -9 31 -20 15 -12 34 -18 44 -15 10 3 21 0 26 -9 13 -24 132 -58 218 -63 44 -2 97 -9 118 -15 28 -8 64 -8 140 0 193 23 234 30 258 45 13 9 41 19 61 22 21 4 42 13 49 21 6 8 23 14 38 14 15 0 34 9 44 20 9 11 25 20 34 21 26 1 132 88 169 139 18 25 36 62 40 83 4 21 13 41 21 44 8 3 12 12 8 21 -3 8 0 21 6 28 6 8 8 21 4 31 -5 10 -9 41 -10 68 -2 54 -11 92 -29 114 -6 8 -12 28 -13 45 -6 69 -10 96 -16 103 -4 3 -7 12 -7 19 0 8 20 11 65 10 36 0 65 -5 65 -9z"/> <path d="M5225 8669 c-27 -22 -57 -43 -65 -47 -8 -4 -48 -29 -88 -57 -40 -27 -81 -54 -90 -60 -10 -5 -33 -21 -52 -35 -37 -27 -66 -45 -90 -56 -8 -4 -17 -10 -20 -14 -11 -12 -68 -48 -147 -89 -51 -27 -104 -20 -193 28 -9 5 -30 12 -48 15 -17 4 -34 12 -37 17 -4 5 -13 9 -22 9 -8 0 -31 7 -51 16 -21 8 -50 21 -67 28 -16 7 -51 23 -76 35 -25 11 -50 21 -54 21 -5 0 -17 7 -27 17 -22 20 -33 12 -19 -15 55 -104 376 -215 590 -206 51 3 101 8 110 13 9 5 43 12 76 16 33 4 75 14 94 21 18 8 42 14 51 14 10 0 31 7 47 14 15 8 35 18 43 21 8 3 29 14 45 25 17 11 37 23 45 27 31 14 100 94 119 139 32 71 25 145 -13 143 -6 0 -33 -18 -61 -40z"/> <path d="M4047 8683 c-9 -8 -9 -126 -1 -147 14 -38 24 -10 24 69 0 78 -5 96 -23 78z"/> <path d="M3095 8247 c4 -14 6 -81 6 -149 0 -68 -3 -942 -7 -1942 -5 -1748 -5 -1820 13 -1855 22 -44 79 -101 100 -101 8 0 27 -6 41 -13 15 -8 45 -22 67 -31 22 -10 53 -24 68 -32 16 -8 37 -14 47 -14 9 0 23 -7 30 -15 7 -8 23 -15 35 -15 12 0 28 -7 35 -15 7 -8 23 -15 36 -15 12 0 26 -4 29 -10 3 -5 24 -14 45 -20 22 -6 40 -15 40 -20 0 -6 12 -10 28 -10 15 0 36 -7 46 -15 11 -8 27 -15 37 -15 9 0 22 -7 29 -15 7 -8 23 -15 35 -15 12 0 28 -7 35 -15 7 -8 22 -15 34 -15 12 0 30 -6 41 -14 11 -7 32 -16 48 -20 15 -3 27 -11 27 -16 0 -6 10 -10 23 -10 12 0 31 -6 42 -14 11 -7 32 -16 48 -20 15 -3 27 -11 27 -16 0 -6 13 -10 29 -10 16 0 34 -7 41 -15 7 -8 23 -15 35 -15 12 0 28 -7 35 -15 7 -8 20 -15 29 -15 10 0 26 -7 37 -15 10 -8 29 -15 40 -15 12 0 27 -7 34 -15 7 -8 23 -15 35 -15 12 0 28 -7 35 -15 7 -8 23 -15 35 -15 12 0 28 -7 35 -15 7 -8 22 -15 34 -15 12 0 31 -7 42 -15 10 -8 26 -15 35 -15 9 0 22 -7 29 -15 7 -8 22 -15 34 -15 12 0 30 -6 41 -14 11 -7 32 -16 48 -20 15 -3 27 -11 27 -16 0 -6 10 -10 23 -10 12 0 31 -6 42 -14 11 -7 32 -16 48 -20 15 -3 27 -11 27 -16 0 -6 10 -10 22 -10 19 0 79 -23 130 -51 10 -5 24 -9 32 -9 7 0 19 -7 26 -15 7 -8 21 -15 32 -15 11 0 32 -6 46 -13 25 -13 47 -23 137 -61 88 -38 112 -49 138 -62 16 -8 36 -14 45 -14 9 0 26 -7 36 -15 11 -8 27 -15 37 -15 9 0 22 -7 29 -15 7 -8 21 -15 32 -15 11 0 32 -6 46 -13 15 -8 45 -22 67 -31 22 -10 53 -24 68 -32 16 -8 37 -14 47 -14 9 0 23 -7 30 -15 7 -8 20 -15 29 -15 10 0 26 -7 37 -15 10 -8 27 -15 37 -15 11 0 31 -6 45 -14 26 -13 63 -30 137 -61 68 -28 110 -47 138 -61 16 -8 37 -14 47 -14 9 0 23 -7 30 -15 7 -8 21 -15 32 -15 11 0 32 -6 46 -13 15 -8 42 -21 60 -30 19 -9 42 -17 52 -17 9 0 23 -7 30 -15 7 -8 20 -15 29 -15 10 0 26 -7 37 -15 10 -8 29 -15 40 -15 12 0 27 -7 34 -15 7 -8 23 -15 35 -15 12 0 28 -7 35 -15 7 -8 21 -15 32 -15 11 0 32 -6 46 -13 15 -8 45 -22 67 -31 22 -10 53 -24 68 -32 16 -8 37 -14 47 -14 9 0 23 -7 30 -15 7 -8 23 -15 35 -15 12 0 28 -7 35 -15 7 -8 22 -15 34 -15 12 0 31 -7 42 -15 28 -21 186 -21 219 1 l25 16 0 2004 0 2004 -22 0 c-36 1 -117 25 -130 38 -7 7 -21 12 -33 12 -12 0 -30 7 -41 15 -10 8 -29 15 -41 15 -12 0 -28 7 -37 15 -8 8 -24 15 -36 15 -12 0 -34 6 -48 13 -53 27 -98 45 -124 51 -16 4 -28 11 -28 16 0 6 -10 10 -23 10 -13 0 -32 7 -43 15 -10 8 -29 15 -40 15 -12 0 -27 7 -34 15 -7 8 -22 15 -34 15 -12 0 -31 7 -42 15 -10 8 -29 15 -41 15 -12 0 -28 7 -37 15 -8 8 -23 15 -34 15 -11 0 -25 7 -32 15 -7 8 -24 15 -37 15 -14 0 -37 6 -51 13 -53 27 -98 45 -124 51 -16 4 -28 11 -28 16 0 6 -10 10 -23 10 -13 0 -32 7 -43 15 -10 8 -29 15 -40 15 -12 0 -27 7 -34 15 -7 8 -21 15 -32 15 -11 0 -32 6 -46 13 -15 8 -42 21 -60 30 -19 9 -41 17 -51 17 -9 0 -26 7 -37 15 -10 8 -29 15 -40 15 -12 0 -27 7 -34 15 -7 8 -23 15 -35 15 -12 0 -28 7 -35 15 -7 8 -22 15 -34 15 -12 0 -31 7 -42 15 -10 8 -29 15 -40 15 -12 0 -27 7 -34 15 -7 8 -21 15 -32 15 -11 0 -32 6 -46 13 -15 8 -42 21 -60 30 -19 9 -41 17 -51 17 -9 0 -26 7 -37 15 -10 8 -29 15 -40 15 -12 0 -27 7 -34 15 -7 8 -20 15 -29 15 -10 0 -26 7 -37 15 -10 8 -27 15 -37 15 -11 0 -31 6 -45 13 -15 8 -42 21 -60 30 -19 9 -41 17 -51 17 -9 0 -25 6 -36 14 -11 7 -32 16 -47 20 -16 3 -28 11 -28 16 0 6 -11 10 -24 10 -13 0 -37 6 -53 14 -15 7 -46 21 -68 31 -22 9 -53 23 -68 31 -16 8 -35 14 -44 14 -8 0 -27 6 -41 13 -15 8 -42 21 -60 30 -19 9 -42 17 -52 17 -9 0 -23 7 -30 15 -7 8 -22 15 -34 15 -12 0 -31 7 -42 15 -10 8 -29 15 -40 15 -12 0 -27 7 -34 15 -7 8 -21 15 -32 15 -11 0 -32 6 -46 13 -15 8 -42 21 -60 30 -19 9 -41 17 -51 17 -9 0 -26 7 -37 15 -10 8 -29 15 -40 15 -12 0 -27 7 -34 15 -7 8 -21 15 -32 15 -11 0 -32 6 -46 13 -15 8 -42 21 -60 30 -19 9 -40 17 -47 17 -7 0 -27 7 -44 15 -17 8 -45 22 -62 30 -17 8 -39 15 -49 15 -9 0 -23 7 -30 15 -7 8 -25 15 -40 15 -15 0 -33 7 -40 15 -7 8 -21 15 -30 15 -18 0 -31 6 -108 44 -19 9 -40 16 -49 16 -8 0 -27 6 -41 13 -37 19 -89 41 -142 62 -25 9 -58 23 -73 31 -16 8 -37 14 -47 14 -9 0 -23 7 -30 15 -7 8 -23 15 -36 15 -12 0 -29 7 -38 15 -8 8 -22 15 -32 15 -10 0 -25 7 -34 15 -9 8 -31 18 -49 21 -30 6 -32 5 -26 -19z m255 -153 c0 -7 -6 -15 -12 -17 -7 -3 3 -3 24 0 29 4 38 1 47 -15 6 -11 24 -23 41 -27 16 -4 32 -11 35 -16 4 -5 19 -9 36 -9 16 0 29 -4 29 -9 0 -5 21 -17 48 -26 77 -27 113 -41 181 -69 36 -15 72 -24 83 -20 15 4 19 2 16 -13 -2 -14 4 -19 27 -21 38 -4 85 -22 85 -33 0 -5 13 -9 28 -9 16 0 37 -7 48 -15 10 -8 29 -15 41 -15 12 0 25 -4 28 -10 3 -5 13 -10 22 -10 9 0 25 -8 35 -17 22 -20 83 -43 114 -43 12 0 27 -7 34 -15 7 -8 19 -15 26 -15 8 0 31 -11 52 -23 45 -29 126 -57 163 -57 15 0 29 -7 33 -15 3 -8 13 -15 23 -15 10 0 49 -16 88 -35 38 -20 79 -37 90 -40 11 -2 48 -15 82 -29 35 -14 67 -26 72 -26 6 0 32 -13 58 -30 26 -16 59 -30 74 -30 25 0 71 -18 149 -61 19 -10 53 -23 75 -29 22 -6 66 -25 98 -41 39 -21 66 -29 82 -25 17 4 28 0 38 -14 7 -11 29 -23 48 -27 19 -3 36 -9 39 -13 11 -13 168 -70 196 -70 17 0 38 -10 51 -24 13 -13 37 -26 54 -30 17 -3 42 -14 55 -25 14 -11 50 -27 82 -36 31 -10 76 -26 99 -36 50 -22 84 -24 102 -6 10 10 11 7 6 -15 -6 -24 -3 -29 21 -38 16 -6 38 -9 51 -5 16 4 25 -1 33 -15 8 -15 17 -19 36 -14 20 5 26 2 30 -13 4 -15 12 -19 30 -15 14 2 24 0 24 -7 0 -6 4 -11 9 -11 5 0 38 -13 73 -29 35 -16 81 -34 103 -41 22 -7 65 -24 95 -37 113 -52 144 -64 173 -67 16 -2 32 -8 36 -14 9 -14 57 -32 87 -32 23 0 49 -11 84 -35 8 -6 42 -21 75 -33 33 -13 73 -29 88 -37 16 -8 39 -15 51 -15 13 0 36 -10 51 -22 26 -20 28 -20 37 -3 9 16 12 14 24 -15 10 -22 19 -30 29 -26 11 4 15 -1 15 -19 0 -18 5 -25 20 -25 11 0 20 -7 20 -15 0 -8 -4 -15 -8 -15 -4 0 -9 -831 -10 -1847 -1 -1112 -5 -1863 -11 -1887 -15 -61 -29 -70 -93 -58 -114 23 -138 30 -162 46 -14 9 -32 16 -39 16 -8 0 -20 7 -27 15 -7 8 -20 15 -30 15 -10 0 -21 7 -24 16 -4 11 -13 14 -28 11 -14 -4 -29 0 -40 10 -22 20 -121 61 -168 69 -19 4 -42 12 -50 20 -26 22 -114 55 -133 50 -19 -5 -29 1 -65 35 -25 24 -75 46 -94 42 -10 -3 -28 3 -40 11 -12 9 -30 16 -39 16 -9 0 -19 6 -22 14 -3 8 -21 17 -39 21 -18 4 -44 13 -58 20 -52 27 -149 65 -180 71 -17 4 -34 13 -37 20 -3 8 -20 14 -42 14 -20 0 -41 4 -47 9 -21 20 -153 81 -176 81 -14 0 -33 9 -42 19 -10 11 -29 22 -44 26 -14 3 -39 15 -54 27 -24 17 -31 18 -45 7 -13 -12 -18 -10 -31 9 -8 12 -21 22 -30 22 -8 0 -34 11 -58 25 -25 15 -49 22 -60 18 -10 -4 -21 0 -28 9 -17 23 -54 40 -61 28 -12 -19 -38 -11 -32 10 4 16 0 20 -20 20 -14 0 -31 8 -38 17 -11 15 -15 15 -30 3 -15 -12 -19 -12 -30 3 -16 22 -82 57 -193 103 -48 19 -97 42 -109 50 -12 8 -31 14 -43 14 -11 0 -44 12 -72 27 -81 41 -86 43 -108 43 -11 0 -20 4 -20 9 0 15 -209 93 -234 87 -28 -7 -40 2 -25 21 9 10 6 13 -13 13 -13 0 -33 7 -45 15 -12 8 -37 14 -55 13 -27 -2 -32 0 -30 15 2 12 -4 17 -23 17 -14 0 -25 3 -25 8 0 7 -70 32 -92 32 -6 0 -20 8 -30 17 -21 19 -83 43 -112 43 -10 0 -31 11 -48 25 -16 14 -36 25 -45 25 -8 0 -28 7 -44 15 -16 8 -42 22 -58 30 -16 8 -37 15 -48 15 -10 0 -39 11 -65 25 -26 14 -56 25 -68 25 -11 0 -37 10 -58 23 -47 29 -74 41 -142 68 -30 11 -59 24 -65 28 -21 16 -105 42 -115 36 -12 -8 -60 34 -60 53 0 15 -12 16 -27 1 -17 -17 -35 0 -29 27 5 17 2 24 -8 24 -16 0 -15 -170 -19 2013 -1 689 2 1329 7 1424 7 136 6 175 -4 188 -10 12 -10 18 0 30 6 8 9 23 5 34 -4 13 2 31 15 49 19 26 26 28 85 28 45 0 65 -4 65 -12z"/> <path d="M4984 6497 c-122 -44 -188 -86 -242 -152 -61 -74 -96 -146 -87 -176 4 -13 0 -27 -10 -39 -10 -12 -14 -26 -10 -39 3 -11 1 -38 -6 -60 -10 -35 -9 -54 10 -133 30 -124 77 -249 107 -288 6 -8 14 -27 18 -42 4 -17 14 -28 29 -30 16 -2 21 -9 20 -26 -2 -14 3 -22 12 -22 8 0 15 -4 15 -9 0 -5 7 -16 15 -24 12 -13 13 -24 4 -64 -5 -26 -17 -100 -24 -163 -8 -63 -19 -124 -23 -135 -5 -11 -8 -42 -7 -70 2 -27 -3 -61 -11 -75 -14 -26 -52 -253 -55 -330 -5 -95 -1 -107 43 -150 23 -22 48 -40 55 -40 6 0 16 -7 21 -16 6 -11 11 -13 16 -5 10 16 36 14 36 -3 0 -8 -6 -17 -12 -19 -7 -3 2 -6 20 -6 17 -1 32 -5 32 -10 0 -13 87 -43 108 -37 12 4 26 -2 41 -18 13 -14 36 -28 52 -31 16 -4 31 -11 34 -16 4 -5 22 -9 41 -9 21 0 34 -5 34 -13 0 -14 53 -34 119 -46 26 -5 52 -17 62 -30 9 -11 29 -21 43 -21 13 0 28 -5 31 -10 5 -8 11 -7 21 1 11 9 19 6 39 -15 34 -37 70 -34 111 9 18 19 37 35 43 35 6 0 11 9 11 19 0 11 5 23 10 26 16 10 12 62 -5 69 -19 7 -19 40 -1 56 11 8 12 18 5 36 -5 14 -9 42 -9 62 0 20 -8 66 -17 102 -8 36 -17 85 -18 110 -2 25 -10 99 -19 165 -18 137 -34 304 -32 355 1 25 6 35 22 40 45 12 165 175 187 255 17 60 23 124 15 146 -6 14 -4 42 2 70 9 36 9 53 0 69 -7 12 -10 36 -7 53 4 32 -25 121 -49 148 -8 8 -14 21 -14 28 0 7 -9 24 -20 38 -11 14 -20 32 -20 39 0 27 -35 70 -53 66 -15 -3 -18 0 -12 18 6 18 -2 30 -39 65 -25 23 -46 44 -46 47 0 3 -20 27 -44 54 -39 42 -46 46 -60 34 -21 -17 -33 -5 -16 15 15 19 5 34 -12 17 -17 -17 -28 -15 -28 6 0 23 -76 72 -112 72 -17 0 -33 8 -40 20 -9 14 -19 18 -35 14 -13 -4 -30 -1 -38 6 -9 8 -28 10 -49 6 -24 -5 -35 -3 -38 6 -7 19 -106 16 -164 -5z m213 -73 c29 -3 57 -12 64 -20 6 -8 22 -14 34 -14 12 0 28 -7 35 -15 7 -8 18 -15 25 -15 6 0 31 -13 53 -30 23 -16 45 -30 48 -30 23 0 214 -213 214 -239 0 -6 4 -11 9 -11 5 0 13 -10 17 -22 3 -12 13 -28 20 -36 8 -7 14 -21 14 -31 0 -9 5 -22 12 -29 15 -15 38 -77 49 -132 4 -25 14 -71 20 -103 10 -45 10 -67 0 -105 -7 -26 -16 -67 -20 -92 -5 -24 -14 -46 -20 -48 -6 -2 -11 -11 -11 -19 0 -16 -59 -94 -95 -126 -11 -9 -42 -27 -68 -40 l-48 -22 4 -60 c2 -33 9 -89 15 -125 19 -111 33 -211 41 -300 4 -47 13 -101 19 -120 7 -19 12 -66 12 -103 0 -38 4 -76 9 -86 12 -21 32 -236 25 -256 -8 -19 -58 -19 -74 0 -7 8 -21 15 -32 15 -11 0 -32 6 -46 13 -15 8 -42 21 -60 30 -19 9 -42 17 -52 17 -9 0 -23 7 -30 15 -7 8 -22 15 -34 15 -12 0 -31 7 -42 15 -10 8 -29 15 -40 15 -12 0 -27 7 -34 15 -7 8 -23 15 -36 15 -12 0 -29 7 -38 15 -8 8 -23 15 -34 15 -11 0 -25 7 -32 15 -7 8 -21 15 -32 15 -11 0 -32 6 -46 13 -15 8 -42 21 -60 30 -19 9 -39 17 -45 17 -6 0 -31 10 -55 21 l-44 22 4 69 c3 38 11 75 17 81 6 6 11 37 11 69 0 32 7 75 15 95 8 19 15 59 15 89 0 29 6 73 14 96 8 24 16 73 20 110 3 38 10 77 16 87 5 11 10 44 10 73 1 29 7 64 15 78 26 46 19 85 -25 131 -22 23 -40 46 -40 50 0 4 -6 14 -12 21 -28 30 -58 78 -58 93 0 8 -4 15 -10 15 -5 0 -13 12 -16 28 -4 15 -13 36 -20 47 -8 11 -14 27 -14 36 0 9 -7 30 -15 45 -8 16 -15 51 -15 78 0 27 -5 66 -12 88 -9 29 -9 41 0 50 7 7 12 32 12 56 0 24 6 56 13 70 8 15 22 44 33 66 21 44 129 146 154 146 10 0 23 7 30 15 7 8 27 15 44 16 17 0 40 4 51 9 11 5 38 7 60 4 22 -3 63 -7 92 -10z"/> <path d="M4990 6356 c-14 -7 -41 -21 -60 -31 -43 -22 -89 -63 -101 -90 -5 -11 -13 -27 -18 -35 -39 -68 -55 -246 -27 -305 9 -18 16 -46 16 -63 0 -16 7 -35 15 -42 8 -7 15 -23 15 -35 0 -12 7 -28 15 -35 8 -7 15 -21 15 -31 0 -11 3 -19 8 -19 4 0 16 -17 27 -37 11 -20 25 -41 30 -47 6 -6 28 -32 51 -57 l41 -46 -4 -79 c-2 -43 -10 -97 -18 -119 -7 -22 -16 -71 -19 -109 -3 -38 -10 -74 -16 -80 -5 -5 -10 -36 -10 -68 0 -32 -7 -75 -15 -95 -8 -19 -15 -60 -15 -89 0 -29 -6 -71 -14 -91 -8 -21 -17 -65 -19 -98 -3 -33 -8 -67 -11 -75 -4 -11 5 -21 31 -34 21 -10 51 -24 66 -32 16 -8 36 -14 46 -14 9 0 26 -7 37 -15 10 -8 26 -15 35 -15 9 0 22 -7 29 -15 7 -8 22 -15 34 -15 12 0 31 -7 42 -15 10 -8 29 -15 40 -15 12 0 27 -7 34 -15 7 -8 21 -15 32 -15 11 0 32 -6 46 -13 25 -13 55 -26 135 -60 17 -8 52 -23 76 -35 25 -11 48 -19 53 -16 12 7 10 48 -3 61 -6 6 -14 55 -19 109 -4 55 -13 117 -19 139 -6 22 -11 67 -11 101 0 33 -7 83 -15 110 -8 27 -15 78 -15 114 0 36 -7 83 -15 105 -8 22 -14 71 -15 110 0 39 -7 88 -16 113 -17 41 -16 43 4 63 12 10 35 22 52 25 16 4 35 13 41 20 6 8 17 14 23 14 14 0 63 49 82 82 51 92 55 110 55 238 0 94 -4 133 -15 155 -9 17 -16 37 -16 45 0 8 -7 24 -15 34 -8 11 -15 27 -15 37 0 9 -7 22 -15 29 -8 7 -15 20 -15 30 0 10 -7 20 -15 24 -8 3 -15 12 -15 21 0 8 -4 15 -8 15 -5 0 -13 9 -18 19 -30 65 -229 241 -272 241 -11 0 -25 7 -32 15 -7 8 -22 15 -34 15 -12 0 -31 7 -42 15 -25 19 -188 20 -224 1z m189 -87 c20 -6 51 -18 69 -25 18 -8 41 -14 51 -14 10 0 38 -18 62 -40 24 -22 50 -40 56 -40 7 0 13 -6 13 -13 0 -14 52 -57 70 -57 5 0 10 -11 10 -25 0 -27 40 -91 70 -112 12 -8 20 -26 20 -42 0 -16 9 -40 20 -54 11 -14 20 -36 20 -50 0 -13 7 -41 15 -61 13 -30 14 -48 6 -92 -6 -30 -8 -61 -4 -69 3 -9 -2 -24 -11 -34 -9 -10 -14 -25 -10 -34 4 -11 -2 -20 -20 -28 -14 -7 -26 -18 -26 -26 0 -7 -11 -18 -25 -23 -14 -5 -25 -14 -25 -19 0 -5 -13 -14 -29 -21 -28 -11 -81 -75 -81 -97 0 -6 -7 -16 -15 -23 -18 -15 -21 -100 -4 -117 6 -6 13 -44 14 -85 2 -40 9 -104 15 -143 23 -147 32 -211 35 -254 2 -24 8 -48 14 -54 9 -9 6 -109 -4 -163 -7 -33 -62 -38 -118 -10 -24 13 -53 26 -63 29 -11 4 -27 12 -37 19 -15 11 -20 10 -28 -5 -12 -21 -29 -13 -29 13 0 22 -23 32 -56 24 -14 -4 -24 -2 -24 4 0 6 -19 20 -42 32 -81 40 -89 50 -98 125 -5 38 -6 74 -2 80 7 10 9 28 15 102 2 23 8 48 14 55 15 20 35 141 28 169 -3 14 -1 38 6 54 13 33 28 139 35 257 5 74 4 79 -30 138 -20 34 -36 65 -36 70 0 4 -9 6 -20 3 -18 -5 -19 -2 -14 25 5 26 3 31 -17 34 -19 2 -24 9 -25 33 0 17 -6 39 -12 50 -10 17 -13 18 -23 5 -9 -12 -10 -10 -5 9 2 13 -6 57 -20 98 -15 43 -22 83 -18 95 3 12 1 37 -6 57 -11 34 -9 41 25 106 23 42 33 71 26 73 -20 7 -11 22 13 22 14 0 37 11 53 24 41 34 136 46 202 25z"/> <path d="M7095 7542 c-26 -36 -27 -123 -1 -177 19 -40 68 -95 96 -108 8 -4 29 -16 45 -27 17 -11 37 -22 45 -26 8 -3 29 -11 45 -19 160 -74 476 -90 640 -33 17 6 44 12 60 15 30 4 48 12 135 53 100 48 141 82 189 153 27 39 31 54 31 111 0 85 -13 91 -83 39 -28 -22 -56 -42 -62 -44 -5 -2 -43 -26 -83 -54 -41 -27 -81 -54 -90 -60 -9 -5 -33 -22 -53 -37 -20 -16 -40 -28 -44 -28 -4 0 -24 -13 -45 -30 -21 -16 -41 -30 -45 -30 -4 0 -37 -20 -74 -45 -37 -25 -72 -45 -79 -45 -7 0 -12 -4 -12 -9 0 -17 -32 -21 -58 -7 -15 8 -49 22 -77 31 -61 21 -111 42 -148 61 -16 8 -35 14 -44 14 -8 0 -27 6 -41 13 -15 8 -43 21 -62 29 -168 73 -159 62 -163 199 l-2 87 -20 -26z"/> <path d="M9115 7419 c-16 -16 -36 -29 -42 -29 -7 0 -13 -4 -13 -9 0 -5 -17 -20 -37 -32 -21 -13 -64 -42 -95 -66 -31 -24 -59 -43 -63 -43 -3 0 -11 -5 -18 -10 -7 -6 -52 -40 -102 -75 -49 -35 -109 -78 -132 -95 -23 -16 -46 -30 -52 -30 -5 0 -11 -7 -15 -15 -3 -8 -10 -15 -16 -15 -6 0 -16 -5 -23 -10 -42 -36 -188 -140 -196 -140 -5 0 -11 -7 -15 -15 -3 -8 -10 -15 -16 -15 -7 0 -37 -20 -68 -43 -31 -24 -62 -46 -68 -48 -6 -2 -24 -14 -40 -26 -69 -54 -120 -90 -136 -96 -10 -3 -18 -11 -18 -17 0 -5 -5 -10 -11 -10 -6 0 -28 -12 -48 -27 -54 -42 -96 -63 -123 -63 -13 0 -32 -6 -41 -12 -16 -12 -17 -146 -17 -1987 -1 -1085 2 -1976 4 -1979 3 -2 28 14 56 38 27 23 67 53 88 67 20 14 41 32 45 39 4 8 12 14 18 14 5 0 15 5 22 10 41 35 148 110 156 110 5 0 11 4 13 9 3 10 95 81 104 81 3 0 11 6 18 13 8 6 24 19 36 27 12 8 51 36 86 62 35 27 68 48 74 48 5 0 10 4 10 8 0 8 95 82 105 82 4 0 12 6 19 13 8 6 24 19 36 27 12 8 86 63 164 121 78 58 159 117 181 131 22 14 50 34 62 44 12 11 45 35 72 54 28 19 51 39 51 44 0 5 6 17 14 25 12 14 15 317 21 1921 3 1048 9 1915 12 1928 8 32 -25 28 -62 -9z m-34 -206 c16 -42 4 -3390 -13 -3582 -2 -25 -14 -42 -43 -67 -22 -19 -48 -34 -57 -34 -10 0 -25 -11 -34 -25 -9 -14 -25 -25 -35 -25 -11 0 -19 -4 -19 -10 0 -5 -4 -10 -10 -10 -20 0 -142 -94 -151 -117 -6 -17 -15 -23 -27 -19 -10 3 -37 -11 -67 -35 -27 -21 -81 -60 -119 -86 -37 -26 -75 -58 -83 -70 -9 -13 -23 -23 -32 -23 -20 -1 -51 -23 -51 -37 0 -6 -11 -18 -25 -27 -13 -9 -33 -25 -44 -37 -12 -13 -26 -19 -38 -15 -13 4 -26 -2 -41 -19 -12 -14 -26 -25 -32 -25 -5 0 -10 -6 -10 -12 0 -19 -48 -61 -60 -53 -6 4 -26 -5 -45 -19 -18 -14 -39 -26 -45 -26 -6 0 -15 -11 -20 -25 -5 -14 -16 -25 -24 -25 -8 0 -38 -16 -67 -35 -58 -40 -74 -39 -91 2 -10 25 -13 834 -5 1488 1 66 0 564 -2 1107 -4 865 -2 989 11 1010 8 13 18 36 22 51 5 20 12 27 21 23 8 -3 46 13 84 35 56 32 68 43 64 59 -4 13 0 20 10 20 8 0 20 7 27 15 7 9 22 14 34 13 13 -2 20 2 19 10 -2 7 7 12 22 12 19 0 25 5 25 21 0 18 4 20 28 15 15 -3 21 -3 15 0 -15 7 -18 34 -4 34 6 0 13 -5 16 -10 9 -15 25 -2 25 20 0 13 9 22 28 26 55 12 61 15 67 35 4 10 14 19 24 19 10 0 24 7 31 15 7 8 18 15 25 15 7 0 20 11 29 25 9 14 26 25 37 25 15 0 19 5 15 15 -4 11 1 15 17 15 12 0 45 20 72 45 28 25 74 57 103 71 28 15 52 33 52 41 0 7 6 13 13 13 8 0 35 20 62 44 26 24 54 42 61 39 7 -3 37 15 66 40 97 82 151 98 169 50z"/> <path d="M12206 7455 c-14 -15 -30 -23 -39 -19 -10 3 -17 -2 -22 -15 -3 -11 -22 -29 -41 -41 -28 -16 -33 -24 -25 -34 8 -9 0 -38 -30 -112 -23 -54 -41 -114 -40 -133 0 -21 -9 -45 -24 -65 -14 -18 -25 -38 -25 -43 0 -6 -13 -13 -29 -16 -19 -4 -28 -12 -27 -23 1 -23 -59 -40 -90 -25 -18 8 -28 6 -48 -10 -15 -12 -34 -18 -44 -15 -11 4 -50 -3 -87 -15 -103 -31 -160 -34 -185 -9 -11 11 -25 20 -32 20 -24 0 -84 25 -115 47 -17 13 -38 23 -45 23 -8 0 -24 7 -36 16 -12 8 -31 13 -41 9 -13 -4 -23 0 -29 12 -11 20 -119 73 -199 97 -59 18 -119 21 -128 6 -3 -5 -14 -10 -24 -10 -29 0 -152 -60 -189 -92 -18 -15 -39 -28 -47 -28 -8 0 -15 -4 -15 -10 0 -5 -11 -10 -25 -10 -14 0 -28 -7 -32 -16 -3 -8 -31 -27 -62 -41 -31 -14 -60 -32 -64 -39 -4 -8 -19 -14 -32 -14 -32 0 -108 -60 -120 -95 -6 -17 -21 -46 -33 -65 -24 -39 -27 -71 -11 -119 8 -21 8 -35 1 -44 -6 -7 -10 -98 -10 -235 0 -184 -3 -228 -16 -256 -18 -39 -34 -43 -180 -51 -49 -3 -94 -9 -101 -15 -7 -5 -39 -9 -73 -7 -38 2 -67 -2 -78 -10 -9 -7 -28 -10 -41 -7 -19 5 -23 2 -23 -16 0 -18 -4 -21 -25 -18 -21 4 -30 -2 -54 -38 -42 -64 -45 -146 -39 -1064 3 -490 2 -477 67 -530 18 -14 38 -31 47 -39 8 -7 24 -11 36 -8 12 3 34 -1 50 -9 17 -9 37 -13 45 -10 9 4 21 2 27 -2 6 -5 47 -15 91 -21 105 -16 138 -27 163 -54 19 -21 20 -36 24 -320 3 -282 5 -300 23 -313 17 -12 18 -18 8 -44 -10 -27 -8 -35 15 -70 14 -22 29 -40 34 -40 5 0 28 -20 51 -45 24 -25 51 -45 60 -45 9 0 17 -5 17 -11 0 -6 7 -8 15 -5 9 3 40 -12 76 -37 127 -89 180 -118 201 -111 18 5 20 3 15 -15 -4 -17 0 -24 21 -33 15 -5 35 -14 44 -19 10 -5 25 -9 33 -9 8 0 15 -3 15 -8 0 -4 18 -13 40 -20 37 -11 45 -10 94 13 29 14 61 25 72 25 10 0 28 7 38 15 11 8 26 15 34 15 7 0 32 13 55 28 23 16 55 32 71 36 45 11 148 62 173 85 12 12 33 21 47 21 14 0 33 8 43 19 25 26 99 36 111 15 8 -14 10 -14 21 0 11 13 16 13 47 -5 19 -10 43 -19 52 -19 10 0 24 -6 31 -12 11 -10 14 -10 18 0 7 17 23 15 23 -4 0 -13 7 -15 38 -9 29 5 42 2 52 -9 7 -9 23 -16 36 -16 25 0 55 -14 88 -40 36 -29 64 -86 85 -175 29 -122 52 -188 68 -198 7 -4 13 -19 13 -32 0 -14 5 -25 11 -25 7 0 26 -17 44 -37 l33 -38 413 -3 c228 -1 425 0 438 3 30 8 103 82 129 132 19 35 44 125 61 218 17 86 77 175 119 175 12 0 28 10 36 22 11 16 18 18 28 10 12 -9 65 0 118 21 8 3 29 8 45 11 66 11 91 19 101 33 14 17 108 8 128 -13 8 -7 23 -10 35 -7 16 4 21 1 21 -16 0 -11 5 -21 10 -21 6 0 10 5 10 10 0 19 42 10 47 -10 3 -11 9 -20 14 -20 5 0 27 -11 49 -25 22 -14 46 -25 53 -25 8 0 54 -20 103 -45 49 -25 97 -45 106 -45 9 0 23 -6 30 -13 19 -19 75 -40 87 -32 6 3 18 2 28 -3 11 -7 23 -6 35 1 13 9 20 9 29 0 14 -14 49 -1 99 39 19 15 40 28 46 28 7 0 14 6 17 14 3 7 23 18 44 23 22 5 66 27 98 49 32 21 79 51 104 66 25 14 61 40 79 57 19 17 44 31 57 31 17 0 26 8 34 30 5 17 16 30 24 30 26 0 54 98 49 170 -2 36 -3 74 -2 85 1 11 5 119 9 240 9 216 16 285 31 285 4 0 18 9 31 21 15 13 33 19 51 17 15 -3 25 -1 22 3 -2 4 22 7 55 7 32 0 67 6 79 13 16 10 23 10 35 0 9 -7 18 -8 21 -3 3 6 23 13 43 16 62 11 136 54 163 93 l25 37 3 720 c1 509 -1 730 -9 754 -6 18 -31 54 -56 79 -44 43 -48 45 -89 39 -24 -3 -46 -1 -49 4 -3 6 -37 10 -75 10 -38 0 -71 4 -74 9 -6 10 -97 24 -143 22 -18 0 -34 3 -37 8 -3 4 -16 6 -30 4 -17 -4 -26 0 -30 14 -3 10 -4 134 -3 276 1 141 -1 257 -4 257 -17 0 -16 33 1 50 24 24 26 40 5 40 -23 0 -31 31 -12 45 35 26 -145 185 -210 185 -7 0 -17 8 -22 18 -5 10 -27 27 -48 38 -20 10 -59 31 -86 47 -26 15 -53 27 -60 27 -7 0 -18 9 -25 20 -7 11 -23 20 -36 20 -13 0 -29 7 -36 15 -28 33 -112 62 -175 61 -63 -2 -165 -31 -165 -47 0 -5 -6 -9 -14 -9 -18 0 -124 -49 -131 -61 -4 -5 -14 -9 -25 -9 -10 0 -20 -6 -23 -14 -3 -7 -24 -23 -47 -35 -32 -16 -45 -19 -55 -11 -16 13 -51 -1 -75 -31 -11 -14 -31 -19 -82 -21 -38 -2 -68 -6 -68 -10 0 -16 -50 -7 -68 12 -11 12 -42 24 -78 31 -32 6 -67 15 -76 20 -10 5 -25 6 -34 2 -9 -3 -46 8 -85 27 -67 33 -69 35 -85 89 -9 31 -22 76 -30 100 -8 25 -14 55 -14 67 0 13 -4 25 -9 28 -4 3 -11 24 -15 47 -7 45 -32 99 -45 99 -4 0 -25 17 -46 37 -26 25 -46 37 -61 35 -12 -2 -25 1 -28 6 -3 6 -160 10 -376 11 l-371 1 -23 -25z m812 -71 c13 -4 25 -17 29 -33 3 -14 12 -35 19 -46 8 -11 14 -31 14 -45 1 -14 7 -36 15 -50 8 -14 15 -38 15 -55 0 -16 7 -39 15 -49 8 -11 15 -32 15 -47 0 -15 7 -40 15 -55 8 -16 15 -44 15 -62 0 -29 5 -35 43 -52 23 -11 62 -20 87 -20 25 0 56 -7 70 -15 14 -8 41 -14 61 -15 19 0 44 -7 55 -15 10 -8 34 -15 52 -15 19 0 46 -6 60 -14 46 -24 110 -37 129 -27 78 40 145 71 154 71 6 0 17 7 25 15 9 8 24 15 33 15 10 0 24 7 31 15 7 8 21 15 32 15 11 0 26 7 34 15 9 8 24 15 33 15 10 0 24 7 31 15 7 8 20 15 30 15 10 0 23 7 30 15 7 8 18 15 25 15 7 0 37 14 68 30 58 31 114 39 134 19 11 -11 36 -26 78 -49 11 -6 34 -19 50 -30 17 -11 41 -25 55 -30 13 -6 27 -14 30 -18 3 -4 23 -16 44 -27 22 -11 44 -24 50 -30 6 -5 31 -20 56 -33 25 -13 59 -32 75 -42 17 -11 41 -24 54 -30 14 -6 37 -24 52 -40 l28 -28 1 -373 c0 -254 4 -377 12 -386 7 -9 43 -13 128 -13 75 0 134 -5 166 -15 27 -8 87 -15 134 -15 107 0 123 -5 143 -39 15 -26 17 -98 17 -759 l0 -730 -31 -26 c-25 -21 -41 -26 -87 -26 -31 0 -79 -7 -106 -15 -27 -8 -77 -15 -111 -15 -33 0 -65 -4 -71 -10 -5 -5 -42 -12 -82 -16 l-72 -7 0 -398 0 -398 -42 -33 c-53 -41 -78 -57 -100 -64 -10 -4 -18 -10 -18 -14 0 -5 -12 -13 -27 -19 -16 -6 -41 -20 -58 -31 -16 -11 -38 -23 -47 -26 -9 -3 -19 -12 -22 -20 -3 -8 -14 -14 -25 -14 -10 0 -21 -7 -25 -15 -3 -8 -14 -15 -24 -15 -11 0 -25 -7 -32 -15 -7 -8 -19 -15 -26 -15 -8 0 -14 -3 -14 -8 0 -4 -24 -18 -52 -32 -29 -13 -59 -30 -66 -37 -18 -17 -64 -16 -88 2 -10 8 -26 15 -35 15 -9 0 -22 7 -29 15 -7 8 -21 15 -31 15 -9 0 -24 7 -33 15 -8 8 -23 15 -34 15 -11 0 -25 7 -32 15 -7 8 -19 15 -27 15 -8 0 -27 6 -41 14 -15 8 -34 17 -42 20 -8 3 -22 10 -30 15 -8 5 -22 12 -30 15 -8 3 -22 10 -30 15 -8 5 -22 12 -30 15 -8 3 -22 10 -30 14 -44 25 -83 42 -95 42 -8 0 -18 8 -24 17 -12 23 -80 22 -112 -1 -13 -9 -33 -16 -44 -16 -12 0 -26 -5 -33 -12 -6 -6 -30 -15 -54 -19 -52 -9 -118 -26 -178 -45 -25 -8 -68 -14 -96 -14 -51 0 -74 -12 -74 -40 0 -8 -7 -28 -15 -44 -8 -15 -15 -40 -15 -55 0 -15 -7 -36 -15 -47 -8 -10 -15 -31 -15 -45 0 -14 -7 -34 -15 -45 -8 -10 -15 -30 -15 -42 0 -13 -6 -38 -14 -55 -7 -18 -21 -54 -31 -80 -12 -34 -25 -51 -43 -58 -38 -15 -795 -12 -827 3 -15 6 -28 23 -31 37 -3 14 -9 33 -13 41 -5 9 -12 30 -16 49 -4 18 -13 44 -21 59 -8 15 -14 34 -14 43 0 9 -7 30 -15 45 -8 16 -15 39 -15 50 0 12 -7 35 -15 50 -8 16 -15 43 -15 59 -1 51 -30 75 -92 75 -29 1 -64 7 -78 15 -14 8 -41 14 -60 15 -19 0 -48 7 -64 15 -15 8 -43 15 -60 15 -18 0 -41 7 -52 15 -10 8 -31 15 -45 15 -14 0 -34 7 -45 15 -20 15 -104 21 -104 7 0 -6 -56 -35 -110 -56 -8 -3 -22 -10 -30 -15 -8 -5 -22 -12 -30 -15 -8 -3 -22 -10 -30 -15 -8 -5 -22 -12 -30 -15 -8 -3 -22 -10 -30 -14 -43 -24 -83 -42 -95 -42 -7 0 -18 -7 -25 -15 -7 -8 -20 -15 -30 -15 -10 0 -23 -7 -30 -15 -7 -8 -22 -15 -34 -15 -11 0 -30 -7 -40 -15 -11 -8 -27 -15 -37 -15 -9 0 -23 -7 -30 -16 -10 -12 -24 -15 -53 -11 -21 3 -42 10 -45 15 -8 11 -87 58 -123 73 -16 6 -28 14 -28 19 0 4 -8 10 -17 14 -10 3 -31 15 -48 26 -16 11 -41 25 -55 31 -14 5 -38 21 -55 33 -16 13 -40 26 -52 30 -13 4 -23 11 -23 16 0 4 -8 11 -17 14 -25 9 -65 33 -72 43 -3 5 -18 14 -33 20 -19 9 -28 21 -32 50 -3 21 -4 205 -2 409 l4 371 -73 6 c-40 3 -82 10 -93 16 -12 6 -45 11 -74 11 -29 0 -69 5 -88 11 -19 6 -67 14 -106 18 -49 6 -82 15 -103 30 l-31 22 0 739 1 739 30 25 c28 24 39 26 122 26 51 0 117 7 147 15 30 8 93 15 140 16 47 0 109 6 138 12 l53 12 3 379 2 378 29 24 c17 14 40 27 53 30 12 4 22 10 22 15 0 5 24 20 53 34 28 15 66 35 82 45 17 11 40 24 52 29 11 5 24 15 28 20 3 6 15 11 26 11 10 0 19 4 19 9 0 5 12 14 28 20 15 6 41 20 57 31 17 11 39 24 50 30 42 23 67 38 78 49 22 22 77 11 164 -34 48 -25 92 -45 99 -45 6 0 17 -7 24 -15 7 -8 21 -15 31 -15 9 0 24 -7 33 -15 8 -8 19 -15 25 -15 6 0 37 -13 68 -29 32 -16 65 -32 73 -35 8 -3 22 -10 30 -15 8 -5 41 -21 74 -36 48 -22 63 -25 83 -16 13 6 34 11 46 11 12 0 31 7 41 15 11 8 34 15 50 15 17 1 42 7 56 15 14 8 39 14 56 15 18 0 45 7 60 15 16 8 51 15 78 15 27 0 67 8 88 17 32 14 38 22 38 47 0 17 7 40 15 50 8 11 15 32 15 46 0 14 7 35 15 46 8 10 15 33 15 49 0 17 7 41 15 55 8 14 14 37 15 51 0 14 7 34 15 45 8 10 15 30 15 44 0 33 10 47 40 59 27 11 779 15 818 5z m712 -522 c0 -13 -12 -22 -22 -16 -10 6 -1 24 13 24 5 0 9 -4 9 -8z"/> <path d="M12217 7323 c-4 -3 -7 -20 -7 -37 0 -17 -7 -44 -15 -60 -8 -15 -15 -41 -15 -56 0 -15 -7 -33 -15 -40 -8 -7 -15 -26 -15 -42 0 -17 -6 -42 -14 -56 -12 -25 -28 -75 -43 -142 -11 -50 -41 -70 -104 -70 -31 0 -70 -7 -85 -15 -16 -8 -47 -15 -69 -15 -22 -1 -51 -7 -65 -15 -14 -8 -38 -15 -55 -15 -16 0 -41 -7 -55 -15 -14 -8 -36 -15 -50 -15 -14 0 -34 -7 -44 -15 -27 -20 -105 -20 -112 0 -4 8 -16 15 -29 15 -12 0 -28 7 -35 15 -7 8 -20 15 -30 15 -10 0 -23 7 -30 15 -7 8 -19 15 -27 15 -13 0 -48 15 -93 41 -8 5 -22 12 -30 15 -8 3 -42 18 -75 34 -33 15 -67 31 -75 34 -8 4 -46 23 -85 44 l-70 37 -35 -18 c-19 -10 -48 -27 -65 -38 -16 -10 -40 -23 -52 -28 -11 -5 -24 -15 -28 -20 -3 -6 -14 -11 -25 -11 -10 0 -20 -7 -24 -15 -3 -8 -14 -15 -25 -15 -10 0 -21 -7 -25 -15 -3 -8 -14 -15 -25 -15 -11 0 -23 -5 -26 -11 -4 -5 -17 -15 -28 -20 -12 -5 -35 -18 -52 -29 -16 -11 -37 -22 -45 -26 -8 -3 -22 -10 -30 -15 -8 -5 -25 -13 -37 -19 -13 -5 -23 -16 -23 -24 0 -15 87 -106 102 -106 4 0 8 -4 8 -9 0 -4 63 -71 140 -149 142 -142 165 -177 120 -189 -11 -3 -20 -8 -20 -12 0 -4 -13 -20 -28 -37 -42 -44 -114 -144 -137 -189 -34 -70 -57 -95 -84 -95 -14 0 -61 -7 -104 -15 -43 -8 -124 -15 -179 -15 -61 0 -108 -5 -121 -12 -12 -7 -74 -16 -137 -20 -63 -3 -135 -10 -160 -15 l-45 -8 0 -235 0 -235 53 -2 c29 -2 61 -7 72 -13 10 -5 48 -10 83 -10 35 0 86 -7 113 -15 27 -8 79 -15 116 -15 37 0 87 -6 110 -14 24 -8 76 -16 116 -19 41 -3 80 -11 88 -18 8 -7 27 -37 42 -68 15 -31 29 -58 32 -61 12 -12 50 -70 50 -77 0 -4 19 -28 42 -53 23 -25 55 -59 71 -77 l29 -31 -53 -52 c-30 -29 -74 -69 -98 -89 -25 -20 -57 -47 -71 -61 -117 -110 -151 -141 -193 -175 l-49 -39 24 -17 c13 -10 41 -27 63 -39 22 -12 54 -30 70 -40 17 -11 40 -24 53 -30 12 -5 22 -14 22 -20 0 -5 7 -10 16 -10 9 0 33 -14 54 -30 21 -16 45 -30 53 -30 9 0 20 -6 24 -12 4 -7 29 -24 56 -38 26 -13 47 -27 47 -30 0 -3 15 -14 34 -24 32 -17 36 -17 57 -2 13 9 31 16 40 16 9 0 22 7 29 15 7 8 21 15 32 15 11 0 26 7 34 15 9 8 26 15 38 15 13 0 29 7 36 15 7 8 18 15 25 15 8 0 28 8 47 17 18 9 45 22 60 30 14 7 35 13 46 13 11 0 25 7 32 15 7 8 20 15 30 15 10 0 23 7 30 15 7 8 21 15 30 15 10 0 33 8 52 17 61 31 68 33 87 33 11 0 23 -4 26 -10 3 -5 16 -10 28 -10 12 0 35 -7 51 -15 15 -8 38 -15 50 -15 11 -1 32 -7 46 -15 14 -8 39 -14 55 -15 17 0 43 -7 59 -15 15 -8 47 -15 70 -15 22 -1 52 -7 66 -15 14 -8 41 -14 61 -15 45 0 77 -27 85 -71 4 -19 10 -38 14 -44 4 -5 11 -26 15 -45 4 -19 14 -44 21 -55 8 -11 14 -31 14 -45 0 -14 7 -34 15 -44 8 -11 15 -30 15 -42 0 -12 7 -35 15 -50 8 -16 15 -41 15 -56 0 -16 5 -28 10 -28 6 0 184 -1 398 -1 366 0 387 1 390 18 2 10 8 22 13 28 5 5 9 21 9 35 0 14 7 35 15 46 8 10 15 31 15 45 0 14 7 34 15 45 8 10 15 27 15 37 0 11 6 33 14 50 7 18 24 61 37 97 12 36 24 67 26 70 2 2 27 7 56 11 75 11 156 29 200 45 20 8 50 14 65 14 15 0 36 7 46 15 11 8 34 15 50 15 17 0 40 7 50 15 11 8 31 15 45 15 14 0 34 7 44 14 15 12 23 12 45 1 27 -13 78 -36 142 -62 19 -8 48 -21 63 -29 16 -8 34 -14 42 -14 7 0 18 -7 25 -15 7 -8 23 -15 36 -15 12 0 29 -7 38 -15 8 -8 23 -15 34 -15 11 0 25 -7 32 -15 7 -8 23 -15 35 -15 12 0 28 -7 35 -15 7 -8 19 -15 27 -15 8 0 27 -6 41 -13 15 -8 42 -21 61 -31 33 -16 34 -16 81 14 26 16 50 30 54 30 4 0 12 5 19 10 29 25 120 80 133 80 8 0 14 5 14 10 0 6 10 15 23 20 12 6 36 19 52 30 17 11 39 24 50 30 11 6 34 19 50 30 17 10 45 27 63 36 18 9 34 20 37 24 3 4 -21 30 -53 56 -31 27 -82 73 -112 103 -30 30 -77 72 -105 94 -71 56 -175 156 -175 168 0 6 17 28 38 48 65 62 179 223 196 278 13 42 43 57 129 64 45 4 100 12 122 18 22 6 65 11 95 11 30 0 80 7 110 15 30 8 82 15 116 15 34 0 74 4 90 10 16 5 49 11 74 14 25 3 45 5 45 5 0 1 -1 103 -2 228 -2 126 -3 231 -3 234 0 9 -71 18 -220 28 -69 4 -134 12 -145 18 -11 6 -74 13 -140 17 -220 13 -261 21 -274 55 -6 14 -16 35 -23 46 -30 45 -63 101 -68 112 -7 16 -79 102 -117 139 -37 36 -40 46 -19 66 7 7 83 81 168 163 84 83 172 166 194 186 22 19 38 41 36 47 -2 6 -27 23 -55 37 -84 43 -112 58 -117 64 -3 3 -23 15 -45 26 -47 23 -99 57 -103 68 -2 4 -12 7 -22 7 -9 0 -23 7 -30 15 -7 8 -21 15 -31 15 -10 0 -22 6 -26 13 -4 6 -32 25 -61 41 -48 25 -56 27 -85 15 -18 -7 -39 -18 -48 -26 -8 -7 -25 -13 -36 -13 -12 0 -23 -7 -27 -15 -3 -8 -16 -15 -29 -15 -14 0 -30 -7 -37 -15 -7 -8 -23 -15 -35 -15 -13 0 -25 -7 -29 -15 -3 -8 -15 -15 -26 -15 -12 0 -28 -7 -36 -15 -9 -8 -24 -15 -33 -15 -10 0 -24 -7 -31 -15 -7 -8 -18 -15 -25 -15 -7 0 -37 -13 -68 -30 -31 -16 -63 -30 -71 -30 -7 0 -19 -7 -27 -16 -20 -25 -105 -11 -192 32 -16 8 -43 14 -60 14 -18 1 -43 7 -57 15 -14 8 -43 15 -65 15 -22 0 -51 7 -65 15 -14 8 -50 14 -80 15 -45 0 -60 5 -83 25 -16 16 -27 37 -27 53 -1 15 -7 38 -15 52 -8 14 -14 39 -15 56 0 16 -7 39 -15 50 -8 10 -15 33 -15 49 0 17 -7 41 -15 55 -8 14 -14 37 -15 51 0 15 -7 40 -15 55 -8 16 -15 37 -15 47 0 16 -25 17 -388 17 -214 0 -392 -3 -395 -7z m661 -88 c40 -9 92 -69 92 -107 0 -15 5 -30 10 -33 6 -3 10 -23 10 -43 0 -21 8 -49 18 -62 26 -38 43 -92 31 -106 -12 -14 70 -104 94 -104 10 0 17 -6 17 -14 0 -16 19 -23 125 -40 44 -8 94 -18 110 -24 17 -6 55 -17 85 -25 193 -52 241 -60 256 -39 8 11 20 13 43 9 22 -5 33 -3 37 7 9 24 64 58 77 47 9 -7 36 2 92 28 44 21 93 41 109 45 16 4 30 15 33 27 4 16 12 20 29 16 17 -3 24 0 24 11 0 10 8 13 27 9 34 -6 53 1 47 18 -7 17 15 30 28 17 6 -6 21 -6 45 1 26 8 40 8 54 -1 10 -7 24 -12 30 -12 7 0 17 -7 23 -15 6 -8 26 -17 44 -19 21 -2 43 -15 60 -34 15 -16 59 -46 99 -66 49 -25 71 -41 67 -50 -3 -9 3 -17 15 -21 12 -3 21 -10 21 -14 0 -12 -23 -31 -37 -31 -18 0 -72 -61 -73 -82 0 -10 -6 -18 -14 -18 -8 0 -16 -7 -20 -15 -3 -8 -17 -20 -31 -27 -14 -6 -25 -19 -25 -28 0 -18 -35 -53 -62 -63 -10 -4 -18 -15 -18 -24 0 -10 -6 -27 -13 -38 -28 -40 -27 -65 4 -113 16 -25 29 -55 29 -67 0 -30 20 -48 37 -33 19 16 29 1 15 -22 -16 -26 -15 -30 6 -30 11 0 31 -27 60 -85 24 -47 50 -85 57 -85 8 0 17 -9 20 -20 3 -11 12 -20 19 -20 7 0 24 -9 38 -20 29 -22 202 -55 251 -47 18 3 86 -1 152 -9 66 -8 146 -17 178 -20 77 -7 97 -27 98 -96 0 -29 4 -75 8 -101 12 -75 5 -94 -50 -126 -37 -21 -72 -30 -156 -40 -59 -7 -157 -20 -218 -28 -60 -9 -126 -17 -145 -18 -67 -6 -120 -18 -114 -27 9 -15 -17 -39 -37 -33 -12 4 -19 -1 -24 -15 -3 -11 -15 -24 -25 -30 -10 -5 -33 -36 -51 -67 -18 -32 -38 -65 -46 -75 -10 -11 -11 -18 -4 -23 18 -11 12 -23 -11 -27 -15 -2 -30 -16 -41 -40 -10 -21 -23 -38 -28 -38 -6 0 -8 -8 -4 -19 3 -12 0 -21 -10 -25 -9 -3 -15 -18 -15 -35 0 -16 -5 -31 -10 -33 -6 -2 5 -19 24 -38 20 -19 36 -45 36 -57 0 -12 6 -26 13 -30 8 -4 16 -16 20 -25 4 -11 13 -15 28 -11 19 5 21 3 17 -15 -5 -16 -2 -22 10 -22 10 -1 31 -19 47 -40 17 -21 38 -39 48 -40 10 0 17 -8 17 -20 0 -11 5 -20 11 -20 7 0 22 -11 35 -25 20 -21 21 -28 11 -55 -6 -16 -15 -30 -19 -30 -4 0 -19 -11 -34 -25 -15 -14 -33 -25 -40 -25 -6 0 -31 -16 -54 -35 -23 -19 -50 -35 -61 -35 -12 0 -19 -7 -19 -19 0 -29 -21 -37 -38 -15 -14 18 -14 18 -9 -3 4 -20 1 -22 -38 -21 -24 0 -48 -2 -53 -6 -18 -11 -91 5 -114 25 -12 11 -29 17 -40 13 -11 -3 -29 3 -44 15 -15 12 -37 21 -49 21 -12 0 -28 6 -34 14 -7 8 -26 18 -42 21 -16 4 -32 12 -36 19 -10 17 -99 56 -128 56 -12 0 -28 7 -35 15 -7 8 -26 15 -42 15 -17 0 -43 9 -60 21 -28 21 -30 21 -43 3 -12 -16 -17 -17 -35 -6 -16 10 -24 10 -43 -2 -43 -26 -337 -106 -411 -111 -24 -2 -45 -10 -52 -20 -8 -11 -21 -16 -34 -12 -14 4 -23 0 -27 -11 -4 -9 -22 -30 -40 -46 -18 -17 -33 -38 -33 -47 0 -9 -7 -22 -15 -29 -10 -8 -13 -21 -9 -37 5 -17 0 -34 -15 -53 -11 -16 -21 -36 -21 -43 0 -16 -36 -108 -60 -152 -9 -16 -27 -32 -41 -36 -13 -4 -149 -7 -301 -8 l-277 -1 -30 37 c-17 20 -33 50 -37 67 -3 17 -14 39 -23 50 -10 11 -15 33 -14 61 1 28 -4 48 -13 56 -8 6 -14 26 -14 44 0 28 -3 32 -20 28 -21 -6 -28 11 -10 22 14 9 -7 35 -26 35 -8 0 -14 10 -14 21 0 19 -4 21 -31 15 -29 -6 -31 -4 -25 19 6 23 4 25 -27 25 -18 0 -37 4 -42 9 -16 14 -82 20 -94 8 -8 -8 -15 -6 -28 5 -10 9 -34 19 -53 22 -19 4 -51 13 -70 20 -172 66 -293 87 -323 57 -6 -6 -20 -11 -32 -11 -11 0 -34 -8 -50 -18 -17 -11 -47 -22 -67 -26 -19 -3 -55 -20 -79 -36 -24 -16 -48 -30 -52 -30 -5 0 -24 -12 -43 -27 -26 -19 -38 -23 -46 -15 -9 9 -15 8 -26 0 -28 -23 -180 -71 -210 -66 -9 1 -23 -2 -31 -6 -10 -7 -19 -3 -29 12 -8 12 -19 22 -24 22 -6 0 -23 11 -40 25 -16 14 -42 28 -56 32 -15 3 -32 13 -39 22 -11 15 -59 43 -95 55 -10 3 -18 13 -18 22 0 10 -7 25 -15 34 -12 13 -12 21 -1 53 17 50 31 64 49 49 11 -10 23 0 58 48 24 33 49 60 56 60 15 0 61 44 98 95 16 22 35 46 42 53 16 17 16 25 1 40 -10 10 -10 17 1 34 11 18 10 24 -8 49 -12 15 -21 33 -21 39 0 5 -9 10 -20 10 -14 0 -20 7 -20 23 0 12 -9 28 -20 35 -11 7 -20 18 -20 26 0 7 -7 19 -15 26 -8 6 -31 45 -51 86 -20 41 -42 74 -48 74 -6 0 -19 8 -28 18 -34 35 -53 47 -74 44 -12 -2 -24 3 -27 12 -4 11 -15 13 -40 9 -20 -3 -37 -1 -41 6 -4 6 -28 11 -54 11 -26 0 -92 7 -146 15 -55 8 -103 12 -107 9 -4 -2 -42 1 -85 7 -83 13 -139 39 -149 69 -11 36 -14 195 -4 228 12 36 52 62 97 62 16 0 69 7 117 15 49 9 132 16 184 16 134 1 229 17 236 41 7 19 25 25 25 8 0 -5 11 -10 25 -10 16 0 25 6 25 15 0 9 8 19 18 22 20 8 82 73 82 86 0 5 12 24 28 42 80 95 122 155 122 173 0 12 9 26 20 32 11 6 19 14 18 18 -1 4 2 24 7 45 6 29 3 48 -11 78 -11 21 -25 39 -31 39 -7 0 -13 6 -13 14 0 20 -91 116 -111 116 -11 0 -16 6 -13 18 2 9 -9 31 -27 50 -25 28 -33 31 -45 21 -8 -6 -18 -9 -21 -5 -4 4 -1 11 6 15 11 7 11 16 3 39 -8 24 -7 33 4 43 8 6 14 22 14 36 0 19 4 23 18 18 25 -7 104 37 138 78 21 24 29 29 42 20 18 -11 71 16 118 59 19 17 22 17 34 3 7 -8 22 -15 34 -15 11 0 30 -7 41 -16 12 -9 30 -12 46 -9 30 7 50 -12 28 -26 -11 -7 -9 -9 6 -9 11 0 61 -21 110 -46 66 -33 97 -44 118 -40 22 5 27 2 27 -14 0 -12 7 -20 18 -20 9 0 26 -7 36 -15 11 -8 27 -15 36 -15 9 0 33 -9 55 -20 31 -16 50 -18 94 -14 31 4 61 11 67 16 6 4 29 10 51 12 22 2 45 6 51 10 25 15 216 62 295 72 59 8 87 21 97 49 6 15 15 23 21 20 6 -4 19 2 30 14 11 12 25 21 31 21 7 0 3 7 -8 15 -19 15 -19 15 1 30 12 10 19 25 17 39 -2 14 3 26 12 29 9 4 16 15 16 25 0 10 14 61 30 114 44 142 44 141 285 149 209 6 303 5 353 -6z m-2380 -597 c-6 -18 -28 -21 -28 -4 0 9 7 16 16 16 9 0 14 -5 12 -12z"/> <path d="M12430 6379 c-150 -12 -401 -66 -408 -89 -2 -5 -12 -10 -23 -10 -10 0 -33 -8 -51 -18 -18 -11 -50 -22 -71 -26 -21 -4 -46 -16 -55 -27 -9 -10 -27 -19 -39 -19 -13 0 -28 -9 -35 -20 -7 -11 -22 -20 -34 -20 -11 0 -30 -14 -43 -30 -14 -20 -28 -29 -39 -26 -11 3 -35 -11 -66 -39 -27 -25 -53 -45 -58 -45 -4 0 -8 -9 -8 -20 0 -12 -7 -20 -16 -20 -21 0 -64 -41 -64 -61 0 -9 -9 -24 -20 -34 -11 -10 -20 -24 -20 -32 0 -16 -20 -53 -36 -68 -6 -5 -20 -32 -29 -58 -15 -39 -16 -50 -6 -57 10 -6 9 -13 -4 -34 -16 -24 -26 -72 -24 -121 1 -79 3 -85 21 -85 20 0 24 -20 7 -37 -15 -15 9 -101 32 -114 11 -5 19 -18 19 -27 0 -27 39 -102 55 -109 8 -3 15 -11 15 -19 0 -7 8 -18 18 -23 9 -5 31 -27 47 -50 17 -22 38 -41 48 -41 10 0 22 -11 27 -25 5 -14 16 -25 24 -25 7 0 16 -7 20 -15 3 -8 12 -15 19 -15 8 0 22 -9 32 -20 10 -11 26 -20 37 -20 10 0 18 -4 18 -9 0 -15 209 -113 252 -119 21 -2 41 -9 44 -13 3 -5 23 -9 45 -9 22 0 57 -9 78 -20 65 -33 183 -48 414 -54 149 -4 157 -3 157 15 0 23 26 25 38 3 8 -14 18 -14 103 2 52 9 105 17 119 18 14 1 32 6 40 11 8 5 38 12 65 16 52 7 101 22 147 45 14 8 32 14 40 14 24 0 177 78 205 105 16 14 36 25 45 25 10 0 25 11 34 25 9 14 25 25 35 25 16 0 64 51 64 68 1 17 18 32 36 32 10 0 19 4 19 9 0 5 14 23 30 40 17 17 26 32 20 36 -18 11 -11 28 9 22 16 -4 19 0 18 22 -2 20 3 27 21 29 24 4 28 22 10 52 -14 22 -3 39 14 22 18 -18 30 -14 23 8 -3 11 1 34 9 52 8 18 15 49 15 68 0 19 0 66 2 103 1 40 -3 73 -10 80 -6 6 -11 21 -11 33 0 13 -5 26 -10 29 -7 4 -8 23 -5 49 5 32 3 45 -9 55 -9 8 -16 19 -16 25 0 7 -16 27 -35 46 -19 19 -35 43 -35 54 -1 21 -52 86 -69 86 -5 0 -44 34 -87 75 -49 46 -106 88 -149 110 -38 20 -88 47 -110 60 -23 14 -56 24 -78 25 -25 0 -46 8 -63 23 -16 15 -57 31 -117 46 -51 12 -118 29 -150 37 -31 8 -119 17 -195 20 -75 3 -148 6 -162 8 -14 1 -72 -1 -130 -5z m407 -94 c31 -8 73 -15 93 -15 20 0 45 -7 56 -15 10 -8 37 -15 59 -15 22 0 49 -7 59 -15 11 -8 28 -15 39 -15 10 0 31 -6 45 -14 15 -7 71 -35 125 -61 108 -53 202 -117 279 -191 59 -56 118 -127 118 -141 0 -6 7 -16 15 -23 8 -7 15 -20 15 -30 0 -10 7 -23 15 -30 8 -7 15 -24 15 -39 0 -14 7 -35 15 -45 20 -27 20 -201 0 -236 -8 -14 -14 -37 -15 -52 0 -15 -7 -33 -15 -42 -8 -8 -15 -20 -15 -26 0 -16 -48 -82 -120 -163 -45 -51 -193 -163 -247 -186 -11 -6 -24 -15 -28 -20 -3 -6 -14 -11 -24 -11 -10 0 -24 -7 -31 -15 -7 -8 -20 -15 -30 -15 -10 0 -23 -7 -30 -15 -7 -8 -24 -15 -39 -15 -14 0 -35 -7 -45 -15 -11 -8 -32 -15 -46 -15 -14 0 -31 -5 -37 -11 -6 -6 -35 -14 -64 -19 -30 -5 -76 -14 -104 -19 -97 -20 -281 -33 -365 -27 -47 4 -131 10 -188 14 -56 5 -107 13 -114 20 -7 7 -30 12 -52 12 -23 1 -52 7 -66 15 -14 8 -37 14 -51 15 -14 0 -34 7 -45 15 -10 8 -31 15 -45 15 -15 0 -32 7 -39 15 -7 8 -23 15 -37 15 -13 0 -26 7 -29 15 -4 8 -14 15 -24 15 -10 0 -23 7 -30 15 -7 8 -21 15 -31 15 -10 0 -20 4 -23 9 -3 5 -30 25 -58 44 -29 20 -75 56 -103 81 -27 25 -53 46 -57 46 -5 0 -8 4 -8 10 0 5 -12 23 -27 39 -42 44 -63 74 -63 88 0 7 -4 13 -10 13 -5 0 -13 12 -16 28 -4 15 -13 36 -20 47 -8 11 -14 33 -14 50 -1 16 -7 41 -15 55 -19 33 -19 112 0 157 8 19 15 48 15 63 0 15 7 33 15 40 8 7 15 20 15 30 0 10 7 23 15 30 8 7 15 21 15 31 0 10 6 22 13 26 7 4 30 31 52 58 61 78 227 215 259 215 9 0 16 4 16 10 0 5 11 12 25 16 13 3 29 12 36 20 6 8 20 14 31 14 11 0 26 7 34 15 9 8 26 15 38 15 13 0 29 7 36 15 7 8 25 15 39 15 15 0 36 7 47 15 10 8 35 15 54 15 19 0 46 7 60 15 14 8 43 15 65 15 22 0 60 7 85 14 65 21 428 21 507 1z"/> <path d="M12450 6230 c-30 -4 -86 -9 -125 -9 -44 -1 -77 -7 -89 -16 -11 -8 -36 -15 -55 -15 -20 -1 -47 -7 -61 -15 -14 -8 -37 -14 -52 -15 -15 0 -29 -4 -32 -9 -3 -5 -18 -12 -33 -15 -16 -4 -41 -13 -58 -21 -97 -45 -123 -58 -150 -76 -16 -10 -37 -22 -45 -26 -26 -11 -134 -96 -148 -116 -8 -10 -21 -25 -31 -35 -29 -29 -81 -99 -81 -110 0 -5 -7 -15 -15 -22 -8 -7 -15 -20 -15 -29 0 -9 -7 -29 -16 -46 -22 -42 -22 -238 0 -280 9 -16 16 -37 16 -46 0 -9 7 -22 15 -29 8 -7 15 -19 15 -26 0 -18 29 -53 116 -141 40 -40 79 -73 87 -73 8 0 34 15 58 33 24 18 51 37 59 40 8 4 35 18 59 32 24 14 50 25 56 25 7 0 18 7 25 15 7 8 22 15 34 15 11 0 30 7 40 15 11 8 31 15 45 15 14 0 35 7 45 15 11 8 36 15 55 15 20 1 47 7 61 15 14 8 48 14 76 15 28 0 71 7 94 15 60 21 323 21 364 0 16 -8 54 -15 87 -15 33 0 76 -7 96 -15 19 -8 50 -15 69 -15 18 0 39 -7 48 -15 8 -8 26 -15 39 -15 14 0 30 -7 37 -15 7 -8 25 -15 40 -15 15 0 33 -7 40 -15 7 -8 20 -15 30 -15 10 0 23 -7 30 -15 7 -8 20 -15 30 -15 10 0 23 -7 30 -15 7 -8 19 -15 27 -15 7 0 16 -7 19 -15 4 -8 11 -15 18 -15 6 0 19 -9 29 -20 9 -11 23 -20 31 -20 32 0 117 84 181 180 17 25 33 47 38 48 4 2 7 10 7 19 0 8 6 27 14 41 25 47 37 159 25 237 -11 67 -60 185 -86 207 -7 6 -13 15 -13 20 0 35 -279 258 -323 258 -8 0 -20 7 -27 15 -7 8 -20 15 -30 15 -10 0 -23 7 -30 15 -7 8 -22 15 -34 15 -12 0 -31 7 -42 15 -10 8 -33 15 -50 15 -16 0 -39 7 -50 15 -10 8 -34 15 -52 15 -18 0 -43 5 -55 12 -40 23 -390 43 -487 28z m85 -70 c3 -5 47 -9 98 -9 51 1 110 -3 132 -8 22 -5 56 -8 76 -5 21 2 49 -3 66 -12 22 -11 33 -12 41 -4 8 8 21 4 47 -16 26 -20 43 -26 60 -22 15 4 40 -3 71 -19 26 -14 55 -25 66 -25 10 0 21 -7 24 -15 4 -8 13 -15 22 -15 8 0 39 -16 68 -36 38 -26 60 -35 78 -32 14 3 26 1 26 -3 0 -5 -4 -9 -10 -9 -5 0 -10 -4 -10 -10 0 -5 6 -10 13 -10 8 0 22 -9 32 -20 10 -11 23 -20 30 -20 6 0 24 -18 41 -40 16 -23 44 -47 63 -55 30 -13 33 -18 29 -47 -4 -23 2 -44 17 -68 18 -28 24 -57 29 -131 6 -87 4 -97 -18 -139 -13 -25 -32 -62 -41 -82 -10 -21 -21 -38 -26 -38 -5 0 -16 -15 -25 -32 -9 -18 -27 -43 -40 -56 l-23 -23 -11 20 c-8 15 -21 21 -46 21 -22 0 -37 6 -40 15 -9 22 -92 58 -119 51 -17 -4 -22 -2 -21 11 1 12 -9 19 -36 23 -20 4 -43 12 -51 18 -19 16 -245 70 -352 83 -193 25 -421 20 -530 -11 -16 -4 -82 -22 -145 -40 -74 -20 -120 -38 -130 -50 -8 -11 -24 -19 -35 -18 -28 1 -75 -19 -75 -33 0 -7 -9 -9 -22 -6 -13 4 -38 -4 -65 -19 -24 -13 -55 -24 -68 -24 -14 0 -25 -4 -25 -10 0 -21 -39 -10 -42 13 -2 17 -8 21 -27 19 -19 -3 -22 0 -18 13 5 10 -4 26 -23 45 -20 19 -41 59 -59 112 -46 133 -29 216 76 374 19 29 41 55 49 58 8 3 19 17 24 31 6 15 17 25 30 25 14 0 20 7 20 21 0 16 5 20 20 16 15 -4 20 -1 18 11 -2 11 5 16 22 17 17 0 26 7 28 20 6 28 22 36 58 29 25 -5 34 -1 48 21 12 19 24 25 37 22 27 -7 86 11 93 28 3 8 16 15 29 15 14 0 30 7 37 16 8 8 25 14 39 13 14 -2 38 5 53 15 19 12 32 15 45 8 12 -6 44 -5 93 5 41 7 92 16 113 18 22 2 42 6 45 9 8 9 20 7 27 -4z"/> <path d="M12396 5263 c-56 -2 -97 -9 -110 -18 -11 -8 -39 -15 -61 -15 -22 -1 -51 -7 -65 -15 -14 -8 -39 -14 -56 -15 -17 0 -37 -7 -44 -15 -7 -8 -21 -15 -30 -15 -16 0 -52 -15 -100 -42 -8 -4 -22 -11 -30 -14 -8 -3 -22 -9 -30 -14 -8 -5 -34 -19 -58 -31 -84 -44 -83 -50 21 -102 51 -26 99 -47 108 -47 8 0 24 -7 35 -15 10 -8 28 -15 40 -15 11 0 29 -7 40 -15 10 -8 33 -15 49 -15 17 0 41 -7 55 -15 14 -8 47 -14 73 -15 26 0 64 -7 84 -15 50 -21 469 -21 528 0 22 8 60 14 85 15 25 0 56 7 70 15 14 8 39 15 55 15 17 0 39 7 49 15 11 8 32 15 47 15 14 0 32 7 39 15 7 8 20 15 30 15 9 0 37 11 61 25 24 13 66 34 92 46 26 12 46 27 44 32 -3 11 -45 39 -84 56 -11 5 -24 15 -28 20 -3 6 -14 11 -24 11 -10 0 -24 7 -31 15 -7 8 -23 15 -35 15 -12 0 -28 7 -35 15 -7 8 -22 15 -34 15 -11 0 -30 7 -40 15 -11 8 -31 15 -45 15 -14 1 -37 7 -51 15 -14 8 -42 14 -63 15 -21 0 -50 6 -65 14 -29 15 -320 27 -486 19z m124 -76 c14 1 40 5 57 8 18 4 41 4 50 -1 25 -11 113 -13 113 -3 0 12 37 11 45 -1 3 -5 19 -10 34 -10 16 0 34 -7 41 -15 14 -17 60 -21 60 -5 0 6 7 10 16 10 11 0 15 -6 11 -20 -5 -21 16 -29 28 -10 10 16 45 12 45 -5 0 -8 5 -15 12 -15 6 0 40 -13 75 -30 34 -16 72 -30 82 -30 10 0 26 -11 35 -25 9 -14 12 -25 6 -25 -5 0 -10 5 -10 10 0 19 -21 10 -64 -25 -24 -19 -49 -35 -56 -35 -6 0 -26 -6 -43 -14 -18 -8 -48 -17 -67 -20 -19 -3 -75 -13 -125 -22 -156 -30 -560 -23 -641 11 -20 8 -48 15 -63 15 -14 1 -44 9 -66 20 -22 11 -44 19 -48 20 -15 0 -77 52 -77 64 0 6 18 21 40 34 22 12 40 27 40 32 0 6 13 10 29 10 17 0 32 4 35 9 3 4 23 11 43 15 21 3 51 13 67 21 22 12 32 13 43 4 10 -9 20 -9 39 0 14 6 38 11 53 11 17 0 31 7 35 16 5 12 15 14 53 7 27 -4 59 -7 73 -6z"/> <path d="M14840 6557 c-25 -28 -100 -105 -168 -172 -115 -113 -135 -139 -113 -147 15 -5 111 -122 111 -135 0 -7 4 -13 9 -13 5 0 26 -34 47 -75 l38 -75 48 -2 c26 -1 55 -2 63 -2 14 -1 16 38 17 332 0 183 -1 334 -3 337 -3 2 -25 -19 -49 -48z m-50 -230 c0 -12 9 -40 21 -61 22 -41 19 -69 -6 -60 -8 3 -15 1 -15 -4 0 -18 23 -62 32 -62 4 0 8 -7 8 -15 0 -8 -2 -15 -4 -15 -2 0 -12 -3 -20 -6 -12 -5 -15 -2 -10 11 6 14 3 16 -13 11 -24 -8 -56 24 -47 47 4 10 -4 29 -20 48 -29 34 -34 69 -10 69 8 0 20 14 25 30 14 38 59 44 59 7z"/> <path d="M10316 6268 l1 -333 49 3 c52 4 84 24 84 52 0 10 7 23 15 30 8 7 15 17 15 22 0 13 46 73 135 176 l37 42 -163 168 c-89 92 -165 168 -168 170 -4 1 -6 -148 -5 -330z m142 65 c2 -11 17 -34 33 -53 23 -24 29 -39 25 -56 -4 -13 -13 -24 -21 -24 -8 0 -20 -9 -27 -20 -17 -27 -81 -29 -76 -3 2 10 14 23 28 30 l25 13 -27 0 c-34 0 -38 27 -8 53 21 18 27 37 11 37 -6 0 -13 -5 -16 -10 -8 -13 -25 -3 -25 15 0 15 48 44 65 41 6 -2 11 -12 13 -23z"/> <path d="M15463 5279 c-6 -6 -48 -14 -94 -18 -47 -4 -94 -13 -106 -19 -12 -7 -56 -12 -98 -12 -42 0 -86 -5 -98 -12 -12 -6 -75 -14 -140 -18 -65 -4 -123 -12 -129 -18 -8 -8 -11 -90 -10 -273 l1 -261 73 -66 c147 -134 141 -125 136 -214 -5 -88 -4 -89 67 -63 22 8 63 14 91 15 28 0 71 7 94 15 23 8 64 15 91 15 38 0 127 16 147 25 7 4 2 899 -5 906 -5 5 -14 4 -20 -2z m-65 -136 c0 -16 3 -59 8 -98 5 -38 7 -179 4 -312 -5 -240 -5 -242 -30 -268 -34 -37 -61 -46 -158 -51 -99 -5 -134 8 -149 58 -5 18 -15 32 -21 30 -7 -1 -12 5 -12 14 0 16 -95 114 -111 114 -12 0 -39 55 -39 80 0 13 -7 20 -20 20 -24 0 -27 25 -4 34 15 6 15 8 -2 28 -14 15 -16 22 -6 25 14 5 16 33 2 33 -16 0 -12 22 7 35 16 12 16 14 -1 39 -11 18 -14 31 -8 39 5 7 16 38 23 70 10 49 18 61 43 75 31 16 45 18 164 27 35 2 69 8 75 13 7 5 56 9 110 9 53 0 100 3 104 7 14 13 22 5 21 -21z"/> <path d="M9685 5269 c-3 -8 -4 -211 -3 -452 l3 -439 40 -14 c22 -7 65 -14 96 -14 31 0 78 -7 105 -15 27 -8 70 -15 95 -15 26 0 66 -7 89 -15 70 -25 70 -25 70 73 l0 88 36 32 c20 18 37 32 39 32 2 0 24 19 48 43 24 24 53 50 65 59 21 14 22 20 23 277 1 144 -1 264 -4 267 -11 12 -84 24 -142 24 -34 0 -87 7 -118 15 -32 8 -84 15 -117 15 -32 0 -71 5 -87 11 -15 7 -64 15 -108 19 -44 4 -90 11 -102 15 -15 5 -24 3 -28 -6z m275 -114 c30 -3 93 -7 140 -10 47 -4 94 -12 106 -20 11 -7 31 -15 43 -17 17 -2 27 -15 38 -48 8 -25 19 -50 25 -57 6 -7 6 -24 0 -46 -8 -28 -7 -38 7 -51 11 -12 13 -19 5 -24 -6 -4 -14 -31 -18 -60 -5 -42 -4 -53 9 -58 20 -8 20 -34 0 -34 -9 0 -20 -11 -25 -25 -5 -13 -39 -52 -75 -86 -36 -34 -63 -64 -60 -67 10 -10 -17 -43 -33 -40 -11 2 -18 -6 -22 -23 -3 -15 -20 -39 -37 -53 l-33 -28 -88 11 c-49 6 -103 16 -119 22 -55 19 -58 36 -60 352 -1 198 -5 292 -13 302 -11 13 2 29 25 30 6 0 9 11 7 23 -3 23 -2 24 60 17 35 -3 88 -8 118 -10z"/> <path d="M10444 4910 c0 -110 3 -200 7 -200 3 0 24 16 45 36 22 19 60 54 86 76 l48 41 -33 31 c-48 48 -70 76 -114 149 l-40 67 1 -200z"/> <path d="M14700 5062 c0 -13 -74 -120 -112 -161 l-38 -40 37 -33 c20 -18 55 -52 79 -75 23 -24 46 -43 51 -43 4 0 8 81 9 180 0 142 -2 180 -13 180 -7 0 -13 -3 -13 -8z"/> <path d="M10228 4382 c-2 -4 -2 -215 0 -468 2 -426 4 -462 20 -468 9 -3 31 -15 47 -26 17 -11 39 -24 50 -30 11 -6 34 -19 50 -30 17 -11 39 -24 50 -30 11 -6 34 -19 50 -30 17 -11 37 -23 45 -27 23 -10 75 -47 78 -55 2 -5 9 -8 16 -8 7 0 34 -16 61 -35 27 -19 52 -31 55 -26 3 5 3 215 0 466 -4 393 -7 459 -20 466 -37 19 -145 83 -150 88 -9 11 -45 31 -72 42 -16 6 -28 15 -28 20 0 5 -6 9 -14 9 -8 0 -21 6 -28 13 -16 14 -47 34 -68 44 -8 4 -43 26 -77 50 -34 24 -63 40 -65 35z m146 -201 c3 -5 15 -7 25 -4 12 3 29 -4 43 -17 53 -50 109 -82 134 -76 22 6 24 4 18 -20 -6 -24 -5 -26 16 -19 19 6 22 4 17 -9 -5 -12 1 -19 19 -26 21 -8 23 -13 14 -29 -8 -16 -6 -22 7 -30 16 -9 16 -13 5 -32 -11 -17 -13 -73 -10 -258 1 -130 -1 -255 -6 -279 l-8 -43 -46 7 c-48 6 -112 38 -112 55 0 5 -21 20 -47 33 -88 45 -159 144 -133 186 4 7 7 121 6 254 -2 132 1 250 5 261 4 11 10 28 13 38 6 18 31 23 40 8z"/> <path d="M14905 4368 c-11 -6 -22 -14 -25 -17 -12 -14 -70 -51 -80 -51 -5 0 -10 -4 -10 -9 0 -5 -10 -13 -22 -17 -12 -3 -39 -19 -61 -35 -22 -16 -44 -29 -49 -29 -5 0 -14 -5 -21 -10 -29 -25 -120 -80 -133 -80 -8 0 -14 -4 -14 -9 0 -5 -13 -14 -30 -21 -16 -7 -30 -15 -30 -19 0 -3 -2 -204 -3 -446 -1 -242 -6 -448 -11 -457 -6 -14 -4 -18 13 -18 12 0 21 4 21 10 0 5 11 12 25 16 14 3 25 9 25 13 0 4 10 13 23 20 12 6 36 20 52 31 17 11 39 24 50 30 11 6 34 19 50 30 17 11 39 24 50 30 11 6 34 19 50 30 17 11 38 23 48 26 9 4 17 10 17 14 0 5 10 12 22 16 13 4 35 16 50 27 l27 20 0 371 c1 204 4 410 7 459 7 93 3 100 -41 75z m-95 -174 c0 -8 -7 -14 -15 -14 -15 0 -21 21 -9 33 10 9 24 -2 24 -19z m52 -40 c5 -3 4 -11 -1 -18 -6 -7 -11 -122 -11 -298 -2 -280 -2 -286 -25 -324 -24 -39 -45 -56 -122 -94 -23 -12 -44 -28 -47 -36 -3 -8 -18 -14 -34 -14 -16 0 -35 -7 -42 -15 -15 -18 -60 -20 -60 -3 0 6 -7 20 -16 30 -13 14 -14 21 -5 32 8 9 11 93 11 285 -1 149 2 277 7 284 4 6 6 20 5 30 -2 11 3 17 17 17 12 0 21 7 21 15 0 16 34 38 44 28 3 -4 16 3 29 14 12 11 41 30 64 42 23 11 45 26 49 32 6 11 96 5 116 -7z m-240 -809 c0 -5 -5 -11 -11 -13 -6 -2 -11 4 -11 13 0 9 5 15 11 13 6 -2 11 -8 11 -13z"/> <path d="M13645 4320 c-16 -11 -39 -20 -50 -20 -11 0 -29 -7 -39 -15 -11 -8 -34 -15 -50 -15 -17 -1 -42 -7 -56 -15 -14 -8 -36 -15 -50 -15 -14 0 -43 -7 -65 -15 -22 -8 -63 -14 -92 -15 -40 0 -54 -4 -61 -17 -5 -10 -5 -88 0 -173 4 -85 7 -282 6 -438 l-3 -284 30 6 c93 16 214 45 280 68 17 6 44 12 60 15 17 3 44 11 62 19 17 8 40 14 52 14 21 0 21 0 23 445 0 245 1 450 2 457 2 19 -18 19 -49 -2z m-63 -151 c15 -30 17 -72 18 -332 0 -352 1 -346 -87 -372 -32 -9 -67 -21 -78 -25 -11 -4 -39 -13 -62 -19 -56 -15 -79 -3 -94 51 -15 56 -8 572 9 610 14 34 85 70 169 88 35 7 68 19 74 27 17 20 31 12 51 -28z"/> <path d="M11390 4315 c-7 -8 -18 -15 -25 -15 -12 0 -52 -18 -95 -42 -8 -4 -22 -11 -30 -14 -8 -3 -27 -12 -42 -20 -14 -8 -32 -14 -39 -14 -13 0 -106 -42 -171 -76 -14 -8 -35 -14 -46 -14 -11 0 -25 -7 -32 -15 -7 -8 -18 -15 -26 -15 -7 0 -29 -8 -49 -17 l-35 -17 0 -459 0 -459 28 7 c15 3 34 13 43 21 8 8 25 14 36 14 12 0 23 4 25 8 4 11 85 52 102 52 7 0 19 7 26 15 7 8 20 15 30 15 10 0 23 7 30 15 7 8 20 15 30 15 10 0 23 7 30 15 7 8 21 15 32 15 11 0 26 7 34 15 9 8 24 15 33 15 10 0 24 7 31 15 7 8 17 15 23 15 6 0 27 8 46 17 l36 17 0 453 c0 249 -3 453 -6 453 -4 0 -12 -7 -19 -15z m-80 -156 c0 -15 4 -19 16 -15 27 10 32 -2 22 -51 -11 -53 -12 -331 -2 -485 6 -89 5 -98 -12 -105 -10 -4 -41 -24 -69 -45 -27 -21 -55 -38 -61 -38 -6 0 -17 -6 -23 -14 -7 -8 -27 -17 -46 -20 -26 -5 -35 -12 -35 -26 0 -13 -5 -18 -15 -14 -18 7 -92 -21 -117 -43 -16 -15 -20 -15 -36 0 -10 10 -26 17 -35 17 -18 0 -23 25 -7 35 6 3 7 14 3 23 -5 9 -6 132 -3 272 3 140 2 259 -2 265 -5 5 -8 15 -8 23 0 22 106 121 137 128 53 11 152 56 158 71 4 11 14 14 35 9 23 -4 35 -1 47 14 23 27 53 26 53 -1z"/> <path d="M11485 3875 l0 -455 26 0 c14 0 34 -7 45 -15 10 -8 33 -15 49 -15 17 0 41 -7 55 -15 14 -8 39 -14 56 -15 16 0 39 -7 50 -15 10 -8 38 -15 62 -15 23 0 59 -7 79 -15 77 -32 70 -67 75 428 2 243 2 448 0 455 -3 7 -24 12 -58 12 -30 0 -71 7 -91 15 -19 8 -50 15 -67 15 -18 0 -41 7 -52 15 -10 8 -33 15 -50 15 -16 0 -39 7 -50 15 -10 8 -28 15 -40 15 -11 0 -29 7 -40 15 -50 38 -49 50 -49 -440z m210 300 c48 -2 95 -14 112 -27 7 -5 21 -7 33 -3 15 5 20 2 20 -10 0 -9 9 -28 19 -41 17 -22 19 -44 21 -227 1 -111 3 -238 4 -282 2 -91 -6 -144 -26 -156 -21 -14 -108 -10 -136 6 -15 8 -54 24 -87 35 -34 12 -67 31 -75 43 -12 18 -15 81 -17 341 -1 176 1 324 4 329 3 5 23 6 47 2 22 -4 59 -9 81 -10z"/> <path d="M13740 3875 c0 -438 1 -455 19 -455 10 0 24 -7 31 -15 7 -8 23 -15 35 -15 12 0 28 -7 35 -15 7 -8 20 -15 30 -15 10 0 23 -7 30 -15 7 -8 19 -15 27 -15 13 0 48 -15 93 -41 8 -5 22 -12 30 -15 8 -3 22 -10 30 -15 8 -5 22 -12 30 -15 8 -3 58 -27 110 -53 52 -25 99 -46 103 -46 5 0 9 205 8 455 0 453 0 455 -22 473 -12 9 -29 17 -38 17 -10 0 -26 7 -37 15 -10 8 -29 15 -40 15 -12 0 -27 7 -34 15 -7 8 -20 15 -29 15 -10 0 -26 7 -37 15 -10 8 -26 15 -35 15 -9 0 -22 7 -29 15 -7 8 -22 15 -34 15 -12 0 -31 7 -42 15 -10 8 -26 15 -35 15 -9 0 -22 7 -29 15 -7 8 -23 15 -36 15 -12 0 -25 4 -28 9 -6 9 -87 51 -99 51 -4 0 -7 -205 -7 -455z m231 258 c9 -7 43 -23 75 -34 32 -11 73 -29 90 -40 17 -10 34 -16 37 -12 4 3 25 0 48 -7 35 -12 39 -17 34 -37 -4 -18 -1 -23 14 -23 26 0 34 -15 17 -29 -11 -9 -14 -65 -15 -267 0 -141 -4 -260 -7 -266 -4 -5 -1 -20 6 -33 10 -19 10 -29 -1 -53 -12 -27 -15 -29 -58 -24 -25 3 -48 8 -51 11 -3 3 -12 7 -20 9 -8 2 -16 8 -18 13 -2 5 -12 9 -23 9 -11 0 -32 8 -47 18 -41 27 -62 39 -122 71 -43 23 -60 38 -76 73 -21 42 -22 60 -23 332 -1 158 1 291 4 296 9 15 117 9 136 -7z"/> <path d="M12037 3678 c2 -386 7 -457 33 -508 4 -9 11 -31 14 -50 4 -19 11 -46 16 -60 5 -14 11 -42 15 -62 3 -21 10 -38 16 -38 7 0 9 142 7 418 -3 375 -5 420 -20 449 -10 18 -18 43 -18 57 0 14 -4 27 -9 30 -5 3 -12 23 -16 43 -4 21 -11 44 -17 51 -6 6 -14 27 -17 45 -4 17 -6 -151 -4 -375z"/> <path d="M13102 4008 c-27 -110 -34 -134 -43 -142 -5 -6 -9 -19 -9 -30 0 -12 -7 -33 -14 -48 -12 -23 -15 -104 -16 -435 -1 -225 -1 -415 0 -423 2 -20 39 89 40 115 0 11 7 33 15 49 8 15 15 38 15 50 0 11 7 34 15 50 13 24 15 96 17 437 1 225 -1 411 -4 414 -3 4 -11 -13 -16 -37z"/> <path d="M12215 3709 c-8 -12 -11 -919 -3 -919 4 0 176 0 381 0 l372 -1 0 461 0 460 -373 3 c-206 1 -375 -1 -377 -4z m604 -85 c60 -30 61 -33 60 -329 -1 -149 -1 -290 0 -315 1 -39 -3 -50 -29 -75 l-31 -30 -228 1 c-190 0 -233 3 -253 16 -39 26 -48 102 -48 399 0 239 2 268 19 299 l18 35 194 5 c107 3 210 7 230 8 20 1 50 -5 68 -14z"/> </g> </svg>