<?xml version="1.0" encoding="UTF-8"?>
<svg version="1.1" xmlns="http://www.w3.org/2000/svg" width="1024" height="1024">
<path d="M0 0 C4.22403893 1.59132033 7.21268961 3.54331889 10.75 6.375 C15.79066586 10.34733911 20.92913716 14.13340344 26.1875 17.8125 C32.13533191 21.97886866 38.05465666 26.17975857 43.9375 30.4375 C44.68273926 30.97665039 45.42797852 31.51580078 46.19580078 32.07128906 C49.22155501 34.2615203 52.24600152 36.45355379 55.27050781 38.64550781 C57.53391002 40.28532956 59.79794547 41.92426997 62.0625 43.5625 C62.80822266 44.10197266 63.55394531 44.64144531 64.32226562 45.19726562 C69.33416098 48.81575828 74.37765629 52.38647399 79.4375 55.9375 C86.34034679 60.78387201 93.13476019 65.76606348 99.91162109 70.78662109 C105.77094885 75.1181551 111.6943357 79.34780111 117.65844727 83.53344727 C125.06851717 88.7374724 132.40152023 94.0461951 139.73388672 99.35888672 C144.23696034 102.62000079 148.74586107 105.87305515 153.25415039 109.12695312 C156.98253303 111.81852954 160.70861679 114.5131657 164.4296875 117.21484375 C174.6316217 124.61554225 184.91627773 131.88941081 195.25976562 139.09082031 C198.24309755 141.16937125 201.22316971 143.25254885 204.203125 145.3359375 C206.28114898 146.78660306 208.35927211 148.23712659 210.4375 149.6875 C211.41485107 150.37110596 212.39220215 151.05471191 213.39916992 151.7590332 C214.31802979 152.39929443 215.23688965 153.03955566 216.18359375 153.69921875 C217.39873657 154.54746216 217.39873657 154.54746216 218.63842773 155.4128418 C220.25109118 156.49667567 221.89537239 157.53452905 223.5637207 158.53051758 C225.75866476 159.85443463 227.76518458 161.25411939 229.796875 162.8125 C233.90648609 165.93411291 238.0658834 168.97916133 242.25 172 C243.01723389 172.55397461 243.78446777 173.10794922 244.57495117 173.67871094 C253.65075467 180.21306982 262.81840095 186.61552468 272 193 C272.62245605 193.43296387 273.24491211 193.86592773 273.88623047 194.31201172 C278.82957316 197.74784033 283.78361571 201.16788594 288.75 204.5703125 C290.08341765 205.48425199 291.4167493 206.39831698 292.75 207.3125 C293.41862061 207.77092285 294.08724121 208.2293457 294.77612305 208.70166016 C300.44996128 212.6014517 306.06770112 216.57767703 311.67871094 220.56713867 C317.18433639 224.46536142 322.77524831 228.22152689 328.44360352 231.87915039 C332.89334513 234.78669026 332.89334513 234.78669026 334 237 C334.21963786 239.34565677 334.38115459 241.66817341 334.5012207 244.01953125 C334.56242961 245.14063042 334.56242961 245.14063042 334.62487507 246.28437805 C335.20872181 257.41285722 335.58094532 268.55126008 335.98046875 279.6875 C336.07455905 282.27187632 336.16880204 284.85624709 336.26318359 287.44061279 C336.49325684 293.74985138 336.72119678 300.05916537 336.94840753 306.36850762 C337.13525054 311.55531249 337.323028 316.74208284 337.51138306 321.92883301 C338.88958513 359.88422595 340.24623959 397.84038093 341.59375 435.796875 C341.62702149 436.73400393 341.66029297 437.67113285 341.69457269 438.63665962 C342.38420497 458.06225547 343.07270987 477.48789069 343.7580061 496.91364002 C344.00182314 503.82473331 344.24606729 510.73581149 344.49039268 517.64688683 C344.60809198 520.97644163 344.72561478 524.3060026 344.8429966 527.63556862 C345.41219412 543.7750752 345.98886735 559.91411143 346.61523438 576.05151367 C346.66291364 577.28528936 346.7105929 578.51906506 346.75971699 579.79022789 C346.97590355 585.37370161 347.19517388 590.95701555 347.42118835 596.5401001 C348.04909263 612.36501247 348.25072664 628.16371978 348 644 C347.32747192 643.30040161 347.32747192 643.30040161 346.64135742 642.58666992 C344.69703768 640.70713192 342.69240463 639.58868074 340.3125 638.3125 C339.50425781 637.87550781 338.69601562 637.43851563 337.86328125 636.98828125 C337.24839844 636.66214844 336.63351562 636.33601562 336 636 C336 635.34 336 634.68 336 634 C334.68 633.67 333.36 633.34 332 633 C332 632.34 332 631.68 332 631 C331.319375 630.773125 330.63875 630.54625 329.9375 630.3125 C326.79494004 628.90837746 324.42071244 627.16066167 321.74609375 625.0234375 C319.7621693 623.66288669 319.7621693 623.66288669 316 624 C315.938125 623.13375 315.938125 623.13375 315.875 622.25 C314.79449761 619.47156527 313.27755684 618.63844413 310.78979492 617.11791992 C308.87221659 615.92018548 307.09898265 614.6084383 305.30078125 613.23828125 C301.16431579 610.11187743 296.96442532 607.08252104 292.75 604.0625 C286.02202586 599.22544516 279.36698113 594.30017105 272.75 589.3125 C265.51638816 583.86282996 258.21643038 578.53116581 250.82519531 573.29833984 C247.28613511 570.78085427 243.76933039 568.23245479 240.25 565.6875 C239.49187012 565.1394873 238.73374023 564.59147461 237.95263672 564.02685547 C236.4064955 562.90912761 234.86043479 561.79128838 233.31445312 560.67333984 C229.54406981 557.94736861 225.77196306 555.22378466 222 552.5 C220.49999141 551.41667856 218.99999142 550.33334521 217.5 549.25 C216.7575 548.71375 216.015 548.1775 215.25 547.625 C208.5 542.75 208.5 542.75 206.24951172 541.12451172 C204.75131101 540.04256821 203.25293892 538.96086198 201.75439453 537.87939453 C197.97541574 535.15172912 194.19961886 532.41984675 190.4296875 529.6796875 C182.69915068 524.06710597 174.92700222 518.53809654 167.03198242 513.15917969 C162.0203514 509.73286682 157.09558015 506.1977037 152.1875 502.625 C145.9674473 498.09826977 139.67835798 493.69418524 133.3125 489.375 C126.93669244 485.04869752 120.67168541 480.61032382 114.48486328 476.01855469 C110.1172077 472.78819961 105.67729414 469.68292277 101.1875 466.625 C95.53728824 462.77569898 89.9657447 458.83493745 84.4375 454.8125 C76.5497088 449.07576783 68.55666195 443.50086214 60.5378418 437.94921875 C55.39756886 434.38381059 50.28228879 430.79103621 45.22363281 427.1105957 C44.40733398 426.51722412 43.59103516 425.92385254 42.75 425.3125 C42.15336107 424.85839028 41.55672215 424.40428057 40.94200325 423.93640995 C37.1164171 421.07777298 33.38520486 418.60815798 29.07852173 416.53213501 C22.84694866 413.33883366 16.57678323 409.99899339 13.89678192 403.20204926 C12.22501682 395.49927096 12.34429303 387.66839521 12.44688845 379.82145739 C12.47087975 376.32409288 12.38391704 372.82943599 12.30648804 369.33309937 C12.18708288 363.47065379 12.12179604 357.60998528 12.0892334 351.74645996 C12.03556253 343.45539712 11.7748107 335.18386016 11.43847656 326.89941406 C11.38533767 325.58952357 11.33219877 324.27963308 11.27744961 322.93004894 C11.16891147 320.27939165 11.05973891 317.62876026 10.94993401 314.97815514 C10.67267321 308.1813285 10.44520626 301.38268455 10.2121582 294.58422852 C10.14000684 292.49538926 10.06767314 290.40655637 9.99532825 288.31772381 C9.94649099 286.90742862 9.89770506 285.49713165 9.84896964 284.08683294 C9.37994575 270.52152648 8.89681381 256.95670974 8.41465306 243.39186502 C8.33205124 241.06696874 8.24958724 238.74206762 8.16714287 236.41716576 C7.36260218 213.74401632 6.51860959 191.07261468 5.63671875 168.40234375 C5.60875151 167.68306198 5.58078426 166.96378021 5.55196953 166.22270203 C4.99004752 151.77545785 4.422433 137.32844184 3.84998703 122.88161087 C2.83773781 97.31817468 1.85784784 71.75400209 0.99037743 46.18522453 C0.90175762 43.57713152 0.81238615 40.96906392 0.72219276 38.36102486 C-0.16356342 12.64168459 -0.16356342 12.64168459 0 0 Z " fill="#000000" transform="translate(500,88)"/>
<path d="M0 0 C16.44510097 3.92027747 32.65251592 8.67658971 48.89135742 13.36523438 C51.41191814 14.0925466 53.9325077 14.81975889 56.453125 15.546875 C57.72086258 15.91296875 58.98860016 16.2790625 60.29475403 16.65625 C68.14166369 18.91697021 76.00438098 21.11152108 83.8830719 23.25872803 C88.97656309 24.64756018 94.0615389 26.06682542 99.14645386 27.48669434 C101.58230669 28.15997104 104.0214088 28.82160505 106.46365356 29.47131348 C109.86636719 30.37806525 113.25550487 31.32481209 116.64453125 32.28125 C118.15929047 32.66811981 118.15929047 32.66811981 119.70465088 33.06280518 C126.43004156 35.02209463 126.43004156 35.02209463 128.88354492 39.23168945 C129.29282756 40.81197237 129.6584172 42.40371445 130 44 C130.47424091 45.74375552 130.94889403 47.48740445 131.42853642 49.22968197 C132.40067231 52.8128178 133.30389146 56.41362269 134.21875 60.01171875 C134.63304979 61.62817754 135.04766994 63.24455425 135.46258545 64.8608551 C136.58141945 69.22522526 137.69404685 73.59115473 138.80500793 77.95753479 C139.50220592 80.69616497 140.20099565 83.43438429 140.90026855 86.17248535 C147.79387147 113.17096471 154.57393328 140.19693656 161.25 167.25 C161.44111359 168.02378872 161.63222717 168.79757744 161.82913208 169.5948143 C167.16133613 191.18537651 172.3510807 212.80737525 177.45523834 234.45293427 C179.79761264 244.38591747 182.15787236 254.31461431 184.53125 264.24023438 C185.0188928 266.28223858 185.50517619 268.3245678 185.99023438 270.3671875 C187.18701806 275.4056154 188.39872439 280.43889105 189.65283203 285.46337891 C190.54614031 289.05169193 191.34250751 292.6401629 192.06201172 296.26708984 C193.68002099 304.54804365 193.68002099 304.54804365 198.42773438 311.29492188 C201.44902638 312.97158426 204.33417203 314.07758238 207.625 315.125 C208.73713867 315.54418701 209.84927734 315.96337402 210.99511719 316.39526367 C213.24821455 317.24300367 215.5114237 318.0643794 217.78417969 318.85791016 C222.35910526 320.48268254 226.79402648 322.39058855 231.25 324.3125 C232.65084808 324.89239495 234.05188649 325.47183035 235.453125 326.05078125 C239.00463551 327.54518308 242.49635516 329.14877116 245.98828125 330.77734375 C253.15584042 334.10569532 260.41257366 337.20620633 267.6862793 340.29415894 C279.77065155 345.42503714 291.81395517 350.6074003 303.69116211 356.20605469 C304.89591187 356.76728027 304.89591187 356.76728027 306.125 357.33984375 C307.14980469 357.82505493 307.14980469 357.82505493 308.1953125 358.32006836 C310.14647287 359.17628293 310.14647287 359.17628293 313 359 C313 359.66 313 360.32 313 361 C313.83450684 361.26031006 314.66901367 361.52062012 315.52880859 361.78881836 C319.30820866 363.10754137 322.91207135 364.69768995 326.5390625 366.37890625 C327.25279526 366.70660507 327.96652802 367.03430389 328.70188904 367.37193298 C331.01088425 368.43267211 333.31793245 369.49757573 335.625 370.5625 C338.8236587 372.03377166 342.02319996 373.50312004 345.22265625 374.97265625 C346.00170822 375.33086456 346.78076019 375.68907288 347.5834198 376.05813599 C353.06061392 378.57490751 358.55477754 381.05075857 364.0625 383.5 C374.48414129 388.15268182 384.78931266 393.05563461 395.10839844 397.93017578 C403.65287644 401.96483091 412.21834754 405.94695341 420.8125 409.875 C435.52465245 416.61704355 450.03858721 423.76651767 464.5783844 430.87011719 C470.70429626 433.86088686 476.8459281 436.81758251 483 439.75 C491.57079252 443.83702744 500.13358257 447.94028649 508.6875 452.0625 C509.30284607 452.35872253 509.91819214 452.65494507 510.55218506 452.96014404 C519.45732995 457.24913698 528.32225092 461.61204212 537.1003418 466.15649414 C537.84324463 466.53539795 538.58614746 466.91430176 539.3515625 467.3046875 C539.98916504 467.63452637 540.62676758 467.96436523 541.28369141 468.30419922 C543.15470522 469.18785255 543.15470522 469.18785255 546 469 C546.61875 469.6496875 546.61875 469.6496875 547.25 470.3125 C549.82261344 472.79323439 552.68704954 473.68732152 556 475 C555.34 475.99 554.68 476.98 554 478 C553.36707617 480.11280345 553.36707617 480.11280345 553 482 C551.92165894 482.14912842 551.92165894 482.14912842 550.8215332 482.30126953 C547.62007226 483.09408611 545.58684371 484.34251721 542.85546875 486.1796875 C537.45556583 489.72424842 531.94637332 492.96877819 526.3125 496.125 C525.31758545 496.68356689 524.3226709 497.24213379 523.29760742 497.81762695 C520.20152275 499.55074414 517.10143802 501.27648376 514 503 C513.07058594 503.51836426 512.14117188 504.03672852 511.18359375 504.57080078 C496.64736883 512.65308658 481.84561506 520.14018631 466.95458984 527.53979492 C456.93590356 532.51933664 446.97962902 537.59197909 437.11425781 542.87011719 C425.69149501 548.97456825 414.21384989 554.95204007 402.61035156 560.70507812 C396.75741433 563.60855541 390.90882215 566.52072986 385.0625 569.4375 C384.40629669 569.76484131 383.75009338 570.09218262 383.07400513 570.42944336 C374.13459227 574.89245417 365.24287843 579.43026019 356.4453125 584.16796875 C353.86386445 585.54064351 351.28137073 586.90472875 348.6796875 588.23828125 C348.02468262 588.57512939 347.36967773 588.91197754 346.69482422 589.2590332 C345 590 345 590 343 590 C342.67 590.99 342.34 591.98 342 593 C341.01 593 340.02 593 339 593 C337.18898356 593.68530545 337.18898356 593.68530545 335.2890625 594.67724609 C334.54978516 595.04538422 333.81050781 595.41352234 333.04882812 595.79281616 C332.24896484 596.1989212 331.44910156 596.60502625 330.625 597.0234375 C329.78646484 597.44364166 328.94792969 597.86384583 328.08398438 598.29678345 C326.29709706 599.19359571 324.51165414 600.09329071 322.72753906 600.99560547 C320.06869909 602.34025691 317.40595167 603.67685373 314.7421875 605.01171875 C300.77631587 612.02644952 286.9384759 619.27458125 273.16456604 626.65827942 C266.35499041 630.30324786 259.51642162 633.7005457 252.44140625 636.80859375 C249.8965034 637.88658732 249.8965034 637.88658732 248 640 C246.74687555 640.66972167 245.46787199 641.29175453 244.17578125 641.8828125 C243.01526245 642.42047241 243.01526245 642.42047241 241.83129883 642.96899414 C241.00009521 643.35047607 240.1688916 643.73195801 239.3125 644.125 C233.22786823 646.95922823 227.21228548 649.86005616 221.3125 653.0625 C215.48289719 656.2263085 209.60270615 659.26250409 203.65014648 662.18920898 C200.71948785 663.63043928 197.8342266 665.09242993 194.98046875 666.68359375 C194.12066406 667.15925781 193.26085937 667.63492188 192.375 668.125 C191.66085937 668.54007813 190.94671875 668.95515625 190.2109375 669.3828125 C185.03612356 670.82737187 179.41511101 666.82889834 174.86328125 664.4921875 C173.43845982 663.77021958 172.01348533 663.04855364 170.58837891 662.32714844 C169.84090393 661.94731812 169.09342896 661.56748779 168.32330322 661.17614746 C164.34434322 659.16184142 160.34882721 657.18087208 156.35546875 655.1953125 C154.67110892 654.35569949 152.98686531 653.51585329 151.30273438 652.67578125 C148.75046919 651.40269606 146.19792782 650.13018738 143.64428711 648.85986328 C134.66638096 644.39294241 125.7204081 639.88216106 116.86328125 635.1796875 C105.02072937 628.89797456 93.00388794 622.96567323 81 617 C76.51958506 614.77333048 72.04064191 612.54373679 67.5625 610.3125 C66.58273193 609.82676514 65.60296387 609.34103027 64.59350586 608.84057617 C58.44645895 605.77743025 52.36072541 602.61261477 46.29296875 599.39648438 C35.68010907 593.78199292 24.94673987 588.41584594 14.20031738 583.06257629 C10.65566399 581.29675513 7.11232052 579.52832124 3.56933594 577.75915527 C-3.95256949 574.00368343 -11.47618252 570.25163935 -19 566.5 C-27.13135428 562.44542149 -35.26237613 558.39018349 -43.3914299 554.33099413 C-47.44763444 552.30572285 -51.50539638 550.28359468 -55.56347656 548.26208496 C-65.93078292 543.09033807 -76.25699084 537.86003654 -86.4932003 532.43304157 C-92.89792736 529.03956744 -99.35346937 525.76286737 -105.84553909 522.53964806 C-107.74925629 521.59441852 -109.65153791 520.64634696 -111.55355835 519.69770813 C-115.57621008 517.69196747 -119.60047692 515.68948256 -123.625 513.6875 C-128.33604263 511.3438965 -133.0463623 508.99886054 -137.75501633 506.6504612 C-139.60909024 505.72661041 -141.46436908 504.80521418 -143.31973267 503.88395691 C-149.63471602 500.73562037 -155.87483323 497.50475091 -162 494 C-160.55678058 491.11356116 -158.64945398 490.74275123 -155.7265625 489.41796875 C-154.60531982 488.90476074 -153.48407715 488.39155273 -152.32885742 487.86279297 C-151.72625092 487.59029724 -151.12364441 487.31780151 -150.5027771 487.03704834 C-147.29642546 485.58642318 -144.09992947 484.11435259 -140.90234375 482.64453125 C-140.243517 482.34228638 -139.58469025 482.0400415 -138.90589905 481.7286377 C-132.29493664 478.68979317 -125.73708174 475.54379902 -119.1875 472.375 C-118.07012451 471.83520508 -116.95274902 471.29541016 -115.80151367 470.73925781 C-113.59206945 469.67150744 -111.38283634 468.60332009 -109.17382812 467.53466797 C-101.47240031 463.81073141 -93.76127002 460.10813525 -86.03173828 456.44287109 C-83.87131359 455.41467735 -81.71373362 454.38049732 -79.55810547 453.34228516 C-76.00317576 451.63172583 -72.440005 449.93944311 -68.875 448.25 C-67.76568115 447.71173584 -66.6563623 447.17347168 -65.51342773 446.61889648 C-64.47516846 446.13106689 -63.43690918 445.6432373 -62.3671875 445.140625 C-61.45050293 444.70266602 -60.53381836 444.26470703 -59.58935547 443.81347656 C-56.56609698 442.86368425 -54.99527746 443.0453001 -52 444 C-49.83762186 445.35474293 -47.84385404 446.72214397 -45.8125 448.25 C-44.57042059 449.16160563 -43.32822733 450.07305615 -42.0859375 450.984375 C-41.4269043 451.47228516 -40.76787109 451.96019531 -40.08886719 452.46289062 C-37.91777289 454.06050747 -35.73117713 455.63449054 -33.5390625 457.203125 C-26.69883341 462.10024799 -19.89032978 467.0214283 -13.25 472.1875 C-8.38072892 475.97064294 -3.43157122 479.60188381 1.60351562 483.15844727 C4.81296908 485.42792531 7.9951162 487.72716934 11.1484375 490.07421875 C11.83309082 490.58283447 12.51774414 491.0914502 13.22314453 491.61547852 C14.5525484 492.60556573 15.87915479 493.59942267 17.20263672 494.59741211 C20.27053495 497.14681482 20.27053495 497.14681482 24 498 C25.14907941 499.15553492 26.29475275 500.31462002 27.42480469 501.48876953 C30.54491789 504.48218254 34.127012 506.90879963 37.625 509.4375 C39.33602129 510.6860831 41.0469564 511.93478431 42.7578125 513.18359375 C44.06540527 514.13468018 44.06540527 514.13468018 45.39941406 515.10498047 C49.44533469 518.05320014 53.47216197 521.02715183 57.5 524 C59.08323091 525.16680565 60.66656454 526.33347195 62.25 527.5 C71.74999999 534.49999999 71.74999999 534.49999999 74.12695312 536.25146484 C75.70374329 537.41329315 77.28056599 538.5750773 78.85742188 539.73681641 C82.91613927 542.72714107 86.97421743 545.7183273 91.03125 548.7109375 C92.68745422 549.93235375 94.34370361 551.15370875 96 552.375 C96.80219971 552.96651855 97.60439941 553.55803711 98.4309082 554.16748047 C102.50501725 557.16936601 106.58736952 560.15868736 110.6875 563.125 C115.01757909 566.26264193 119.29219329 569.46941008 123.5625 572.6875 C131.67177386 578.79668913 139.89581583 584.7415515 148.14746094 590.65649414 C149.48782822 591.62856071 150.80179218 592.63738419 152.09790039 593.66772461 C153.91324289 595.20480222 153.91324289 595.20480222 156.19921875 595.03125 C162.98931801 593.58155848 169.61924308 591.73331525 176.2487793 589.67773438 C179.2718193 588.74746142 181.81689358 588 185 588 C185.33 587.34 185.66 586.68 186 586 C188.30430709 585.30868877 190.55945706 584.73379096 192.90234375 584.20703125 C199.00135215 582.75947102 205.04452373 581.19068175 211.06640625 579.44921875 C211.83490402 579.22714249 212.60340179 579.00506622 213.39518738 578.77626038 C215.78512913 578.08284797 218.17393314 577.38563262 220.5625 576.6875 C221.79702408 576.32774582 221.79702408 576.32774582 223.05648804 575.96072388 C227.96521246 574.53024931 232.87201608 573.09334542 237.77758789 571.65209961 C239.84134966 571.04655114 241.90585224 570.44361929 243.97070312 569.84179688 C247.25397777 568.88245666 250.53391326 567.91272005 253.8125 566.9375 C255.22414429 566.52600708 255.22414429 566.52600708 256.66430664 566.10620117 C257.50340576 565.85330322 258.34250488 565.60040527 259.20703125 565.33984375 C259.9235083 565.12706787 260.63998535 564.91429199 261.37817383 564.69506836 C263.21102749 564.11623023 263.21102749 564.11623023 264 562 C265.73364258 561.74414062 265.73364258 561.74414062 268.08203125 561.65625 C275.55881713 561.04168337 282.55327878 558.68252851 289.6875 556.5 C291.20403558 556.04372706 292.72088768 555.58850501 294.23803711 555.13427734 C297.33836701 554.20564296 300.43758251 553.27342095 303.53613281 552.33886719 C310.03069471 550.38509954 316.54642694 548.50565699 323.0625 546.625 C325.60040039 545.88980079 328.1381957 545.15425261 330.67578125 544.41796875 C331.32749802 544.22890457 331.97921478 544.03984039 332.65068054 543.845047 C352.80431747 537.99497753 372.9473049 532.10593968 393.0625 526.125 C405.09192713 522.55480566 417.12816477 519.00762037 429.16940308 515.47747803 C431.38216386 514.8280674 433.594509 514.1772388 435.806427 513.52496338 C438.92192352 512.60655532 442.03888823 511.69330357 445.15625 510.78125 C446.10495468 510.50042572 447.05365936 510.21960144 448.03111267 509.93026733 C448.9057869 509.67548615 449.78046112 509.42070496 450.68164062 509.15820312 C451.4462561 508.93362427 452.21087158 508.70904541 452.99865723 508.47766113 C455 508 455 508 458 508 C458.33 507.34 458.66 506.68 459 506 C461.07421875 505.40234375 461.07421875 505.40234375 463.6875 504.9375 C464.58726562 504.77121094 465.48703125 504.60492187 466.4140625 504.43359375 C468.45849371 504.09079637 470.50964925 503.7881194 472.5625 503.5 C473.366875 503.335 474.17125 503.17 475 503 C475.33 502.34 475.66 501.68 476 501 C478.01641251 500.52490606 480.03655509 500.06338363 482.06689453 499.65185547 C488.26962111 498.27335705 494.34296983 496.35314234 500.4375 494.5625 C501.80526409 494.16315637 503.17310223 493.76406627 504.54101562 493.36523438 C507.16799078 492.5988666 509.7932919 491.82712134 512.41748047 491.05126953 C514.66246564 490.39249168 516.91104314 489.74570637 519.16455078 489.11669922 C520.52362549 488.73215576 520.52362549 488.73215576 521.91015625 488.33984375 C523.07430054 488.01874634 523.07430054 488.01874634 524.26196289 487.69116211 C526.20688756 487.1411133 526.20688756 487.1411133 527 485 C523.37114676 484.84850702 523.37114676 484.84850702 520 486 C518.11527141 486.15344209 516.22572126 486.24959571 514.3359375 486.31640625 C513.21445312 486.35830078 512.09296875 486.40019531 510.9375 486.44335938 C509.761875 486.48267578 508.58625 486.52199219 507.375 486.5625 C506.19164062 486.60568359 505.00828125 486.64886719 503.7890625 486.69335938 C500.85949672 486.79967426 497.92984412 486.90170642 495 487 C495.33 487.99 495.66 488.98 496 490 C494.79964111 489.80672119 493.59928223 489.61344238 492.36254883 489.41430664 C485.88301416 488.70552508 479.64012772 489.58555097 473.19921875 490.37109375 C471.82750422 490.53098361 470.45568481 490.68997587 469.08377075 490.84814453 C465.38565309 491.27704136 461.68910728 491.71829716 457.99274063 492.16199875 C454.11992288 492.62484246 450.24581507 493.07662388 446.37182617 493.52954102 C439.89138235 494.28853006 433.41178105 495.05438524 426.93261719 495.82421875 C417.87833311 496.89943686 408.82164873 497.95328789 399.76423454 499.00176811 C393.53244286 499.72365359 387.30111556 500.44953967 381.06973648 501.17497635 C378.81196331 501.43756242 376.55410557 501.69941147 374.29623413 501.96115112 C370.75571618 502.37189435 367.21560415 502.78597971 363.67577744 503.20263672 C361.75733928 503.42769203 359.83852782 503.64955801 357.91970825 503.87133789 C356.78193939 504.00588379 355.64417053 504.14042969 354.47192383 504.27905273 C353.48170731 504.39482162 352.49149078 504.51059052 351.4712677 504.62986755 C348.87386759 504.94636722 348.87386759 504.94636722 346 506 C343.72509196 506.17153903 341.44684572 506.29970434 339.16796875 506.40625 C329.77095296 506.91636615 320.46150707 508.01555539 311.12329102 509.15673828 C308.27874856 509.50412182 305.43341545 509.84435988 302.58789062 510.18359375 C300.76297157 510.40323689 298.93809989 510.62327417 297.11328125 510.84375 C296.27058182 510.94482056 295.42788239 511.04589111 294.55964661 511.15002441 C289.57797721 511.76132916 284.77871232 512.40709589 280 514 C277.87423961 513.98950242 275.74846772 513.97730131 273.62280273 513.95458984 C268.80652546 514.03797694 264.05562845 514.71050592 259.28125 515.3125 C258.1833313 515.44567627 257.0854126 515.57885254 255.95422363 515.71606445 C252.46883905 516.13896323 248.98434424 516.56861879 245.5 517 C240.90697476 517.56864209 236.31316405 518.13020289 231.71875 518.6875 C230.67787231 518.81874268 229.63699463 518.94998535 228.5645752 519.08520508 C222.65817884 519.80091372 216.94974099 520.12954335 211 520 C210.67 520.66 210.34 521.32 210 522 C208.50291504 522.0626001 208.50291504 522.0626001 206.97558594 522.12646484 C194.760297 522.70450745 182.77557728 524.25748454 170.67871094 525.99414062 C168.18775786 526.34931274 165.69557512 526.69457932 163.203125 527.0390625 C162.45105774 527.15045563 161.69899048 527.26184875 160.9241333 527.37661743 C155.4029804 528.13530508 151.82409769 528.25660063 147.1875 525.0625 C146.465625 524.381875 145.74375 523.70125 145 523 C145 522.34 145 521.68 145 521 C144.44368896 520.76966064 143.88737793 520.53932129 143.31420898 520.30200195 C140.36889304 518.64493159 138.34827939 516.57222713 135.97265625 514.16796875 C135.50186142 513.69434402 135.03106659 513.2207193 134.54600525 512.73274231 C133.0467211 511.22231245 131.5545342 509.70508851 130.0625 508.1875 C129.0636171 507.17857482 128.06427249 506.17010655 127.06445312 505.16210938 C125.21462839 503.29601596 123.36812679 501.42685112 121.52368164 499.55541992 C117.2737134 495.2520033 112.98882914 491.05442632 108.5 487 C101.262571 480.40215273 94.38752295 473.44577144 87.51171875 466.47460938 C86.65578125 465.61029297 85.79984375 464.74597656 84.91796875 463.85546875 C84.16281982 463.08871826 83.4076709 462.32196777 82.62963867 461.53198242 C80.51890947 459.49963885 78.37948848 457.5767697 76.16357422 455.66357422 C72.08255475 452.12029301 68.2602791 448.3722455 64.46484375 444.52734375 C63.78249161 443.84120499 63.10013947 443.15506622 62.39710999 442.44813538 C60.24142918 440.28036696 58.08904985 438.10936802 55.9375 435.9375 C53.09541853 433.06864553 50.24991936 430.20324378 47.40234375 427.33984375 C46.76360825 426.69280991 46.12487274 426.04577606 45.46678162 425.37913513 C41.96459967 421.85812162 38.38287243 418.52356328 34.5639801 415.34742737 C32.95015731 413.95705866 31.41955238 412.59010886 30 411 C30 410.34 30 409.68 30 409 C29.4225 408.7525 28.845 408.505 28.25 408.25 C25.67060021 406.81700012 23.93878408 405.21575324 22 403 C22 402.34 22 401.68 22 401 C21.4225 400.7525 20.845 400.505 20.25 400.25 C17.67060021 398.81700012 15.93878408 397.21575324 14 395 C14 394.34 14 393.68 14 393 C13.34 393 12.68 393 12 393 C12 392.34 12 391.68 12 391 C10.68 390.34 9.36 389.68 8 389 C8 388.34 8 387.68 8 387 C7.34 387 6.68 387 6 387 C6 386.34 6 385.68 6 385 C5.34 385 4.68 385 4 385 C4 384.34 4 383.68 4 383 C3.34 383 2.68 383 2 383 C0.60508728 381.58261108 0.60508728 381.58261108 -1.03540039 379.59130859 C-5.2488322 374.63980445 -9.80719774 370.10238833 -14.43359375 365.5390625 C-16.23385258 363.7514316 -18.03397904 361.9636674 -19.83398438 360.17578125 C-22.65234679 357.38238196 -25.47212388 354.59043251 -28.29467773 351.80126953 C-31.0327915 349.0931722 -33.76480702 346.37904261 -36.49609375 343.6640625 C-37.34908554 342.82453033 -38.20207733 341.98499817 -39.08091736 341.12002563 C-39.85915359 340.34516815 -40.63738983 339.57031067 -41.43920898 338.77197266 C-42.12869125 338.08994781 -42.81817352 337.40792297 -43.52854919 336.70523071 C-45 335 -45 335 -45 333 C-45.84498047 332.66162109 -45.84498047 332.66162109 -46.70703125 332.31640625 C-49.6679933 330.61650129 -51.43552526 328.50765014 -53.6875 325.9375 C-61.85586951 316.77141225 -70.6477247 308.17976943 -79.4453125 299.62109375 C-81.75663539 297.2496906 -83.95347669 294.81883598 -86.15234375 292.34375 C-91.93432595 285.87963056 -98.12819004 279.85432956 -104.33007812 273.796875 C-105.62268555 272.52070312 -105.62268555 272.52070312 -106.94140625 271.21875 C-107.72201416 270.45498047 -108.50262207 269.69121094 -109.30688477 268.90429688 C-111 267 -111 267 -111 265 C-111.66 265 -112.32 265 -113 265 C-114.3046875 263.671875 -114.3046875 263.671875 -115.875 261.75 C-119.68659953 257.23434706 -123.83247727 253.13057084 -128.08740234 249.03808594 C-129.42774345 247.72804226 -130.71855875 246.36771234 -132 245 C-132 244.34 -132 243.68 -132 243 C-132.99 242.67 -133.98 242.34 -135 242 C-132.23750453 239.23750453 -130.12632126 239.41687675 -126.26953125 238.9296875 C-125.26656258 238.80075607 -125.26656258 238.80075607 -124.24333191 238.66921997 C-122.82573707 238.48879562 -121.4076058 238.31254454 -119.98901367 238.14013672 C-117.83701628 237.8779865 -115.6871051 237.60225885 -113.53710938 237.32421875 C-107.32590224 236.54153333 -101.27387483 235.89613291 -95 236 C-95 235.34 -95 234.68 -95 234 C-93.84164139 234.01893311 -92.68328278 234.03786621 -91.48982239 234.05737305 C-87.33274072 234.05480738 -83.27745781 233.65019118 -79.1628418 233.08203125 C-78.05641075 232.93572769 -78.05641075 232.93572769 -76.92762756 232.78646851 C-74.51748843 232.4666246 -72.10839012 232.13954618 -69.69921875 231.8125 C-68.01396877 231.58778684 -66.32864953 231.36359261 -64.64326477 231.13989258 C-60.22651686 230.55251302 -55.81058081 229.95925115 -51.39483643 229.36437988 C-44.31034278 228.41087926 -37.22472085 227.46582014 -30.13895607 226.52182007 C-27.66639044 226.19146439 -25.19422169 225.85825616 -22.72209167 225.5246582 C-21.21146593 225.32235643 -19.70083105 225.12012288 -18.19018555 224.91796875 C-17.15923264 224.77770767 -17.15923264 224.77770767 -16.10745239 224.63461304 C-13.37465133 224.27080273 -10.7613513 224 -8 224 C-6.65267944 225.50218201 -6.65267944 225.50218201 -5.26708984 227.64233398 C-4.74092575 228.44352158 -4.21476166 229.24470917 -3.6726532 230.07017517 C-3.10778702 230.9532283 -2.54292084 231.83628143 -1.9609375 232.74609375 C-1.36775223 233.65472672 -0.77456696 234.56335968 -0.16340637 235.49952698 C1.11116987 237.45431872 2.38101183 239.41220374 3.64663696 241.37280273 C6.29333562 245.47282381 8.96200684 249.55835405 11.629776 253.64468384 C12.95039326 255.66798923 14.26984458 257.69205612 15.58811951 259.71688843 C20.2472976 266.86967399 24.97897523 273.96354478 29.8125 281 C39.65708168 295.36685422 49.27925781 309.88155868 58.92675781 324.38110352 C59.42590698 325.1312674 59.92505615 325.88143127 60.43933105 326.65432739 C61.50642049 328.25815405 62.57339087 329.86205992 63.64025879 331.46603394 C72.66631726 345.0336315 81.7539871 358.55858532 90.875 372.0625 C105.96811806 394.41326719 105.96811806 394.41326719 113 405 C113.87211125 406.30878343 114.74447341 407.61739973 115.6171875 408.92578125 C116.78709254 410.68051283 117.95684773 412.43534347 119.1262207 414.19042969 C121.28505271 417.43010577 123.44650502 420.6679746 125.61328125 423.90234375 C126.03963867 424.54107422 126.46599609 425.17980469 126.90527344 425.83789062 C127.75508484 427.10516459 128.61115169 428.36826769 129.47363281 429.62695312 C131.41246645 432.4798733 133.10081901 435.20625383 134.62109375 438.31640625 C136.79842734 442.65410719 138.29621518 445.40622323 143.00390625 447.046875 C146.44975825 447.5292212 149.77933827 447.77372423 153.25146484 447.88623047 C156.50565666 448.02093054 159.74177264 448.2744432 162.98828125 448.53515625 C175.46301162 449.63517546 175.46301162 449.63517546 187.96875 449.9296875 C191.50539118 449.87836814 194.86125147 450.38607419 198.35473633 450.92553711 C205.67435514 451.99541151 212.98274558 452.68303876 220.35546875 453.26171875 C221.74582104 453.37393904 223.13614508 453.48650984 224.52644348 453.59939575 C228.29222373 453.90392366 232.05843249 454.20279886 235.82476807 454.50037003 C239.01509499 454.75304609 242.20517145 455.0088136 245.39526176 455.26445675 C256.92923302 456.18830043 268.46444471 457.09617701 280 458 C280.97717232 458.0765834 281.95434464 458.15316681 282.96112823 458.23207092 C297.30224389 459.3556085 311.64398358 460.47096318 325.9862709 461.57944107 C328.98057173 461.81099757 331.97483154 462.04307886 334.96908569 462.27523804 C339.73173926 462.64425969 344.4945604 463.01104585 349.25751305 463.37618637 C351.00406418 463.51033576 352.75056866 463.64509425 354.49701881 463.78055191 C363.25305656 464.4590522 372.00888282 465.0884845 380.77734375 465.5847168 C381.50702866 465.62646688 382.23671356 465.66821695 382.98851013 465.71123219 C388.66269983 466.01903688 394.31924524 466.11261408 400 466 C400 466.33 400 466.66 400 467 C412.68718857 467.94173246 425.37472144 468.87875107 438.0625 469.8125 C438.99752728 469.88134274 439.93255455 469.95018547 440.89591599 470.02111435 C465.80807101 471.85448833 490.71958465 473.65044752 515.65454102 475.1496582 C516.51861572 475.2021875 517.38269043 475.2547168 518.27294922 475.30883789 C519.81798145 475.40230356 521.36313514 475.49380173 522.90844727 475.58251953 C527.96072543 475.88659183 532.97436211 476.40192199 538 477 C538 476.01 538 475.02 538 474 C536.28683594 473.64228516 536.28683594 473.64228516 534.5390625 473.27734375 C527.08906995 471.6184092 519.73897284 469.56219175 512.375 467.5625 C511.57033295 467.3447995 510.76566589 467.127099 509.93661499 466.90280151 C499.22947203 464.00521987 488.54380181 461.03862733 477.87530518 458.00198364 C463.20642691 453.83020948 448.51909478 449.76214781 433.76171875 445.9140625 C432.87718521 445.68289419 431.99265167 445.45172588 431.08131409 445.21355247 C409.47334842 439.56842089 387.82696957 434.07509009 366.17219162 428.61272049 C362.93558309 427.79625012 359.69912509 426.97918493 356.462677 426.16207886 C323.76852232 417.91040362 291.04119722 409.81953044 258.2537384 401.947052 C243.19569637 398.33118265 228.1469009 394.67723335 213.09908009 391.01909161 C208.15724996 389.81773754 203.21502633 388.61802406 198.27241516 387.41988754 C195.21482392 386.67838611 192.15755461 385.93556407 189.1003685 385.19239426 C187.68694531 384.84906488 186.27339855 384.50624371 184.85971451 384.16399002 C181.69877248 383.39854281 178.54066236 382.62475114 175.3868103 381.83050537 C173.19247001 381.29241459 170.98774666 380.79443376 168.77359009 380.3447876 C161.63402258 378.77473613 161.63402258 378.77473613 158.52050781 374.97021484 C157.95683595 373.73511155 157.43599469 372.47981219 156.953125 371.2109375 C156.50528656 370.18742439 156.50528656 370.18742439 156.04840088 369.14323425 C155.07730345 366.90141769 154.16479427 364.64030233 153.25 362.375 C152.57256789 360.78587838 151.8908521 359.19857672 151.20507812 357.61303711 C149.79666527 354.34640448 148.40793178 351.0724475 147.03320312 347.79150391 C144.30668981 341.31887287 141.36572005 334.94796685 138.42404175 328.57110596 C124.30189302 297.87354048 110.80781929 266.87985745 97.27593994 235.91906738 C96.40476881 233.92602119 95.53329552 231.93310705 94.66156006 229.94030762 C80.79372845 198.23661892 67.21719864 166.42733845 54.00927734 134.4430542 C52.57128724 130.96225898 51.12956053 127.48301662 49.6875 124.00390625 C47.80568156 119.46213478 45.92705503 114.91906457 44.05078125 110.375 C41.68211186 104.64209865 39.30146872 98.91424944 36.91796875 93.1875 C30.28320664 77.23989451 23.65758522 61.29054005 17.25 45.25 C16.78529297 44.08670166 16.32058594 42.92340332 15.84179688 41.72485352 C13.21296896 35.11551942 10.64441227 28.48478508 8.09814453 21.84326172 C6.87939422 18.68773346 5.61873672 15.5577133 4.3125 12.4375 C3.91675781 11.48746094 3.52101563 10.53742188 3.11328125 9.55859375 C2.05624254 7.03805682 2.05624254 7.03805682 0.85546875 4.84765625 C0 3 0 3 0 0 Z M539 475 C539 475.66 539 476.32 539 477 C541.97 477 544.94 477 548 477 C548 476.67 548 476.34 548 476 C545.03 475.67 542.06 475.34 539 475 Z " fill="#000000" transform="translate(287,254)"/>
<path d="M0 0 C16.44510097 3.92027747 32.65251592 8.67658971 48.89135742 13.36523438 C51.41191814 14.0925466 53.9325077 14.81975889 56.453125 15.546875 C57.72086258 15.91296875 58.98860016 16.2790625 60.29475403 16.65625 C68.14166369 18.91697021 76.00438098 21.11152108 83.8830719 23.25872803 C88.97656309 24.64756018 94.0615389 26.06682542 99.14645386 27.48669434 C101.58230669 28.15997104 104.0214088 28.82160505 106.46365356 29.47131348 C109.86636719 30.37806525 113.25550487 31.32481209 116.64453125 32.28125 C118.15929047 32.66811981 118.15929047 32.66811981 119.70465088 33.06280518 C126.43004156 35.02209463 126.43004156 35.02209463 128.88354492 39.23168945 C129.29282756 40.81197237 129.6584172 42.40371445 130 44 C130.47424091 45.74375552 130.94889403 47.48740445 131.42853642 49.22968197 C132.40067231 52.8128178 133.30389146 56.41362269 134.21875 60.01171875 C134.63304979 61.62817754 135.04766994 63.24455425 135.46258545 64.8608551 C136.58141945 69.22522526 137.69404685 73.59115473 138.80500793 77.95753479 C139.50220592 80.69616497 140.20099565 83.43438429 140.90026855 86.17248535 C147.79387147 113.17096471 154.57393328 140.19693656 161.25 167.25 C161.44111359 168.02378872 161.63222717 168.79757744 161.82913208 169.5948143 C167.16133613 191.18537651 172.3510807 212.80737525 177.45523834 234.45293427 C179.79761264 244.38591747 182.15787236 254.31461431 184.53125 264.24023438 C185.0188928 266.28223858 185.50517619 268.3245678 185.99023438 270.3671875 C187.18701806 275.4056154 188.39872439 280.43889105 189.65283203 285.46337891 C190.54614031 289.05169193 191.34250751 292.6401629 192.06201172 296.26708984 C193.68002099 304.54804365 193.68002099 304.54804365 198.42773438 311.29492188 C201.44902638 312.97158426 204.33417203 314.07758238 207.625 315.125 C208.73713867 315.54418701 209.84927734 315.96337402 210.99511719 316.39526367 C213.24821455 317.24300367 215.5114237 318.0643794 217.78417969 318.85791016 C222.35910526 320.48268254 226.79402648 322.39058855 231.25 324.3125 C232.65084808 324.89239495 234.05188649 325.47183035 235.453125 326.05078125 C239.00463551 327.54518308 242.49635516 329.14877116 245.98828125 330.77734375 C253.15584042 334.10569532 260.41257366 337.20620633 267.6862793 340.29415894 C279.77065155 345.42503714 291.81395517 350.6074003 303.69116211 356.20605469 C304.89591187 356.76728027 304.89591187 356.76728027 306.125 357.33984375 C307.14980469 357.82505493 307.14980469 357.82505493 308.1953125 358.32006836 C310.14647287 359.17628293 310.14647287 359.17628293 313 359 C313 359.66 313 360.32 313 361 C313.83450684 361.26031006 314.66901367 361.52062012 315.52880859 361.78881836 C319.30820866 363.10754137 322.91207135 364.69768995 326.5390625 366.37890625 C327.25279526 366.70660507 327.96652802 367.03430389 328.70188904 367.37193298 C331.01088425 368.43267211 333.31793245 369.49757573 335.625 370.5625 C338.8236587 372.03377166 342.02319996 373.50312004 345.22265625 374.97265625 C346.00170822 375.33086456 346.78076019 375.68907288 347.5834198 376.05813599 C353.06061392 378.57490751 358.55477754 381.05075857 364.0625 383.5 C374.48414129 388.15268182 384.78931266 393.05563461 395.10839844 397.93017578 C403.65287644 401.96483091 412.21834754 405.94695341 420.8125 409.875 C435.52465245 416.61704355 450.03858721 423.76651767 464.5783844 430.87011719 C470.70429626 433.86088686 476.8459281 436.81758251 483 439.75 C494.0256347 445.00763183 505.04010221 450.28758451 516.02734375 455.625 C520.4223712 457.76002089 524.82936331 459.86440764 529.25390625 461.9375 C531.08613042 462.81209596 532.91817495 463.6870684 534.75 464.5625 C535.58362061 464.94349854 536.41724121 465.32449707 537.27612305 465.71704102 C542.77258449 468.37810605 542.77258449 468.37810605 544.015625 471.77734375 C544.00789062 472.87755859 544.00789062 472.87755859 544 474 C543.01 474.33 542.02 474.66 541 475 C541 474.34 541 473.68 541 473 C540.16114258 473.20302734 539.32228516 473.40605469 538.45800781 473.61523438 C534.47374981 474.05855481 531.4291637 473.31835669 527.671875 472.15625 C526.6260878 471.84989624 526.6260878 471.84989624 525.55917358 471.53735352 C524.06437286 471.098026 522.57122946 470.65302662 521.07965088 470.20288086 C517.91393504 469.24775016 514.74023907 468.32057287 511.56680298 467.39147949 C509.96431134 466.92196509 508.36223928 466.45101626 506.7605896 465.9786377 C500.24018634 464.05722625 493.69481468 462.24530687 487.125 460.5 C485.60036133 460.09358276 485.60036133 460.09358276 484.04492188 459.67895508 C481.88781399 459.10404672 479.73058317 458.52959947 477.57324219 457.95556641 C473.54889267 456.87936362 469.52806298 455.7906126 465.5078125 454.69921875 C463.96207705 454.27994709 462.41634137 453.86067627 460.87060547 453.44140625 C458.6435572 452.83724877 456.4165838 452.23282919 454.19000244 451.62695312 C424.27368909 443.48926702 394.25779164 435.7219007 364.20138168 428.12001801 C361.68629443 427.48388721 359.17134853 426.84719947 356.65640259 426.21051025 C323.73603192 417.8801831 290.75413889 409.81416183 257.74611759 401.83933926 C242.66569459 398.19584823 227.58907259 394.53672186 212.51361942 390.87272644 C207.62462536 389.68457015 202.73522885 388.49809112 197.84545517 387.31314754 C194.82543243 386.581005 191.80572334 385.84757511 188.78609085 385.11382484 C187.39617433 384.77635856 186.00613167 384.43941127 184.61594772 384.10304832 C181.51794925 383.35332577 178.42279189 382.59528357 175.33187866 381.81677246 C173.16177011 381.28479484 170.98118967 380.79336772 168.79141235 380.34924316 C161.63454003 378.77536843 161.63454003 378.77536843 158.52050781 374.97021484 C157.95683595 373.73511155 157.43599469 372.47981219 156.953125 371.2109375 C156.65456604 370.52859543 156.35600708 369.84625336 156.04840088 369.14323425 C155.07730345 366.90141769 154.16479427 364.64030233 153.25 362.375 C152.57256789 360.78587838 151.8908521 359.19857672 151.20507812 357.61303711 C149.79666527 354.34640448 148.40793178 351.0724475 147.03320312 347.79150391 C144.30668981 341.31887287 141.36572005 334.94796685 138.42404175 328.57110596 C124.30189302 297.87354048 110.80781929 266.87985745 97.27593994 235.91906738 C96.40476881 233.92602119 95.53329552 231.93310705 94.66156006 229.94030762 C80.79372845 198.23661892 67.21719864 166.42733845 54.00927734 134.4430542 C52.57128724 130.96225898 51.12956053 127.48301662 49.6875 124.00390625 C47.80568156 119.46213478 45.92705503 114.91906457 44.05078125 110.375 C41.68211186 104.64209865 39.30146872 98.91424944 36.91796875 93.1875 C30.28320664 77.23989451 23.65758522 61.29054005 17.25 45.25 C16.78529297 44.08670166 16.32058594 42.92340332 15.84179688 41.72485352 C13.21296896 35.11551942 10.64441227 28.48478508 8.09814453 21.84326172 C6.87939422 18.68773346 5.61873672 15.5577133 4.3125 12.4375 C3.91675781 11.48746094 3.52101563 10.53742188 3.11328125 9.55859375 C2.05624254 7.03805682 2.05624254 7.03805682 0.85546875 4.84765625 C0 3 0 3 0 0 Z " fill="#000000" transform="translate(287,254)"/>
<path d="M0 0 C2.16237814 1.35474293 4.15614596 2.72214397 6.1875 4.25 C7.42957941 5.16160563 8.67177267 6.07305615 9.9140625 6.984375 C10.5730957 7.47228516 11.23212891 7.96019531 11.91113281 8.46289062 C14.08222711 10.06050747 16.26882287 11.63449054 18.4609375 13.203125 C25.30116659 18.10024799 32.10967022 23.0214283 38.75 28.1875 C43.61927108 31.97064294 48.56842878 35.60188381 53.60351562 39.15844727 C56.81296908 41.42792531 59.9951162 43.72716934 63.1484375 46.07421875 C63.83309082 46.58283447 64.51774414 47.0914502 65.22314453 47.61547852 C66.5525484 48.60556573 67.87915479 49.59942267 69.20263672 50.59741211 C72.27053495 53.14681482 72.27053495 53.14681482 76 54 C77.14907941 55.15553492 78.29475275 56.31462002 79.42480469 57.48876953 C82.54491789 60.48218254 86.127012 62.90879963 89.625 65.4375 C91.33602129 66.6860831 93.0469564 67.93478431 94.7578125 69.18359375 C95.62954102 69.81765137 96.50126953 70.45170898 97.39941406 71.10498047 C101.44533469 74.05320014 105.47216197 77.02715183 109.5 80 C111.08323091 81.16680565 112.66656454 82.33347195 114.25 83.5 C123.75 90.5 123.75 90.5 126.12695312 92.25146484 C127.70374329 93.41329315 129.28056599 94.5750773 130.85742188 95.73681641 C134.91613927 98.72714107 138.97421743 101.7183273 143.03125 104.7109375 C144.68745422 105.93235375 146.34370361 107.15370875 148 108.375 C148.80219971 108.96651855 149.60439941 109.55803711 150.4309082 110.16748047 C154.50501725 113.16936601 158.58736952 116.15868736 162.6875 119.125 C167.01757909 122.26264193 171.29219329 125.46941008 175.5625 128.6875 C183.67177386 134.79668913 191.89581583 140.7415515 200.14746094 146.65649414 C201.48782822 147.62856071 202.80179218 148.63738419 204.09790039 149.66772461 C205.91324289 151.20480222 205.91324289 151.20480222 208.19921875 151.03125 C214.98931801 149.58155848 221.61924308 147.73331525 228.2487793 145.67773438 C231.2718193 144.74746142 233.81689358 144 237 144 C237.33 143.34 237.66 142.68 238 142 C240.30430709 141.30868877 242.55945706 140.73379096 244.90234375 140.20703125 C251.00135215 138.75947102 257.04452373 137.19068175 263.06640625 135.44921875 C263.83490402 135.22714249 264.60340179 135.00506622 265.39518738 134.77626038 C267.78512913 134.08284797 270.17393314 133.38563262 272.5625 132.6875 C273.38551605 132.44766388 274.2085321 132.20782776 275.05648804 131.96072388 C279.96521246 130.53024931 284.87201608 129.09334542 289.77758789 127.65209961 C291.84134966 127.04655114 293.90585224 126.44361929 295.97070312 125.84179688 C299.25397777 124.88245666 302.53391326 123.91272005 305.8125 122.9375 C306.75359619 122.66317139 307.69469238 122.38884277 308.66430664 122.10620117 C309.50340576 121.85330322 310.34250488 121.60040527 311.20703125 121.33984375 C311.9235083 121.12706787 312.63998535 120.91429199 313.37817383 120.69506836 C315.21102749 120.11623023 315.21102749 120.11623023 316 118 C317.73364258 117.74414062 317.73364258 117.74414062 320.08203125 117.65625 C327.55881713 117.04168337 334.55327878 114.68252851 341.6875 112.5 C343.20403558 112.04372706 344.72088768 111.58850501 346.23803711 111.13427734 C349.33836701 110.20564296 352.43758251 109.27342095 355.53613281 108.33886719 C362.03069471 106.38509954 368.54642694 104.50565699 375.0625 102.625 C377.60040039 101.88980079 380.1381957 101.15425261 382.67578125 100.41796875 C383.6533564 100.13437248 383.6533564 100.13437248 384.65068054 99.845047 C404.80431747 93.99497753 424.9473049 88.10593968 445.0625 82.125 C457.09192713 78.55480566 469.12816477 75.00762037 481.16940308 71.47747803 C483.38216386 70.8280674 485.594509 70.1772388 487.806427 69.52496338 C490.92192352 68.60655532 494.03888823 67.69330357 497.15625 66.78125 C498.10495468 66.50042572 499.05365936 66.21960144 500.03111267 65.93026733 C500.9057869 65.67548615 501.78046112 65.42070496 502.68164062 65.15820312 C503.4462561 64.93362427 504.21087158 64.70904541 504.99865723 64.47766113 C507 64 507 64 510 64 C510.33 63.34 510.66 62.68 511 62 C513.07421875 61.40234375 513.07421875 61.40234375 515.6875 60.9375 C516.58726562 60.77121094 517.48703125 60.60492187 518.4140625 60.43359375 C520.45849371 60.09079637 522.50964925 59.7881194 524.5625 59.5 C525.366875 59.335 526.17125 59.17 527 59 C527.33 58.34 527.66 57.68 528 57 C530.01641251 56.52490606 532.03655509 56.06338363 534.06689453 55.65185547 C540.26962111 54.27335705 546.34296983 52.35314234 552.4375 50.5625 C553.80526409 50.16315637 555.17310223 49.76406627 556.54101562 49.36523438 C559.16799078 48.5988666 561.7932919 47.82712134 564.41748047 47.05126953 C566.66246564 46.39249168 568.91104314 45.74570637 571.16455078 45.11669922 C572.07060059 44.86033691 572.97665039 44.60397461 573.91015625 44.33984375 C574.68625244 44.12577881 575.46234863 43.91171387 576.26196289 43.69116211 C578.20688756 43.1411133 578.20688756 43.1411133 579 41 C577.02 40.67 575.04 40.34 573 40 C573 39.67 573 39.34 573 39 C575.97 38.34 578.94 37.68 582 37 C581.67 35.68 581.34 34.36 581 33 C583.97 33 586.94 33 590 33 C589.67 31.68 589.34 30.36 589 29 C590.32 29 591.64 29 593 29 C593 29.66 593 30.32 593 31 C593.66 30.67 594.32 30.34 595 30 C595 28.68 595 27.36 595 26 C595.99 25.67 596.98 25.34 598 25 C598.350625 25.433125 598.70125 25.86625 599.0625 26.3125 C601.78485635 28.68358456 604.64758216 29.6716835 608 31 C607.34 31.99 606.68 32.98 606 34 C605.36707617 36.11280345 605.36707617 36.11280345 605 38 C604.28110596 38.09941895 603.56221191 38.19883789 602.8215332 38.30126953 C599.62007226 39.09408611 597.58684371 40.34251721 594.85546875 42.1796875 C589.45556583 45.72424842 583.94637332 48.96877819 578.3125 52.125 C577.31758545 52.68356689 576.3226709 53.24213379 575.29760742 53.81762695 C572.20152275 55.55074414 569.10143802 57.27648376 566 59 C565.07058594 59.51836426 564.14117188 60.03672852 563.18359375 60.57080078 C548.64736883 68.65308658 533.84561506 76.14018631 518.95458984 83.53979492 C508.93590356 88.51933664 498.97962902 93.59197909 489.11425781 98.87011719 C477.69149501 104.97456825 466.21384989 110.95204007 454.61035156 116.70507812 C448.75741433 119.60855541 442.90882215 122.52072986 437.0625 125.4375 C436.40629669 125.76484131 435.75009338 126.09218262 435.07400513 126.42944336 C426.13459227 130.89245417 417.24287843 135.43026019 408.4453125 140.16796875 C405.86386445 141.54064351 403.28137073 142.90472875 400.6796875 144.23828125 C400.02468262 144.57512939 399.36967773 144.91197754 398.69482422 145.2590332 C397 146 397 146 395 146 C394.67 146.99 394.34 147.98 394 149 C393.01 149 392.02 149 391 149 C389.18898356 149.68530545 389.18898356 149.68530545 387.2890625 150.67724609 C386.54978516 151.04538422 385.81050781 151.41352234 385.04882812 151.79281616 C384.24896484 152.1989212 383.44910156 152.60502625 382.625 153.0234375 C381.78646484 153.44364166 380.94792969 153.86384583 380.08398438 154.29678345 C378.29709706 155.19359571 376.51165414 156.09329071 374.72753906 156.99560547 C372.06869909 158.34025691 369.40595167 159.67685373 366.7421875 161.01171875 C352.77631587 168.02644952 338.9384759 175.27458125 325.16456604 182.65827942 C318.35499041 186.30324786 311.51642162 189.7005457 304.44140625 192.80859375 C301.8965034 193.88658732 301.8965034 193.88658732 300 196 C298.74687555 196.66972167 297.46787199 197.29175453 296.17578125 197.8828125 C295.40210205 198.24125244 294.62842285 198.59969238 293.83129883 198.96899414 C292.58449341 199.54121704 292.58449341 199.54121704 291.3125 200.125 C285.22786823 202.95922823 279.21228548 205.86005616 273.3125 209.0625 C267.48289719 212.2263085 261.60270615 215.26250409 255.65014648 218.18920898 C252.71948785 219.63043928 249.8342266 221.09242993 246.98046875 222.68359375 C246.12066406 223.15925781 245.26085937 223.63492188 244.375 224.125 C243.66085937 224.54007813 242.94671875 224.95515625 242.2109375 225.3828125 C237.03612356 226.82737187 231.41511101 222.82889834 226.86328125 220.4921875 C225.43845982 219.77021958 224.01348533 219.04855364 222.58837891 218.32714844 C221.84090393 217.94731812 221.09342896 217.56748779 220.32330322 217.17614746 C216.34434322 215.16184142 212.34882721 213.18087208 208.35546875 211.1953125 C206.67110892 210.35569949 204.98686531 209.51585329 203.30273438 208.67578125 C200.75046919 207.40269606 198.19792782 206.13018738 195.64428711 204.85986328 C186.66638096 200.39294241 177.7204081 195.88216106 168.86328125 191.1796875 C157.02072937 184.89797456 145.00388794 178.96567323 133 173 C128.51958506 170.77333048 124.04064191 168.54373679 119.5625 166.3125 C118.58273193 165.82676514 117.60296387 165.34103027 116.59350586 164.84057617 C110.44645895 161.77743025 104.36072541 158.61261477 98.29296875 155.39648438 C87.68010907 149.78199292 76.94673987 144.41584594 66.20031738 139.06257629 C62.65566399 137.29675513 59.11232052 135.52832124 55.56933594 133.75915527 C48.04743051 130.00368343 40.52381748 126.25163935 33 122.5 C24.86864572 118.44542149 16.73762387 114.39018349 8.6085701 110.33099413 C4.55236556 108.30572285 0.49460362 106.28359468 -3.56347656 104.26208496 C-13.93078292 99.09033807 -24.25699084 93.86003654 -34.4932003 88.43304157 C-40.89792736 85.03956744 -47.35346937 81.76286737 -53.84553909 78.53964806 C-55.74925629 77.59441852 -57.65153791 76.64634696 -59.55355835 75.69770813 C-63.57621008 73.69196747 -67.60047692 71.68948256 -71.625 69.6875 C-76.33604263 67.3438965 -81.0463623 64.99886054 -85.75501633 62.6504612 C-87.60909024 61.72661041 -89.46436908 60.80521418 -91.31973267 59.88395691 C-97.63471602 56.73562037 -103.87483323 53.50475091 -110 50 C-108.55678058 47.11356116 -106.64945398 46.74275123 -103.7265625 45.41796875 C-102.60531982 44.90476074 -101.48407715 44.39155273 -100.32885742 43.86279297 C-99.72625092 43.59029724 -99.12364441 43.31780151 -98.5027771 43.03704834 C-95.29642546 41.58642318 -92.09992947 40.11435259 -88.90234375 38.64453125 C-88.243517 38.34228638 -87.58469025 38.0400415 -86.90589905 37.7286377 C-80.29493664 34.68979317 -73.73708174 31.54379902 -67.1875 28.375 C-66.07012451 27.83520508 -64.95274902 27.29541016 -63.80151367 26.73925781 C-61.59206945 25.67150744 -59.38283634 24.60332009 -57.17382812 23.53466797 C-49.47240031 19.81073141 -41.76127002 16.10813525 -34.03173828 12.44287109 C-31.87131359 11.41467735 -29.71373362 10.38049732 -27.55810547 9.34228516 C-24.00317576 7.63172583 -20.440005 5.93944311 -16.875 4.25 C-15.76568115 3.71173584 -14.6563623 3.17347168 -13.51342773 2.61889648 C-12.47516846 2.13106689 -11.43690918 1.6432373 -10.3671875 1.140625 C-9.45050293 0.70266602 -8.53381836 0.26470703 -7.58935547 -0.18652344 C-4.56609698 -1.13631575 -2.99527746 -0.9546999 0 0 Z M591 31 C591 31.66 591 32.32 591 33 C593.97 33 596.94 33 600 33 C600 32.67 600 32.34 600 32 C597.03 31.67 594.06 31.34 591 31 Z " fill="#000000" transform="translate(235,698)"/>
<path d="M0 0 C0.515625 0.433125 1.03125 0.86625 1.5625 1.3125 C4.582386 3.40319031 7.5958835 4.62526065 11 6 C10.34 6.99 9.68 7.98 9 9 C8.36707617 11.11280345 8.36707617 11.11280345 8 13 C7.2884375 13.09539063 6.576875 13.19078125 5.84375 13.2890625 C2.53036664 14.11740834 0.33785246 15.48575552 -2.5 17.375 C-10.63184524 22.74293155 -10.63184524 22.74293155 -13 24 C-13.66 23.67 -14.32 23.34 -15 23 C-15.144375 22.34 -15.28875 21.68 -15.4375 21 C-15.623125 20.34 -15.80875 19.68 -16 19 C-16.99 18.67 -17.98 18.34 -19 18 C-18.67 17.34 -18.34 16.68 -18 16 C-20.97 15.505 -20.97 15.505 -24 15 C-24 14.67 -24 14.34 -24 14 C-21.03 13.34 -18.06 12.68 -15 12 C-15.33 10.68 -15.66 9.36 -16 8 C-13.03 8 -10.06 8 -7 8 C-7.33 6.68 -7.66 5.36 -8 4 C-6.68 4 -5.36 4 -4 4 C-4 4.66 -4 5.32 -4 6 C-3.34 5.67 -2.68 5.34 -2 5 C-2 3.68 -2 2.36 -2 1 C-1.34 0.67 -0.68 0.34 0 0 Z M-6 6 C-6 6.66 -6 7.32 -6 8 C-3.03 8 -0.06 8 3 8 C3 7.67 3 7.34 3 7 C0.03 6.67 -2.94 6.34 -6 6 Z " fill="#000000" transform="translate(832,723)"/>
<path d="M0 0 C0.66 0.33 1.32 0.66 2 1 C2 11.23 2 21.46 2 32 C1.01 31.01 0.02 30.02 -1 29 C-2.53545874 28.0585702 -4.10021774 27.16365136 -5.6875 26.3125 C-6.49574219 25.87550781 -7.30398438 25.43851563 -8.13671875 24.98828125 C-8.75160156 24.66214844 -9.36648438 24.33601562 -10 24 C-10 23.34 -10 22.68 -10 22 C-11.32 21.67 -12.64 21.34 -14 21 C-14 20.34 -14 19.68 -14 19 C-15.0209375 18.6596875 -15.0209375 18.6596875 -16.0625 18.3125 C-19.20505996 16.90837746 -21.57928756 15.16066167 -24.25390625 13.0234375 C-26.2378307 11.66288669 -26.2378307 11.66288669 -30 12 C-30 10.02 -30 8.04 -30 6 C-27.5 7.375 -27.5 7.375 -25 9 C-25 9.66 -25 10.32 -25 11 C-23.4840625 11.061875 -23.4840625 11.061875 -21.9375 11.125 C-17.13087208 11.79773291 -14.27167859 14.59164555 -11 18 C-10 19.33333333 -9 20.66666667 -8 22 C-6.68252676 22.69748583 -5.35085807 23.36959957 -4 24 C-3.67 24.66 -3.34 25.32 -3 26 C-2.01 26.33 -1.02 26.66 0 27 C0 18.09 0 9.18 0 0 Z " fill="#000000" transform="translate(846,700)"/>
<path d="M0 0 C0.515625 0.433125 1.03125 0.86625 1.5625 1.3125 C4.582386 3.40319031 7.5958835 4.62526065 11 6 C10.01 7.485 10.01 7.485 9 9 C8.36707617 11.11280345 8.36707617 11.11280345 8 13 C7.2575 13.103125 6.515 13.20625 5.75 13.3125 C2.82985982 14.04253504 1.26812446 15.06789398 -1 17 C-1.66 16.67 -2.32 16.34 -3 16 C-2.67 15.34 -2.34 14.68 -2 14 C-1.34 14 -0.68 14 0 14 C0 13.34 0 12.68 0 12 C-1.32 11.67 -2.64 11.34 -4 11 C-2.68 11 -1.36 11 0 11 C0 10.34 0 9.68 0 9 C3 10 3 10 5 11 C5 10.01 5 9.02 5 8 C2.03 7.67 -0.94 7.34 -4 7 C-3.34 5.68 -2.68 4.36 -2 3 C-2 2.34 -2 1.68 -2 1 C-1.34 0.67 -0.68 0.34 0 0 Z " fill="#000000" transform="translate(832,723)"/>
<path d="M0 0 C-0.33 0.66 -0.66 1.32 -1 2 C-2.36125 1.938125 -2.36125 1.938125 -3.75 1.875 C-6.9601818 1.99846853 -8.24530374 2.5751571 -11 4 C-11.99 3.67 -12.98 3.34 -14 3 C-14 3.66 -14 4.32 -14 5 C-13.34 5 -12.68 5 -12 5 C-10.4140625 6.609375 -10.4140625 6.609375 -8.625 8.75 C-6.18382134 11.6243732 -3.72350008 14.38543992 -1 17 C-1.33 17.99 -1.66 18.98 -2 20 C-4.34138543 17.71643754 -6.67166982 15.42186626 -9 13.125 C-9.66773438 12.47402344 -10.33546875 11.82304687 -11.0234375 11.15234375 C-11.65507812 10.52714844 -12.28671875 9.90195312 -12.9375 9.2578125 C-13.52402344 8.6817627 -14.11054688 8.10571289 -14.71484375 7.51220703 C-16 6 -16 6 -16 4 C-16.99 3.67 -17.98 3.34 -19 3 C-14.6287251 -1.3712749 -5.88439776 -0.12259162 0 0 Z " fill="#000000" transform="translate(171,493)"/>
<path d="M0 0 C0 0.66 0 1.32 0 2 C-4.6337296 4.85910975 -8.94497687 6.78075605 -14.1796875 8.2890625 C-16.2014827 8.8442612 -16.2014827 8.8442612 -17 11 C-17.66 11 -18.32 11 -19 11 C-19 11.99 -19 12.98 -19 14 C-20.8125 14.6875 -20.8125 14.6875 -23 15 C-24.63671875 13.51953125 -24.63671875 13.51953125 -26 12 C-14.28125 6.140625 -14.28125 6.140625 -12.15234375 5.08007812 C-10.68202164 4.34224861 -9.21602922 3.59574376 -7.75390625 2.84179688 C-2.21064815 0 -2.21064815 0 0 0 Z " fill="#000000" transform="translate(151,735)"/>
<path d="M0 0 C3.15204981 1.39347376 5.26171773 3.02485079 7.671875 5.4765625 C8.33574219 6.146875 8.99960938 6.8171875 9.68359375 7.5078125 C10.36550781 8.20648437 11.04742187 8.90515625 11.75 9.625 C12.44738281 10.33140625 13.14476562 11.0378125 13.86328125 11.765625 C15.58012488 13.50598703 17.29211832 15.25084981 19 17 C18.67 17.99 18.34 18.98 18 20 C15.65861457 17.71643754 13.32833018 15.42186626 11 13.125 C10.33226562 12.47402344 9.66453125 11.82304688 8.9765625 11.15234375 C8.34492188 10.52714844 7.71328125 9.90195312 7.0625 9.2578125 C6.47597656 8.6817627 5.88945312 8.10571289 5.28515625 7.51220703 C4 6 4 6 4 4 C3.34 4 2.68 4 2 4 C1.34 2.68 0.68 1.36 0 0 Z " fill="#000000" transform="translate(172,515)"/>
<path d="M0 0 C4.95003075 1.9800123 7.13939157 3.58829953 11 7 C9.02 7.99 9.02 7.99 7 9 C7 8.34 7 7.68 7 7 C6.34 7 5.68 7 5 7 C4.34 6.34 3.68 5.68 3 5 C2.34 7.97 1.68 10.94 1 14 C0.67 14 0.34 14 0 14 C0 9.38 0 4.76 0 0 Z " fill="#000000" transform="translate(500,88)"/>
<path d="M0 0 C2.475 0.495 2.475 0.495 5 1 C4.78472656 1.52078125 4.56945312 2.0415625 4.34765625 2.578125 C3.83971401 6.11659902 5.09381009 8.47270754 6.4375 11.75 C6.91058594 12.92046875 7.38367188 14.0909375 7.87109375 15.296875 C8.24363281 16.18890625 8.61617188 17.0809375 9 18 C8.01 18 7.02 18 6 18 C4.9936345 15.56495491 3.99473587 13.12729136 3 10.6875 C2.71382813 9.99720703 2.42765625 9.30691406 2.1328125 8.59570312 C0.91089256 5.58454326 0 3.28113016 0 0 Z " fill="#000000" transform="translate(287,254)"/>
<path d="M0 0 C-0.33 0.99 -0.66 1.98 -1 3 C-3.1875 4 -3.1875 4 -6 5 C-8.00812926 5.98357352 -10.00854609 6.98308736 -12 8 C-13.33333333 8.66666667 -14.66666667 9.33333333 -16 10 C-15.90234375 8.203125 -15.90234375 8.203125 -15 6 C-12.12890625 4.296875 -12.12890625 4.296875 -8.5625 2.75 C-7.38816406 2.22921875 -6.21382812 1.7084375 -5.00390625 1.171875 C-2 0 -2 0 0 0 Z " fill="#000000" transform="translate(192,716)"/>
<path d="M0 0 C0.66386719 0.33773437 1.32773438 0.67546875 2.01171875 1.0234375 C3.33623047 1.69246094 3.33623047 1.69246094 4.6875 2.375 C5.55761719 2.81585937 6.42773438 3.25671875 7.32421875 3.7109375 C9.84772799 4.92664268 12.38737532 5.99260958 15 7 C14.67 7.66 14.34 8.32 14 9 C8.31497465 7.35433477 3.23318364 4.70967216 -2 2 C-1.34 1.34 -0.68 0.68 0 0 Z " fill="#000000" transform="translate(146,756)"/>
<path d="M0 0 C0.94875 0.185625 1.8975 0.37125 2.875 0.5625 C5.89868793 1.28686632 5.89868793 1.28686632 8 0 C8 1.32 8 2.64 8 4 C7.2575 4.103125 6.515 4.20625 5.75 4.3125 C2.82985982 5.04253504 1.26812446 6.06789398 -1 8 C-1.66 7.67 -2.32 7.34 -3 7 C-2.67 6.34 -2.34 5.68 -2 5 C-1.34 5 -0.68 5 0 5 C0 4.34 0 3.68 0 3 C-1.32 2.67 -2.64 2.34 -4 2 C-2.68 2 -1.36 2 0 2 C0 1.34 0 0.68 0 0 Z " fill="#000000" transform="translate(832,732)"/>
<path d="M0 0 C-0.5625 1.875 -0.5625 1.875 -2 4 C-5.5625 5.1875 -5.5625 5.1875 -9 6 C-9.33 6.33 -9.66 6.66 -10 7 C-11.66617115 7.04063832 -13.33388095 7.042721 -15 7 C-11.19791273 3.69383716 -5.16418515 0 0 0 Z " fill="#000000" transform="translate(215,705)"/>
<path d="M0 0 C7.83098592 1.95774648 7.83098592 1.95774648 11 5 C11 5.66 11 6.32 11 7 C6.96678237 5.78065514 3.45730521 4.44045073 0 2 C0 1.34 0 0.68 0 0 Z " fill="#000000" transform="translate(133,750)"/>
<path d="M0 0 C4.3177458 0.50797009 8.03302114 1.19682779 12 3 C12 3.99 12 4.98 12 6 C7.76570244 4.68938409 3.92592596 3.05643741 0 1 C0 0.67 0 0.34 0 0 Z " fill="#000000" transform="translate(160,765)"/>
<path d="M0 0 C0.66 0.99 1.32 1.98 2 3 C1.67 3.33 1.34 3.66 1 4 C1.99 4.99 2.98 5.98 4 7 C1.36 7 -1.28 7 -4 7 C-3.67 6.38125 -3.34 5.7625 -3 5.125 C-1.85806765 3.08981656 -1.85806765 3.08981656 -2 1 C-1.34 0.67 -0.68 0.34 0 0 Z " fill="#000000" transform="translate(832,723)"/>
<path d="M0 0 C0.66 0 1.32 0 2 0 C2.99 2.97 3.98 5.94 5 9 C4.34 9.66 3.68 10.32 3 11 C2.49384702 9.73160474 1.99530901 8.46016898 1.5 7.1875 C1.2215625 6.47980469 0.943125 5.77210938 0.65625 5.04296875 C0 3 0 3 0 0 Z " fill="#000000" transform="translate(295,273)"/>
<path d="M0 0 C-2.19883405 2.19883405 -3.00956424 2.52131514 -6 3 C-8.359375 2.87890625 -8.359375 2.87890625 -10.75 2.5625 C-11.94882812 2.40974609 -11.94882812 2.40974609 -13.171875 2.25390625 C-13.77515625 2.17011719 -14.3784375 2.08632813 -15 2 C-15 1.67 -15 1.34 -15 1 C-9.91913204 0.15318867 -5.15171623 -0.09038099 0 0 Z " fill="#000000" transform="translate(823,736)"/>
<path d="M0 0 C2 0 2 0 4.4375 2.3125 C5.283125 3.199375 6.12875 4.08625 7 5 C7.598125 5.598125 8.19625 6.19625 8.8125 6.8125 C9.204375 7.204375 9.59625 7.59625 10 8 C9.67 8.99 9.34 9.98 9 11 C8.443125 10.278125 7.88625 9.55625 7.3125 8.8125 C5.01744765 5.92843935 5.01744765 5.92843935 2.25 3.25 C1.5075 2.5075 0.765 1.765 0 1 C0 0.67 0 0.34 0 0 Z " fill="#000000" transform="translate(203,547)"/>
<path d="M0 0 C4.40114397 0.50298788 6.71195019 2.08772731 10 5 C6.28111761 4.49287967 3.26545761 3.88391785 0 2 C0 1.34 0 0.68 0 0 Z " fill="#000000" transform="translate(289,829)"/>
<path d="M0 0 C1.14926266 0.95421808 2.29430541 1.91352045 3.4375 2.875 C4.07558594 3.40867187 4.71367187 3.94234375 5.37109375 4.4921875 C7 6 7 6 8 8 C6.68 7.67 5.36 7.34 4 7 C4 6.34 4 5.68 4 5 C2.68 4.34 1.36 3.68 0 3 C0 2.01 0 1.02 0 0 Z " fill="#000000" transform="translate(305,650)"/>
<path d="M0 0 C1.65 0.99 3.3 1.98 5 3 C4.67 3.99 4.34 4.98 4 6 C2.68 6 1.36 6 0 6 C0 4.02 0 2.04 0 0 Z " fill="#000000" transform="translate(816,706)"/>
<path d="M0 0 C2.375 0.3125 2.375 0.3125 5 1 C5.66 1.99 6.32 2.98 7 4 C5.68 4.33 4.36 4.66 3 5 C3 4.34 3 3.68 3 3 C2.34 3 1.68 3 1 3 C0.67 2.01 0.34 1.02 0 0 Z " fill="#000000" transform="translate(504,92)"/>
<path d="M0 0 C0 0.66 0 1.32 0 2 C-2.31 3.32 -4.62 4.64 -7 6 C-6.75 4.125 -6.75 4.125 -6 2 C-3.85331506 0.61504198 -2.56128588 0 0 0 Z " fill="#000000" transform="translate(151,735)"/>
<path d="M0 0 C0.99 0.33 1.98 0.66 3 1 C3.33 2.98 3.66 4.96 4 7 C3.34 7 2.68 7 2 7 C0.5393715 4.35261084 0 3.10551666 0 0 Z " fill="#000000" transform="translate(308,306)"/>
<path d="M0 0 C6.875 3.75 6.875 3.75 8 6 C5.07120629 5.37240135 2.63904371 4.41377341 0 3 C0 2.01 0 1.02 0 0 Z " fill="#000000" transform="translate(531,110)"/>
<path d="M0 0 C6.875 3.75 6.875 3.75 8 6 C5.21788056 5.62403791 3.4120716 5.32681541 1.1875 3.5625 C0 2 0 2 0 0 Z " fill="#000000" transform="translate(513,97)"/>
<path d="M0 0 C1.32 0.33 2.64 0.66 4 1 C3.01 1.33 2.02 1.66 1 2 C0.67 1.34 0.34 0.68 0 0 Z " fill="#000000" transform="translate(715,750)"/>
<path d="M0 0 C1.65 0 3.3 0 5 0 C5 0.33 5 0.66 5 1 C3.35 1 1.7 1 0 1 C0 0.67 0 0.34 0 0 Z " fill="#000000" transform="translate(785,742)"/>
<path d="M0 0 C4 1 4 1 4 1 Z " fill="#000000" transform="translate(707,751)"/>
<path d="M0 0 C4 1 4 1 4 1 Z " fill="#000000" transform="translate(248,480)"/>
<path d="M0 0 C3 1 3 1 3 1 Z " fill="#000000" transform="translate(496,832)"/>
<path d="M0 0 C3 1 3 1 3 1 Z " fill="#000000" transform="translate(501,775)"/>
<path d="M0 0 C3 1 3 1 3 1 Z " fill="#000000" transform="translate(571,767)"/>
<path d="M0 0 C3 1 3 1 3 1 Z " fill="#000000" transform="translate(639,759)"/>
<path d="M0 0 C3 1 3 1 3 1 Z " fill="#000000" transform="translate(485,704)"/>
<path d="M0 0 C0.66 0 1.32 0 2 0 C1.67 0.66 1.34 1.32 1 2 C0.67 1.34 0.34 0.68 0 0 Z " fill="#000000" transform="translate(803,701)"/>
<path d="" fill="#000000" transform="translate(0,0)"/>
<path d="" fill="#000000" transform="translate(0,0)"/>
<path d="" fill="#000000" transform="translate(0,0)"/>
<path d="" fill="#000000" transform="translate(0,0)"/>
<path d="M0 0 C2 1 2 1 2 1 Z " fill="#000000" transform="translate(532,895)"/>
<path d="M0 0 C2 1 2 1 2 1 Z " fill="#000000" transform="translate(232,804)"/>
<path d="M0 0 C2 1 2 1 2 1 Z " fill="#000000" transform="translate(632,792)"/>
<path d="M0 0 C2 1 2 1 2 1 Z " fill="#000000" transform="translate(208,791)"/>
<path d="M0 0 C2 1 2 1 2 1 Z " fill="#000000" transform="translate(661,784)"/>
<path d="M0 0 C2 1 2 1 2 1 Z " fill="#000000" transform="translate(192,783)"/>
<path d="M0 0 C2 1 2 1 2 1 Z " fill="#000000" transform="translate(580,766)"/>
<path d="M0 0 C2 1 2 1 2 1 Z " fill="#000000" transform="translate(587,765)"/>
<path d="M0 0 C2 1 2 1 2 1 Z " fill="#000000" transform="translate(644,758)"/>
<path d="M0 0 C2 1 2 1 2 1 Z " fill="#000000" transform="translate(704,751)"/>
<path d="M0 0 C2 1 2 1 2 1 Z " fill="#000000" transform="translate(727,749)"/>
<path d="M0 0 C2 1 2 1 2 1 Z " fill="#000000" transform="translate(806,741)"/>
<path d="M0 0 C2 1 2 1 2 1 Z " fill="#000000" transform="translate(805,728)"/>
<path d="M0 0 C2 1 2 1 2 1 Z " fill="#000000" transform="translate(160,728)"/>
<path d="M0 0 C2 1 2 1 2 1 Z " fill="#000000" transform="translate(693,720)"/>
<path d="M0 0 C2 1 2 1 2 1 Z " fill="#000000" transform="translate(827,718)"/>
<path d="M0 0 C2 1 2 1 2 1 Z " fill="#000000" transform="translate(823,715)"/>
<path d="M0 0 C2 1 2 1 2 1 Z " fill="#000000" transform="translate(581,712)"/>
<path d="M0 0 C2 1 2 1 2 1 Z " fill="#000000" transform="translate(724,702)"/>
<path d="M0 0 C2 1 2 1 2 1 Z " fill="#000000" transform="translate(722,701)"/>
<path d="M0 0 C2 1 2 1 2 1 Z " fill="#000000" transform="translate(696,623)"/>
<path d="M0 0 C2 1 2 1 2 1 Z " fill="#000000" transform="translate(640,583)"/>
<path d="" fill="#000000" transform="translate(0,0)"/>
<path d="" fill="#000000" transform="translate(0,0)"/>
<path d="" fill="#000000" transform="translate(0,0)"/>
<path d="" fill="#000000" transform="translate(0,0)"/>
<path d="" fill="#000000" transform="translate(0,0)"/>
<path d="" fill="#000000" transform="translate(0,0)"/>
<path d="" fill="#000000" transform="translate(0,0)"/>
<path d="" fill="#000000" transform="translate(0,0)"/>
<path d="" fill="#000000" transform="translate(0,0)"/>
<path d="" fill="#000000" transform="translate(0,0)"/>
<path d="" fill="#000000" transform="translate(0,0)"/>
<path d="" fill="#000000" transform="translate(0,0)"/>
<path d="" fill="#000000" transform="translate(0,0)"/>
<path d="" fill="#000000" transform="translate(0,0)"/>
<path d="" fill="#000000" transform="translate(0,0)"/>
<path d="" fill="#000000" transform="translate(0,0)"/>
<path d="" fill="#000000" transform="translate(0,0)"/>
<path d="" fill="#000000" transform="translate(0,0)"/>
<path d="" fill="#000000" transform="translate(0,0)"/>
<path d="" fill="#000000" transform="translate(0,0)"/>
<path d="" fill="#000000" transform="translate(0,0)"/>
<path d="" fill="#000000" transform="translate(0,0)"/>
<path d="" fill="#000000" transform="translate(0,0)"/>
<path d="" fill="#000000" transform="translate(0,0)"/>
<path d="" fill="#000000" transform="translate(0,0)"/>
<path d="" fill="#000000" transform="translate(0,0)"/>
<path d="" fill="#000000" transform="translate(0,0)"/>
<path d="" fill="#000000" transform="translate(0,0)"/>
<path d="" fill="#000000" transform="translate(0,0)"/>
<path d="" fill="#000000" transform="translate(0,0)"/>
<path d="" fill="#000000" transform="translate(0,0)"/>
<path d="" fill="#000000" transform="translate(0,0)"/>
<path d="" fill="#000000" transform="translate(0,0)"/>
<path d="" fill="#000000" transform="translate(0,0)"/>
<path d="" fill="#000000" transform="translate(0,0)"/>
<path d="" fill="#000000" transform="translate(0,0)"/>
<path d="" fill="#000000" transform="translate(0,0)"/>
<path d="" fill="#000000" transform="translate(0,0)"/>
<path d="" fill="#000000" transform="translate(0,0)"/>
<path d="" fill="#000000" transform="translate(0,0)"/>
<path d="" fill="#000000" transform="translate(0,0)"/>
<path d="" fill="#000000" transform="translate(0,0)"/>
<path d="" fill="#000000" transform="translate(0,0)"/>
<path d="" fill="#000000" transform="translate(0,0)"/>
<path d="" fill="#000000" transform="translate(0,0)"/>
<path d="" fill="#000000" transform="translate(0,0)"/>
<path d="" fill="#000000" transform="translate(0,0)"/>
<path d="" fill="#000000" transform="translate(0,0)"/>
<path d="" fill="#000000" transform="translate(0,0)"/>
<path d="" fill="#000000" transform="translate(0,0)"/>
<path d="" fill="#000000" transform="translate(0,0)"/>
<path d="" fill="#000000" transform="translate(0,0)"/>
<path d="" fill="#000000" transform="translate(0,0)"/>
<path d="" fill="#000000" transform="translate(0,0)"/>
<path d="" fill="#000000" transform="translate(0,0)"/>
<path d="" fill="#000000" transform="translate(0,0)"/>
<path d="" fill="#000000" transform="translate(0,0)"/>
<path d="" fill="#000000" transform="translate(0,0)"/>
<path d="" fill="#000000" transform="translate(0,0)"/>
<path d="" fill="#000000" transform="translate(0,0)"/>
<path d="" fill="#000000" transform="translate(0,0)"/>
<path d="" fill="#000000" transform="translate(0,0)"/>
<path d="" fill="#000000" transform="translate(0,0)"/>
<path d="" fill="#000000" transform="translate(0,0)"/>
<path d="" fill="#000000" transform="translate(0,0)"/>
<path d="" fill="#000000" transform="translate(0,0)"/>
<path d="" fill="#000000" transform="translate(0,0)"/>
<path d="" fill="#000000" transform="translate(0,0)"/>
<path d="" fill="#000000" transform="translate(0,0)"/>
<path d="" fill="#000000" transform="translate(0,0)"/>
<path d="" fill="#000000" transform="translate(0,0)"/>
<path d="" fill="#000000" transform="translate(0,0)"/>
<path d="" fill="#000000" transform="translate(0,0)"/>
<path d="" fill="#000000" transform="translate(0,0)"/>
<path d="" fill="#000000" transform="translate(0,0)"/>
<path d="" fill="#000000" transform="translate(0,0)"/>
<path d="" fill="#000000" transform="translate(0,0)"/>
<path d="" fill="#000000" transform="translate(0,0)"/>
<path d="" fill="#000000" transform="translate(0,0)"/>
<path d="" fill="#000000" transform="translate(0,0)"/>
<path d="" fill="#000000" transform="translate(0,0)"/>
<path d="" fill="#000000" transform="translate(0,0)"/>
<path d="" fill="#000000" transform="translate(0,0)"/>
<path d="" fill="#000000" transform="translate(0,0)"/>
<path d="" fill="#000000" transform="translate(0,0)"/>
<path d="" fill="#000000" transform="translate(0,0)"/>
<path d="" fill="#000000" transform="translate(0,0)"/>
<path d="" fill="#000000" transform="translate(0,0)"/>
<path d="" fill="#000000" transform="translate(0,0)"/>
<path d="" fill="#000000" transform="translate(0,0)"/>
<path d="" fill="#000000" transform="translate(0,0)"/>
<path d="" fill="#000000" transform="translate(0,0)"/>
<path d="" fill="#000000" transform="translate(0,0)"/>
<path d="" fill="#000000" transform="translate(0,0)"/>
<path d="" fill="#000000" transform="translate(0,0)"/>
<path d="" fill="#000000" transform="translate(0,0)"/>
<path d="" fill="#000000" transform="translate(0,0)"/>
<path d="" fill="#000000" transform="translate(0,0)"/>
<path d="" fill="#000000" transform="translate(0,0)"/>
<path d="" fill="#000000" transform="translate(0,0)"/>
<path d="" fill="#000000" transform="translate(0,0)"/>
<path d="" fill="#000000" transform="translate(0,0)"/>
<path d="" fill="#000000" transform="translate(0,0)"/>
<path d="" fill="#000000" transform="translate(0,0)"/>
<path d="" fill="#000000" transform="translate(0,0)"/>
<path d="" fill="#000000" transform="translate(0,0)"/>
<path d="" fill="#000000" transform="translate(0,0)"/>
<path d="" fill="#000000" transform="translate(0,0)"/>
<path d="" fill="#000000" transform="translate(0,0)"/>
<path d="" fill="#000000" transform="translate(0,0)"/>
<path d="" fill="#000000" transform="translate(0,0)"/>
<path d="" fill="#000000" transform="translate(0,0)"/>
<path d="" fill="#000000" transform="translate(0,0)"/>
<path d="" fill="#000000" transform="translate(0,0)"/>
<path d="" fill="#000000" transform="translate(0,0)"/>
<path d="" fill="#000000" transform="translate(0,0)"/>
<path d="" fill="#000000" transform="translate(0,0)"/>
<path d="" fill="#000000" transform="translate(0,0)"/>
<path d="" fill="#000000" transform="translate(0,0)"/>
<path d="" fill="#000000" transform="translate(0,0)"/>
<path d="" fill="#000000" transform="translate(0,0)"/>
<path d="" fill="#000000" transform="translate(0,0)"/>
<path d="" fill="#000000" transform="translate(0,0)"/>
<path d="" fill="#000000" transform="translate(0,0)"/>
<path d="" fill="#000000" transform="translate(0,0)"/>
<path d="" fill="#000000" transform="translate(0,0)"/>
<path d="" fill="#000000" transform="translate(0,0)"/>
<path d="" fill="#000000" transform="translate(0,0)"/>
<path d="" fill="#000000" transform="translate(0,0)"/>
<path d="" fill="#000000" transform="translate(0,0)"/>
<path d="" fill="#000000" transform="translate(0,0)"/>
<path d="" fill="#000000" transform="translate(0,0)"/>
<path d="" fill="#000000" transform="translate(0,0)"/>
<path d="" fill="#000000" transform="translate(0,0)"/>
<path d="" fill="#000000" transform="translate(0,0)"/>
<path d="" fill="#000000" transform="translate(0,0)"/>
<path d="" fill="#000000" transform="translate(0,0)"/>
<path d="" fill="#000000" transform="translate(0,0)"/>
<path d="" fill="#000000" transform="translate(0,0)"/>
<path d="" fill="#000000" transform="translate(0,0)"/>
<path d="" fill="#000000" transform="translate(0,0)"/>
<path d="" fill="#000000" transform="translate(0,0)"/>
<path d="" fill="#000000" transform="translate(0,0)"/>
<path d="" fill="#000000" transform="translate(0,0)"/>
<path d="" fill="#000000" transform="translate(0,0)"/>
<path d="" fill="#000000" transform="translate(0,0)"/>
<path d="" fill="#000000" transform="translate(0,0)"/>
<path d="" fill="#000000" transform="translate(0,0)"/>
<path d="" fill="#000000" transform="translate(0,0)"/>
<path d="" fill="#000000" transform="translate(0,0)"/>
<path d="" fill="#000000" transform="translate(0,0)"/>
<path d="" fill="#000000" transform="translate(0,0)"/>
<path d="" fill="#000000" transform="translate(0,0)"/>
<path d="" fill="#000000" transform="translate(0,0)"/>
<path d="" fill="#000000" transform="translate(0,0)"/>
<path d="" fill="#000000" transform="translate(0,0)"/>
<path d="" fill="#000000" transform="translate(0,0)"/>
<path d="" fill="#000000" transform="translate(0,0)"/>
<path d="" fill="#000000" transform="translate(0,0)"/>
<path d="" fill="#000000" transform="translate(0,0)"/>
<path d="" fill="#000000" transform="translate(0,0)"/>
<path d="" fill="#000000" transform="translate(0,0)"/>
<path d="" fill="#000000" transform="translate(0,0)"/>
<path d="" fill="#000000" transform="translate(0,0)"/>
<path d="" fill="#000000" transform="translate(0,0)"/>
<path d="" fill="#000000" transform="translate(0,0)"/>
<path d="" fill="#000000" transform="translate(0,0)"/>
<path d="" fill="#000000" transform="translate(0,0)"/>
<path d="" fill="#000000" transform="translate(0,0)"/>
<path d="" fill="#000000" transform="translate(0,0)"/>
<path d="" fill="#000000" transform="translate(0,0)"/>
<path d="" fill="#000000" transform="translate(0,0)"/>
<path d="" fill="#000000" transform="translate(0,0)"/>
<path d="" fill="#000000" transform="translate(0,0)"/>
<path d="" fill="#000000" transform="translate(0,0)"/>
<path d="" fill="#000000" transform="translate(0,0)"/>
<path d="" fill="#000000" transform="translate(0,0)"/>
<path d="" fill="#000000" transform="translate(0,0)"/>
<path d="" fill="#000000" transform="translate(0,0)"/>
<path d="" fill="#000000" transform="translate(0,0)"/>
<path d="" fill="#000000" transform="translate(0,0)"/>
<path d="" fill="#000000" transform="translate(0,0)"/>
<path d="" fill="#000000" transform="translate(0,0)"/>
<path d="" fill="#000000" transform="translate(0,0)"/>
<path d="" fill="#000000" transform="translate(0,0)"/>
<path d="" fill="#000000" transform="translate(0,0)"/>
<path d="" fill="#000000" transform="translate(0,0)"/>
<path d="" fill="#000000" transform="translate(0,0)"/>
<path d="" fill="#000000" transform="translate(0,0)"/>
<path d="" fill="#000000" transform="translate(0,0)"/>
<path d="" fill="#000000" transform="translate(0,0)"/>
<path d="" fill="#000000" transform="translate(0,0)"/>
<path d="" fill="#000000" transform="translate(0,0)"/>
<path d="" fill="#000000" transform="translate(0,0)"/>
<path d="" fill="#000000" transform="translate(0,0)"/>
<path d="" fill="#000000" transform="translate(0,0)"/>
<path d="" fill="#000000" transform="translate(0,0)"/>
<path d="" fill="#000000" transform="translate(0,0)"/>
<path d="" fill="#000000" transform="translate(0,0)"/>
<path d="" fill="#000000" transform="translate(0,0)"/>
<path d="" fill="#000000" transform="translate(0,0)"/>
<path d="" fill="#000000" transform="translate(0,0)"/>
<path d="" fill="#000000" transform="translate(0,0)"/>
</svg>
